%FSLAX25Y25*%
%MOIN*%
G70*
G01*
G75*
G04 Layer_Physical_Order=4*
G04 Layer_Color=16711680*
%ADD10R,0.02756X0.03543*%
%ADD11C,0.04000*%
%ADD12R,0.20276X0.20276*%
%ADD13O,0.02756X0.00787*%
%ADD14O,0.00787X0.02756*%
%ADD15R,0.02953X0.05512*%
%ADD16R,0.02008X0.01575*%
%ADD17R,0.05906X0.05118*%
%ADD18R,0.03543X0.02756*%
%ADD19R,0.03937X0.04331*%
%ADD20R,0.05118X0.05079*%
%ADD21R,0.05512X0.05079*%
%ADD22R,0.06614X0.03150*%
%ADD23R,0.05906X0.06693*%
%ADD24R,0.06693X0.05906*%
%ADD25R,0.05709X0.06299*%
%ADD26R,0.07480X0.03937*%
%ADD27R,0.05315X0.01575*%
%ADD28C,0.00800*%
%ADD29C,0.05906*%
%ADD30C,0.03937*%
%ADD31C,0.06000*%
%ADD32C,0.05709*%
G04:AMPARAMS|DCode=33|XSize=59.06mil|YSize=74.8mil|CornerRadius=14.76mil|HoleSize=0mil|Usage=FLASHONLY|Rotation=90.000|XOffset=0mil|YOffset=0mil|HoleType=Round|Shape=RoundedRectangle|*
%AMROUNDEDRECTD33*
21,1,0.05906,0.04528,0,0,90.0*
21,1,0.02953,0.07480,0,0,90.0*
1,1,0.02953,0.02264,0.01476*
1,1,0.02953,0.02264,-0.01476*
1,1,0.02953,-0.02264,-0.01476*
1,1,0.02953,-0.02264,0.01476*
%
%ADD33ROUNDEDRECTD33*%
%ADD34R,0.06000X0.06000*%
%ADD35C,0.02400*%
%ADD36C,0.04000*%
%ADD37C,0.07543*%
G04:AMPARAMS|DCode=38|XSize=79.685mil|YSize=79.685mil|CornerRadius=0mil|HoleSize=0mil|Usage=FLASHONLY|Rotation=0.000|XOffset=0mil|YOffset=0mil|HoleType=Round|Shape=Relief|Width=10mil|Gap=10mil|Entries=4|*
%AMTHD38*
7,0,0,0.07969,0.05969,0.01000,45*
%
%ADD38THD38*%
%ADD39C,0.05969*%
G04:AMPARAMS|DCode=40|XSize=90mil|YSize=90mil|CornerRadius=0mil|HoleSize=0mil|Usage=FLASHONLY|Rotation=0.000|XOffset=0mil|YOffset=0mil|HoleType=Round|Shape=Relief|Width=10mil|Gap=10mil|Entries=4|*
%AMTHD40*
7,0,0,0.09000,0.07000,0.01000,45*
%
%ADD40THD40*%
%ADD41C,0.07000*%
%ADD42C,0.06559*%
G04:AMPARAMS|DCode=43|XSize=95.433mil|YSize=95.433mil|CornerRadius=0mil|HoleSize=0mil|Usage=FLASHONLY|Rotation=0.000|XOffset=0mil|YOffset=0mil|HoleType=Round|Shape=Relief|Width=10mil|Gap=10mil|Entries=4|*
%AMTHD43*
7,0,0,0.09543,0.07543,0.01000,45*
%
%ADD43THD43*%
%ADD44C,0.07347*%
%ADD45O,0.09118X0.05969*%
%ADD46C,0.05200*%
G04:AMPARAMS|DCode=47|XSize=72mil|YSize=72mil|CornerRadius=0mil|HoleSize=0mil|Usage=FLASHONLY|Rotation=0.000|XOffset=0mil|YOffset=0mil|HoleType=Round|Shape=Relief|Width=10mil|Gap=10mil|Entries=4|*
%AMTHD47*
7,0,0,0.07200,0.05200,0.01000,45*
%
%ADD47THD47*%
%ADD48R,0.05000X0.04000*%
%ADD49R,0.04331X0.02559*%
%ADD50R,0.05906X0.05512*%
%ADD51R,0.04000X0.05000*%
%ADD52R,0.05512X0.03543*%
%ADD53R,0.05512X0.08661*%
%ADD54R,0.02559X0.04331*%
%ADD55R,0.04331X0.03937*%
G04:AMPARAMS|DCode=56|XSize=9.84mil|YSize=23.62mil|CornerRadius=2.46mil|HoleSize=0mil|Usage=FLASHONLY|Rotation=90.000|XOffset=0mil|YOffset=0mil|HoleType=Round|Shape=RoundedRectangle|*
%AMROUNDEDRECTD56*
21,1,0.00984,0.01870,0,0,90.0*
21,1,0.00492,0.02362,0,0,90.0*
1,1,0.00492,0.00935,0.00246*
1,1,0.00492,0.00935,-0.00246*
1,1,0.00492,-0.00935,-0.00246*
1,1,0.00492,-0.00935,0.00246*
%
%ADD56ROUNDEDRECTD56*%
G04:AMPARAMS|DCode=57|XSize=9.84mil|YSize=29.53mil|CornerRadius=2.46mil|HoleSize=0mil|Usage=FLASHONLY|Rotation=90.000|XOffset=0mil|YOffset=0mil|HoleType=Round|Shape=RoundedRectangle|*
%AMROUNDEDRECTD57*
21,1,0.00984,0.02461,0,0,90.0*
21,1,0.00492,0.02953,0,0,90.0*
1,1,0.00492,0.01230,0.00246*
1,1,0.00492,0.01230,-0.00246*
1,1,0.00492,-0.01230,-0.00246*
1,1,0.00492,-0.01230,0.00246*
%
%ADD57ROUNDEDRECTD57*%
%ADD58R,0.00787X0.02559*%
%ADD59R,0.02559X0.00787*%
%ADD60R,0.03150X0.03150*%
%ADD61R,0.03543X0.08858*%
%ADD62R,0.03543X0.11024*%
%ADD63C,0.01000*%
%ADD64C,0.02000*%
%ADD65C,0.01500*%
D10*
X8500Y13941D02*
D03*
Y19059D02*
D03*
D11*
X176000Y7000D02*
D03*
X175000Y65000D02*
D03*
X3500Y5000D02*
D03*
X3000Y67000D02*
D03*
D18*
X94941Y65500D02*
D03*
X100059D02*
D03*
X104559Y20000D02*
D03*
X99441D02*
D03*
X32441Y19000D02*
D03*
X37559D02*
D03*
X24659Y5000D02*
D03*
X19541D02*
D03*
X85059Y8000D02*
D03*
X79941D02*
D03*
D19*
X110000Y43347D02*
D03*
Y36654D02*
D03*
X4500Y20346D02*
D03*
Y13654D02*
D03*
D28*
X24659Y5500D02*
X28500D01*
X24120Y5000D02*
X24659D01*
X21016Y8104D02*
X24120Y5000D01*
X21016Y8104D02*
Y10299D01*
X70000Y6800D02*
X70800Y6000D01*
Y4800D02*
Y6000D01*
X68400Y2400D02*
X70800Y4800D01*
X23100Y8000D02*
X31000D01*
X22591Y8509D02*
X23100Y8000D01*
X22591Y8509D02*
Y10299D01*
X95000Y55000D02*
Y59240D01*
X69157Y41500D02*
X75500D01*
X57913Y30256D02*
X69157Y41500D01*
X28000Y51500D02*
Y56778D01*
X75500Y48500D02*
Y53154D01*
X73700Y54954D02*
X75500Y53154D01*
X73700Y54954D02*
Y58300D01*
X66000Y66000D02*
X73700Y58300D01*
X27777Y66000D02*
X66000D01*
X25100Y63323D02*
X27777Y66000D01*
X25100Y59677D02*
Y63323D01*
Y59677D02*
X28000Y56778D01*
Y51500D02*
X29500D01*
X97835Y9031D02*
X103818D01*
X147000Y61500D02*
X159500D01*
X143000Y44500D02*
X147000Y48500D01*
X143000Y40500D02*
Y44500D01*
X139000Y36500D02*
X143000Y40500D01*
X139000Y36000D02*
Y36500D01*
X129500Y36000D02*
X139000D01*
X129004Y35504D02*
X129500Y36000D01*
X128958Y35504D02*
X129004D01*
X127954Y34500D02*
X128958Y35504D01*
X127000Y34500D02*
X127954D01*
X140204Y33704D02*
X144500Y38000D01*
X129704Y33704D02*
X140204D01*
X144500Y38000D02*
X161000D01*
X128000Y32000D02*
X129704Y33704D01*
X118939Y45439D02*
X119750Y46250D01*
X118500Y45000D02*
X118939Y45439D01*
X116850Y33000D02*
Y35941D01*
X118939Y38030D02*
Y45439D01*
X116850Y35941D02*
X118939Y38030D01*
X128000Y24500D02*
Y32000D01*
X90000Y65150D02*
Y65689D01*
X92589Y68278D01*
X97293D01*
X100059Y65512D01*
Y65500D02*
Y65512D01*
Y63222D02*
Y65500D01*
Y63222D02*
X101841Y61441D01*
Y58659D02*
Y61441D01*
Y58659D02*
X105000Y55500D01*
X107724D01*
X119750Y46250D02*
Y49975D01*
Y46250D02*
X121000Y45000D01*
X123941D01*
X126420Y47479D01*
Y48546D01*
X134000Y56126D01*
X112248Y22748D02*
X112500D01*
X109200Y19700D02*
X112248Y22748D01*
X109200Y13713D02*
Y19700D01*
X95000Y17500D02*
X95632Y18132D01*
Y21979D01*
X98154Y24500D01*
X98000Y18559D02*
X99441Y20000D01*
X98000Y16000D02*
Y18559D01*
X78500Y12000D02*
X79941Y10559D01*
Y8000D02*
Y10559D01*
X75500Y61000D02*
X79500Y65000D01*
X75500Y57500D02*
Y61000D01*
Y57500D02*
X77000Y56000D01*
X80500D01*
X79500Y65000D02*
X79650Y65150D01*
X90000D01*
X79500Y60000D02*
X79650Y59850D01*
X90000D01*
X85539Y44961D02*
Y47417D01*
Y44961D02*
X90650Y39850D01*
X98000D01*
X114000Y45000D02*
X118500D01*
X112346Y43347D02*
X114000Y45000D01*
X110000Y43347D02*
X112346D01*
X116500Y65500D02*
X117415Y64585D01*
Y60435D02*
Y64585D01*
Y60435D02*
X117850Y60000D01*
X161000Y38000D02*
X164500Y41500D01*
X159126Y51874D02*
Y56126D01*
X134000D02*
X159126D01*
X22591Y22701D02*
Y48091D01*
X24165Y22701D02*
Y24665D01*
X26000Y26500D01*
X26429Y20437D02*
X29563D01*
X31441Y18559D01*
X9878Y12563D02*
X14028D01*
X9878Y20437D02*
X14028D01*
X8500Y19059D02*
X9878Y20437D01*
X19441Y6500D02*
Y10299D01*
X19441Y6500D02*
X19441Y6500D01*
X31000Y8000D02*
X32000Y7000D01*
X16291Y8791D02*
Y10299D01*
X15500Y8000D02*
X16291Y8791D01*
X17866Y8366D02*
Y10299D01*
X14500Y5000D02*
X17866Y8366D01*
Y22701D02*
Y26634D01*
X15500Y29000D02*
X17866Y26634D01*
X21016Y22701D02*
Y27484D01*
X16500Y32000D02*
X21016Y27484D01*
X11000Y29000D02*
X15500D01*
Y32000D02*
X16500D01*
X19441Y5500D02*
Y6500D01*
X37154Y7500D02*
Y9654D01*
X40000Y12500D01*
X32000Y7000D02*
X36654D01*
X32500Y16500D02*
Y18559D01*
Y16500D02*
X36500Y12500D01*
X40000D01*
X37559Y19000D02*
X41000D01*
X8000Y26000D02*
X11000Y29000D01*
X8000Y24500D02*
Y26000D01*
X8500Y19059D02*
Y24000D01*
X8000Y24500D02*
X8500Y24000D01*
X88622Y6000D02*
X92500D01*
X88561Y6061D02*
X88622Y6000D01*
X118000Y9000D02*
Y13500D01*
X113000Y9000D02*
Y16252D01*
X104000Y8850D02*
X107350D01*
X109200Y10700D01*
Y13713D01*
X13423Y2400D02*
X68400D01*
X11500Y4323D02*
X13423Y2400D01*
X11500Y4323D02*
Y6500D01*
X13000Y8000D01*
X15500D01*
D29*
X134000Y40563D02*
D03*
Y48374D02*
D03*
Y63937D02*
D03*
Y56126D02*
D03*
D30*
X65000Y27500D02*
D03*
X55000Y37500D02*
D03*
X65000Y47500D02*
D03*
X57913Y30256D02*
D03*
Y44823D02*
D03*
X164500Y41500D02*
D03*
Y46500D02*
D03*
Y51500D02*
D03*
Y56500D02*
D03*
Y61500D02*
D03*
X159500D02*
D03*
Y56500D02*
D03*
Y51500D02*
D03*
Y46500D02*
D03*
Y41500D02*
D03*
D31*
X29500Y31500D02*
D03*
Y41500D02*
D03*
Y51500D02*
D03*
Y61500D02*
D03*
X134000Y21626D02*
D03*
Y13752D02*
D03*
Y5878D02*
D03*
D32*
X158882Y9657D02*
D03*
X158882Y29343D02*
D03*
D33*
X169118Y32492D02*
D03*
Y6902D02*
D03*
D34*
X134000Y29500D02*
D03*
D35*
X70000Y6800D02*
D03*
X95000Y55000D02*
D03*
X85000Y17500D02*
D03*
X147000Y48500D02*
D03*
Y61500D02*
D03*
X128500Y20200D02*
D03*
X127300Y34500D02*
D03*
X128000Y24500D02*
D03*
X116000Y20500D02*
D03*
X78500Y12000D02*
D03*
X95000Y17500D02*
D03*
X98000Y16000D02*
D03*
X79500Y60000D02*
D03*
Y65000D02*
D03*
X109200Y13713D02*
D03*
X116500Y65500D02*
D03*
X15500Y32000D02*
D03*
X14500Y5000D02*
D03*
X28500Y5500D02*
D03*
X40000Y12500D02*
D03*
X4500Y10000D02*
D03*
X8000Y24500D02*
D03*
X41000Y19000D02*
D03*
X92500Y6000D02*
D03*
X117000Y13500D02*
D03*
X69000Y54000D02*
D03*
X81000Y40000D02*
D03*
D48*
X90000Y65150D02*
D03*
Y59850D02*
D03*
X98000Y39850D02*
D03*
Y45150D02*
D03*
X104000Y8850D02*
D03*
Y14150D02*
D03*
D49*
X107724Y59240D02*
D03*
Y55500D02*
D03*
Y51760D02*
D03*
X98276D02*
D03*
Y59240D02*
D03*
D50*
X122768Y66000D02*
D03*
X106232D02*
D03*
D51*
X116850Y33000D02*
D03*
X122150D02*
D03*
X117850Y60000D02*
D03*
X123150D02*
D03*
D52*
X123000Y12504D02*
D03*
D53*
Y22543D02*
D03*
D54*
X116260Y50225D02*
D03*
X120000D02*
D03*
X123740D02*
D03*
Y40776D02*
D03*
X116260D02*
D03*
D55*
X37154Y7500D02*
D03*
X43846D02*
D03*
X110846Y31000D02*
D03*
X104154D02*
D03*
X98154Y24500D02*
D03*
X104847D02*
D03*
X119346Y7000D02*
D03*
X112654D02*
D03*
D56*
X92165Y12968D02*
D03*
Y11000D02*
D03*
Y9031D02*
D03*
X97835D02*
D03*
Y11000D02*
D03*
D57*
X97638Y12968D02*
D03*
D58*
X24165Y22701D02*
D03*
X22591D02*
D03*
X21016D02*
D03*
X19441D02*
D03*
X17866D02*
D03*
X16291D02*
D03*
Y10299D02*
D03*
X17866D02*
D03*
X19441D02*
D03*
X21016D02*
D03*
X22591D02*
D03*
X24165D02*
D03*
D59*
X14028Y20437D02*
D03*
Y18862D02*
D03*
Y17288D02*
D03*
Y15713D02*
D03*
Y14138D02*
D03*
Y12563D02*
D03*
X26429D02*
D03*
Y14138D02*
D03*
Y15713D02*
D03*
Y17288D02*
D03*
Y18862D02*
D03*
Y20437D02*
D03*
D60*
X112500Y22748D02*
D03*
Y16252D02*
D03*
X104000Y44248D02*
D03*
Y37752D02*
D03*
D61*
X75500Y48500D02*
D03*
X80421D02*
D03*
X90461D02*
D03*
X75500Y27437D02*
D03*
X80421D02*
D03*
X85539D02*
D03*
X90461D02*
D03*
D62*
X85539Y47417D02*
D03*
D63*
X95000Y59240D02*
X98276D01*
X90610D02*
X95000D01*
X26000Y51500D02*
X28000D01*
X105232Y66000D02*
X108000D01*
X109500Y64500D01*
Y61016D02*
Y64500D01*
X107724Y59240D02*
X109500Y61016D01*
X107724Y51760D02*
X110260D01*
X111500Y53000D01*
Y59000D01*
X107965D02*
X111500D01*
X107724Y59240D02*
X107965Y59000D01*
X98276Y59240D02*
Y61225D01*
X94941Y64559D02*
X98276Y61225D01*
X94941Y64559D02*
Y65500D01*
X98276Y45426D02*
Y51760D01*
X104000Y44248D02*
Y46000D01*
X105500Y47500D01*
X111500D01*
X114224Y50225D01*
X116260D01*
X122150Y33000D02*
X123000Y33850D01*
X110000Y36654D02*
X112654D01*
X116260Y40260D01*
Y40776D01*
X104000Y31154D02*
Y37752D01*
X104559Y20000D02*
Y24713D01*
X110846Y28654D02*
Y31000D01*
Y28654D02*
X111500Y28000D01*
X121000D01*
X122000Y20543D02*
X122150Y20693D01*
X121000Y28000D02*
X122000Y29000D01*
X122150Y29150D01*
X122000Y20543D02*
Y29000D01*
X121768Y66000D02*
X123150Y64618D01*
X104500Y14650D02*
Y19941D01*
X97638Y12968D02*
X102819D01*
X90031D02*
X92165D01*
X89500Y13500D02*
X90031Y12968D01*
X89500Y13500D02*
Y18154D01*
X93732Y22387D01*
Y33366D01*
X89598Y37500D02*
X93732Y33366D01*
X79500Y37500D02*
X89598D01*
X75500Y41500D02*
X79500Y37500D01*
X75500Y41500D02*
Y48500D01*
X57913Y30256D02*
X58256D01*
X51823Y44823D02*
X57913D01*
X49000Y42000D02*
X51823Y44823D01*
X49000Y31000D02*
Y42000D01*
Y31000D02*
X65421Y14579D01*
X26000Y26500D02*
X44500D01*
X49000Y31000D01*
X29500Y61500D02*
X41236D01*
X57913Y44823D01*
X4500Y20346D02*
Y30000D01*
X22591Y48091D01*
X26000Y51500D01*
X43846Y7500D02*
X58342D01*
X65421Y14579D01*
X31441Y18559D02*
X32500D01*
X4787Y13941D02*
X8500D01*
X4500Y10000D02*
Y13654D01*
X85539Y47417D02*
Y54961D01*
X83500Y57000D02*
X85539Y54961D01*
X80421Y48500D02*
X80500Y48579D01*
Y56000D01*
X81500Y57000D01*
X83500D01*
X85539Y27437D02*
X90461D01*
X85539Y18539D02*
Y27437D01*
X85059Y18059D02*
X85539Y18539D01*
X80421Y14579D02*
Y27437D01*
X85059Y8000D02*
Y18059D01*
X90031Y9031D02*
X92165D01*
X89500Y8500D02*
X90031Y9031D01*
X89500Y7000D02*
Y8500D01*
X77548Y5122D02*
X87622D01*
X76000Y6670D02*
X77548Y5122D01*
X76000Y6670D02*
Y14579D01*
X65421D02*
X76000D01*
X80421D01*
X87622Y5122D02*
X88561Y6061D01*
X89500Y7000D01*
D64*
X124996Y12504D02*
X131622Y5878D01*
X133000D01*
X129063Y63437D02*
X133000D01*
X126500Y66000D02*
X129063Y63437D01*
X121768Y66000D02*
X126500D01*
X122000Y12504D02*
X124996D01*
D65*
X123740Y37760D02*
Y40776D01*
X123000Y37020D02*
X123740Y37760D01*
X123000Y33850D02*
Y37020D01*
X122000Y20154D02*
Y28610D01*
X122000Y29000D02*
Y32850D01*
X123150Y60000D02*
Y64618D01*
X123650Y50815D02*
Y60000D01*
M02*
