%FSLAX25Y25*%
%MOIN*%
G70*
G01*
G75*
G04 Layer_Color=65535*
%ADD10R,0.02756X0.03543*%
%ADD11C,0.04000*%
%ADD12R,0.20276X0.20276*%
%ADD13O,0.02756X0.00787*%
%ADD14O,0.00787X0.02756*%
%ADD15R,0.02953X0.05512*%
%ADD16R,0.02008X0.01575*%
%ADD17R,0.05906X0.05118*%
%ADD18R,0.03543X0.02756*%
%ADD19R,0.03937X0.04331*%
%ADD20R,0.05118X0.05079*%
%ADD21R,0.05512X0.05079*%
%ADD22R,0.06614X0.03150*%
%ADD23R,0.05906X0.06693*%
%ADD24R,0.06693X0.05906*%
%ADD25R,0.05709X0.06299*%
%ADD26R,0.07480X0.03937*%
%ADD27R,0.05315X0.01575*%
%ADD28C,0.00800*%
%ADD29C,0.05906*%
%ADD30C,0.03937*%
%ADD31C,0.06000*%
%ADD32C,0.05709*%
G04:AMPARAMS|DCode=33|XSize=59.06mil|YSize=74.8mil|CornerRadius=14.76mil|HoleSize=0mil|Usage=FLASHONLY|Rotation=90.000|XOffset=0mil|YOffset=0mil|HoleType=Round|Shape=RoundedRectangle|*
%AMROUNDEDRECTD33*
21,1,0.05906,0.04528,0,0,90.0*
21,1,0.02953,0.07480,0,0,90.0*
1,1,0.02953,0.02264,0.01476*
1,1,0.02953,0.02264,-0.01476*
1,1,0.02953,-0.02264,-0.01476*
1,1,0.02953,-0.02264,0.01476*
%
%ADD33ROUNDEDRECTD33*%
%ADD34R,0.06000X0.06000*%
%ADD35C,0.02400*%
%ADD36C,0.04000*%
%ADD37C,0.07543*%
G04:AMPARAMS|DCode=38|XSize=79.685mil|YSize=79.685mil|CornerRadius=0mil|HoleSize=0mil|Usage=FLASHONLY|Rotation=0.000|XOffset=0mil|YOffset=0mil|HoleType=Round|Shape=Relief|Width=10mil|Gap=10mil|Entries=4|*
%AMTHD38*
7,0,0,0.07969,0.05969,0.01000,45*
%
%ADD38THD38*%
%ADD39C,0.05969*%
G04:AMPARAMS|DCode=40|XSize=90mil|YSize=90mil|CornerRadius=0mil|HoleSize=0mil|Usage=FLASHONLY|Rotation=0.000|XOffset=0mil|YOffset=0mil|HoleType=Round|Shape=Relief|Width=10mil|Gap=10mil|Entries=4|*
%AMTHD40*
7,0,0,0.09000,0.07000,0.01000,45*
%
%ADD40THD40*%
%ADD41C,0.07000*%
%ADD42C,0.06559*%
G04:AMPARAMS|DCode=43|XSize=95.433mil|YSize=95.433mil|CornerRadius=0mil|HoleSize=0mil|Usage=FLASHONLY|Rotation=0.000|XOffset=0mil|YOffset=0mil|HoleType=Round|Shape=Relief|Width=10mil|Gap=10mil|Entries=4|*
%AMTHD43*
7,0,0,0.09543,0.07543,0.01000,45*
%
%ADD43THD43*%
%ADD44C,0.07347*%
%ADD45O,0.09118X0.05969*%
%ADD46C,0.05200*%
G04:AMPARAMS|DCode=47|XSize=72mil|YSize=72mil|CornerRadius=0mil|HoleSize=0mil|Usage=FLASHONLY|Rotation=0.000|XOffset=0mil|YOffset=0mil|HoleType=Round|Shape=Relief|Width=10mil|Gap=10mil|Entries=4|*
%AMTHD47*
7,0,0,0.07200,0.05200,0.01000,45*
%
%ADD47THD47*%
%ADD48R,0.05000X0.04000*%
%ADD49R,0.04331X0.02559*%
%ADD50R,0.05906X0.05512*%
%ADD51R,0.04000X0.05000*%
%ADD52R,0.05512X0.03543*%
%ADD53R,0.05512X0.08661*%
%ADD54R,0.02559X0.04331*%
%ADD55R,0.04331X0.03937*%
G04:AMPARAMS|DCode=56|XSize=9.84mil|YSize=23.62mil|CornerRadius=2.46mil|HoleSize=0mil|Usage=FLASHONLY|Rotation=90.000|XOffset=0mil|YOffset=0mil|HoleType=Round|Shape=RoundedRectangle|*
%AMROUNDEDRECTD56*
21,1,0.00984,0.01870,0,0,90.0*
21,1,0.00492,0.02362,0,0,90.0*
1,1,0.00492,0.00935,0.00246*
1,1,0.00492,0.00935,-0.00246*
1,1,0.00492,-0.00935,-0.00246*
1,1,0.00492,-0.00935,0.00246*
%
%ADD56ROUNDEDRECTD56*%
G04:AMPARAMS|DCode=57|XSize=9.84mil|YSize=29.53mil|CornerRadius=2.46mil|HoleSize=0mil|Usage=FLASHONLY|Rotation=90.000|XOffset=0mil|YOffset=0mil|HoleType=Round|Shape=RoundedRectangle|*
%AMROUNDEDRECTD57*
21,1,0.00984,0.02461,0,0,90.0*
21,1,0.00492,0.02953,0,0,90.0*
1,1,0.00492,0.01230,0.00246*
1,1,0.00492,0.01230,-0.00246*
1,1,0.00492,-0.01230,-0.00246*
1,1,0.00492,-0.01230,0.00246*
%
%ADD57ROUNDEDRECTD57*%
%ADD58R,0.00787X0.02559*%
%ADD59R,0.02559X0.00787*%
%ADD60R,0.03150X0.03150*%
%ADD61R,0.03543X0.08858*%
%ADD62R,0.03543X0.11024*%
%ADD63C,0.01000*%
%ADD64C,0.02000*%
%ADD65C,0.01500*%
%ADD66C,0.00984*%
%ADD67C,0.00787*%
%ADD68C,0.00394*%
D63*
X129500Y36500D02*
X138500D01*
X129500D02*
Y52500D01*
X138500Y36500D02*
Y52500D01*
X129500D02*
X138500D01*
X129500Y68000D02*
X138500D01*
Y52000D02*
Y68000D01*
X129500Y52000D02*
Y68000D01*
Y52000D02*
X138500D01*
X141500Y2000D02*
Y70000D01*
X129000Y33004D02*
X129500Y33504D01*
D66*
X113772Y52429D02*
G03*
X113772Y52429I-492J0D01*
G01*
X120843Y55421D02*
G03*
X120843Y55421I-492J0D01*
G01*
X119843Y63921D02*
G03*
X119843Y63921I-492J0D01*
G01*
D67*
X106516Y69012D02*
X108484D01*
X112016D02*
X113984D01*
X85130Y48295D02*
Y49870D01*
X86705D01*
X85130Y21130D02*
Y22705D01*
Y21130D02*
X86705D01*
X112295D02*
X113870D01*
Y22705D01*
Y48295D02*
Y49870D01*
X112295D02*
X113870D01*
X125173Y47153D02*
Y48138D01*
X123598Y47153D02*
X125173D01*
Y52862D02*
Y53847D01*
X123598D02*
X125173D01*
X92516Y68012D02*
X94484D01*
X119516Y40012D02*
X121484D01*
X123016Y40512D02*
X124984D01*
X80016Y40988D02*
X81984D01*
X118012Y16016D02*
Y17984D01*
X122598Y62347D02*
X124173D01*
Y61362D02*
Y62347D01*
X122598Y55654D02*
X124173D01*
Y56638D01*
D68*
X97500Y60500D02*
Y61500D01*
X102500Y60500D02*
Y61500D01*
M02*
