%FSLAX25Y25*%
%MOIN*%
G70*
G01*
G75*
G04 Layer_Color=32896*
%ADD10R,0.02756X0.03543*%
%ADD11C,0.04000*%
%ADD12R,0.20276X0.20276*%
%ADD13O,0.02756X0.00787*%
%ADD14O,0.00787X0.02756*%
%ADD15R,0.02953X0.05512*%
%ADD16R,0.02008X0.01575*%
%ADD17R,0.05906X0.05118*%
%ADD18R,0.03543X0.02756*%
%ADD19R,0.03937X0.04331*%
%ADD20R,0.05118X0.05079*%
%ADD21R,0.05512X0.05079*%
%ADD22R,0.06614X0.03150*%
%ADD23R,0.05906X0.06693*%
%ADD24R,0.06693X0.05906*%
%ADD25R,0.05709X0.06299*%
%ADD26R,0.07480X0.03937*%
%ADD27R,0.05315X0.01575*%
%ADD28C,0.00800*%
%ADD29C,0.05906*%
%ADD30C,0.03937*%
%ADD31C,0.06000*%
%ADD32C,0.05709*%
G04:AMPARAMS|DCode=33|XSize=59.06mil|YSize=74.8mil|CornerRadius=14.76mil|HoleSize=0mil|Usage=FLASHONLY|Rotation=90.000|XOffset=0mil|YOffset=0mil|HoleType=Round|Shape=RoundedRectangle|*
%AMROUNDEDRECTD33*
21,1,0.05906,0.04528,0,0,90.0*
21,1,0.02953,0.07480,0,0,90.0*
1,1,0.02953,0.02264,0.01476*
1,1,0.02953,0.02264,-0.01476*
1,1,0.02953,-0.02264,-0.01476*
1,1,0.02953,-0.02264,0.01476*
%
%ADD33ROUNDEDRECTD33*%
%ADD34R,0.06000X0.06000*%
%ADD35C,0.02400*%
%ADD36C,0.04000*%
%ADD37C,0.07543*%
G04:AMPARAMS|DCode=38|XSize=79.685mil|YSize=79.685mil|CornerRadius=0mil|HoleSize=0mil|Usage=FLASHONLY|Rotation=0.000|XOffset=0mil|YOffset=0mil|HoleType=Round|Shape=Relief|Width=10mil|Gap=10mil|Entries=4|*
%AMTHD38*
7,0,0,0.07969,0.05969,0.01000,45*
%
%ADD38THD38*%
%ADD39C,0.05969*%
G04:AMPARAMS|DCode=40|XSize=90mil|YSize=90mil|CornerRadius=0mil|HoleSize=0mil|Usage=FLASHONLY|Rotation=0.000|XOffset=0mil|YOffset=0mil|HoleType=Round|Shape=Relief|Width=10mil|Gap=10mil|Entries=4|*
%AMTHD40*
7,0,0,0.09000,0.07000,0.01000,45*
%
%ADD40THD40*%
%ADD41C,0.07000*%
%ADD42C,0.06559*%
G04:AMPARAMS|DCode=43|XSize=95.433mil|YSize=95.433mil|CornerRadius=0mil|HoleSize=0mil|Usage=FLASHONLY|Rotation=0.000|XOffset=0mil|YOffset=0mil|HoleType=Round|Shape=Relief|Width=10mil|Gap=10mil|Entries=4|*
%AMTHD43*
7,0,0,0.09543,0.07543,0.01000,45*
%
%ADD43THD43*%
%ADD44C,0.07347*%
%ADD45O,0.09118X0.05969*%
%ADD46C,0.05200*%
G04:AMPARAMS|DCode=47|XSize=72mil|YSize=72mil|CornerRadius=0mil|HoleSize=0mil|Usage=FLASHONLY|Rotation=0.000|XOffset=0mil|YOffset=0mil|HoleType=Round|Shape=Relief|Width=10mil|Gap=10mil|Entries=4|*
%AMTHD47*
7,0,0,0.07200,0.05200,0.01000,45*
%
%ADD47THD47*%
%ADD48R,0.05000X0.04000*%
%ADD49R,0.04331X0.02559*%
%ADD50R,0.05906X0.05512*%
%ADD51R,0.04000X0.05000*%
%ADD52R,0.05512X0.03543*%
%ADD53R,0.05512X0.08661*%
%ADD54R,0.02559X0.04331*%
%ADD55R,0.04331X0.03937*%
G04:AMPARAMS|DCode=56|XSize=9.84mil|YSize=23.62mil|CornerRadius=2.46mil|HoleSize=0mil|Usage=FLASHONLY|Rotation=90.000|XOffset=0mil|YOffset=0mil|HoleType=Round|Shape=RoundedRectangle|*
%AMROUNDEDRECTD56*
21,1,0.00984,0.01870,0,0,90.0*
21,1,0.00492,0.02362,0,0,90.0*
1,1,0.00492,0.00935,0.00246*
1,1,0.00492,0.00935,-0.00246*
1,1,0.00492,-0.00935,-0.00246*
1,1,0.00492,-0.00935,0.00246*
%
%ADD56ROUNDEDRECTD56*%
G04:AMPARAMS|DCode=57|XSize=9.84mil|YSize=29.53mil|CornerRadius=2.46mil|HoleSize=0mil|Usage=FLASHONLY|Rotation=90.000|XOffset=0mil|YOffset=0mil|HoleType=Round|Shape=RoundedRectangle|*
%AMROUNDEDRECTD57*
21,1,0.00984,0.02461,0,0,90.0*
21,1,0.00492,0.02953,0,0,90.0*
1,1,0.00492,0.01230,0.00246*
1,1,0.00492,0.01230,-0.00246*
1,1,0.00492,-0.01230,-0.00246*
1,1,0.00492,-0.01230,0.00246*
%
%ADD57ROUNDEDRECTD57*%
%ADD58R,0.00787X0.02559*%
%ADD59R,0.02559X0.00787*%
%ADD60R,0.03150X0.03150*%
%ADD61R,0.03543X0.08858*%
%ADD62R,0.03543X0.11024*%
%ADD63C,0.01000*%
%ADD64C,0.02000*%
%ADD65C,0.01500*%
%ADD66C,0.00984*%
%ADD67C,0.00787*%
%ADD68C,0.00394*%
%ADD69R,0.03556X0.04343*%
%ADD70C,0.05000*%
%ADD71R,0.21076X0.21076*%
%ADD72O,0.03556X0.01587*%
%ADD73O,0.01587X0.03556*%
%ADD74R,0.03753X0.06312*%
%ADD75R,0.02808X0.02375*%
%ADD76R,0.06706X0.05918*%
%ADD77R,0.04343X0.03556*%
%ADD78R,0.04737X0.05131*%
%ADD79R,0.05918X0.05879*%
%ADD80R,0.06312X0.05879*%
%ADD81R,0.07414X0.03950*%
%ADD82R,0.06706X0.07493*%
%ADD83R,0.07493X0.06706*%
%ADD84R,0.06509X0.07099*%
%ADD85R,0.08280X0.04737*%
%ADD86R,0.06115X0.02375*%
%ADD87C,0.06706*%
%ADD88C,0.04737*%
%ADD89C,0.06800*%
%ADD90C,0.06509*%
G04:AMPARAMS|DCode=91|XSize=67.06mil|YSize=82.8mil|CornerRadius=18.76mil|HoleSize=0mil|Usage=FLASHONLY|Rotation=90.000|XOffset=0mil|YOffset=0mil|HoleType=Round|Shape=RoundedRectangle|*
%AMROUNDEDRECTD91*
21,1,0.06706,0.04528,0,0,90.0*
21,1,0.02953,0.08280,0,0,90.0*
1,1,0.03753,0.02264,0.01476*
1,1,0.03753,0.02264,-0.01476*
1,1,0.03753,-0.02264,-0.01476*
1,1,0.03753,-0.02264,0.01476*
%
%ADD91ROUNDEDRECTD91*%
%ADD92R,0.06800X0.06800*%
%ADD93C,0.03200*%
%ADD94R,0.05800X0.04800*%
%ADD95R,0.05131X0.03359*%
%ADD96R,0.06706X0.06312*%
%ADD97R,0.04800X0.05800*%
%ADD98R,0.06312X0.04343*%
%ADD99R,0.06312X0.09461*%
%ADD100R,0.03359X0.05131*%
%ADD101R,0.05131X0.04737*%
G04:AMPARAMS|DCode=102|XSize=17.84mil|YSize=31.62mil|CornerRadius=6.46mil|HoleSize=0mil|Usage=FLASHONLY|Rotation=90.000|XOffset=0mil|YOffset=0mil|HoleType=Round|Shape=RoundedRectangle|*
%AMROUNDEDRECTD102*
21,1,0.01784,0.01870,0,0,90.0*
21,1,0.00492,0.03162,0,0,90.0*
1,1,0.01292,0.00935,0.00246*
1,1,0.01292,0.00935,-0.00246*
1,1,0.01292,-0.00935,-0.00246*
1,1,0.01292,-0.00935,0.00246*
%
%ADD102ROUNDEDRECTD102*%
G04:AMPARAMS|DCode=103|XSize=17.84mil|YSize=37.53mil|CornerRadius=6.46mil|HoleSize=0mil|Usage=FLASHONLY|Rotation=90.000|XOffset=0mil|YOffset=0mil|HoleType=Round|Shape=RoundedRectangle|*
%AMROUNDEDRECTD103*
21,1,0.01784,0.02461,0,0,90.0*
21,1,0.00492,0.03753,0,0,90.0*
1,1,0.01292,0.01230,0.00246*
1,1,0.01292,0.01230,-0.00246*
1,1,0.01292,-0.01230,-0.00246*
1,1,0.01292,-0.01230,0.00246*
%
%ADD103ROUNDEDRECTD103*%
%ADD104R,0.01587X0.03359*%
%ADD105R,0.03359X0.01587*%
%ADD106R,0.03950X0.03950*%
%ADD107R,0.04343X0.09658*%
%ADD108R,0.04343X0.11824*%
%ADD109C,0.00606*%
D63*
X70500Y54500D02*
G03*
X70500Y54500I-500J0D01*
G01*
X34500Y26500D02*
Y65870D01*
X3004Y26500D02*
X34500D01*
X3004Y65870D02*
X34500D01*
X3004Y26500D02*
Y65870D01*
D66*
X108217Y62685D02*
G03*
X108217Y62685I-492J0D01*
G01*
X113307Y50225D02*
G03*
X113307Y50225I-492J0D01*
G01*
X29972Y22602D02*
G03*
X29972Y22602I-492J0D01*
G01*
D67*
X91988Y64516D02*
Y66484D01*
X102016Y61602D02*
X103984D01*
X102016Y49398D02*
X103984D01*
Y61602D01*
X102016Y49398D02*
Y61602D01*
X111153Y68362D02*
X117847D01*
X111153Y63638D02*
X117847D01*
X117095Y28842D02*
X123000D01*
X117095Y8764D02*
Y28842D01*
Y8764D02*
X128512D01*
Y28842D01*
X123000D02*
X128512D01*
X113898Y44516D02*
Y46484D01*
X126102Y44516D02*
Y46484D01*
X113898D02*
X126102D01*
X113898Y44516D02*
X126102D01*
X107512Y19016D02*
Y20984D01*
X29488Y18016D02*
Y19984D01*
X26134Y9807D02*
X26921D01*
Y10594D01*
X13535Y9807D02*
X14323D01*
X13535D02*
Y10594D01*
Y22406D02*
Y23193D01*
X14323D01*
X26134D02*
X26921D01*
Y22406D02*
Y23193D01*
X7516Y10988D02*
X9484D01*
X27612Y4016D02*
Y5984D01*
X72000Y21500D02*
X94000D01*
Y54500D01*
X73000D02*
X94000D01*
X72000Y53500D02*
X73000Y54500D01*
X72000Y21500D02*
Y53500D01*
X88012Y7016D02*
Y8984D01*
D68*
X98347Y14937D02*
G03*
X98347Y14937I-197J0D01*
G01*
X108563Y26587D02*
X114075D01*
X116437Y24224D01*
Y12315D02*
Y24224D01*
X112500Y12315D02*
X116437D01*
X108563D02*
Y26587D01*
Y12315D02*
X112500D01*
X100063Y48087D02*
X105575D01*
X107937Y45724D01*
Y33815D02*
Y45724D01*
X104000Y33815D02*
X107937D01*
X100063D02*
Y48087D01*
Y33815D02*
X104000D01*
X87516Y57500D02*
Y56188D01*
X86860Y56844D02*
X88172D01*
X100484Y47500D02*
Y48812D01*
X101140Y48156D02*
X99828D01*
X124500Y30516D02*
X125812D01*
X125156Y29860D02*
Y31172D01*
X125500Y57516D02*
X126812D01*
X126156Y56860D02*
Y58172D01*
X106484Y16500D02*
Y17812D01*
X107140Y17156D02*
X105828D01*
D109*
X94528Y37500D02*
G03*
X94528Y37500I-29528J0D01*
G01*
M02*
