%FSLAX25Y25*%
%MOIN*%
G70*
G01*
G75*
G04 Layer_Physical_Order=4*
G04 Layer_Color=16711680*
%ADD10R,0.02008X0.01575*%
%ADD11R,0.05315X0.01575*%
%ADD12R,0.07480X0.03937*%
%ADD13R,0.03937X0.04331*%
%ADD14R,0.05709X0.06299*%
%ADD15R,0.06693X0.05906*%
%ADD16R,0.05906X0.06693*%
%ADD17R,0.06614X0.03150*%
%ADD18R,0.05512X0.05079*%
%ADD19R,0.05118X0.05079*%
%ADD20R,0.03543X0.02756*%
%ADD21R,0.02756X0.03543*%
%ADD22R,0.05906X0.05118*%
%ADD23R,0.02953X0.05512*%
%ADD24O,0.00787X0.02756*%
%ADD25O,0.02756X0.00787*%
%ADD26R,0.20276X0.20276*%
%ADD27C,0.04000*%
%ADD28C,0.00800*%
%ADD29C,0.03347*%
%ADD30C,0.06000*%
%ADD31R,0.06000X0.06000*%
G04:AMPARAMS|DCode=32|XSize=59.06mil|YSize=74.8mil|CornerRadius=14.76mil|HoleSize=0mil|Usage=FLASHONLY|Rotation=270.000|XOffset=0mil|YOffset=0mil|HoleType=Round|Shape=RoundedRectangle|*
%AMROUNDEDRECTD32*
21,1,0.05906,0.04528,0,0,270.0*
21,1,0.02953,0.07480,0,0,270.0*
1,1,0.02953,-0.02264,-0.01476*
1,1,0.02953,-0.02264,0.01476*
1,1,0.02953,0.02264,0.01476*
1,1,0.02953,0.02264,-0.01476*
%
%ADD32ROUNDEDRECTD32*%
%ADD33C,0.05709*%
%ADD34C,0.05906*%
%ADD35C,0.03937*%
%ADD36C,0.02400*%
%ADD37C,0.04000*%
%ADD38C,0.06756*%
G04:AMPARAMS|DCode=39|XSize=87.559mil|YSize=87.559mil|CornerRadius=0mil|HoleSize=0mil|Usage=FLASHONLY|Rotation=0.000|XOffset=0mil|YOffset=0mil|HoleType=Round|Shape=Relief|Width=10mil|Gap=10mil|Entries=4|*
%AMTHD39*
7,0,0,0.08756,0.06756,0.01000,45*
%
%ADD39THD39*%
%ADD40C,0.07000*%
%ADD41C,0.07543*%
G04:AMPARAMS|DCode=42|XSize=95.433mil|YSize=95.433mil|CornerRadius=0mil|HoleSize=0mil|Usage=FLASHONLY|Rotation=0.000|XOffset=0mil|YOffset=0mil|HoleType=Round|Shape=Relief|Width=10mil|Gap=10mil|Entries=4|*
%AMTHD42*
7,0,0,0.09543,0.07543,0.01000,45*
%
%ADD42THD42*%
%ADD43O,0.09118X0.07150*%
%ADD44C,0.07347*%
%ADD45C,0.06559*%
%ADD46C,0.05969*%
G04:AMPARAMS|DCode=47|XSize=79.685mil|YSize=79.685mil|CornerRadius=0mil|HoleSize=0mil|Usage=FLASHONLY|Rotation=0.000|XOffset=0mil|YOffset=0mil|HoleType=Round|Shape=Relief|Width=10mil|Gap=10mil|Entries=4|*
%AMTHD47*
7,0,0,0.07969,0.05969,0.01000,45*
%
%ADD47THD47*%
G04:AMPARAMS|DCode=48|XSize=90mil|YSize=90mil|CornerRadius=0mil|HoleSize=0mil|Usage=FLASHONLY|Rotation=0.000|XOffset=0mil|YOffset=0mil|HoleType=Round|Shape=Relief|Width=10mil|Gap=10mil|Entries=4|*
%AMTHD48*
7,0,0,0.09000,0.07000,0.01000,45*
%
%ADD48THD48*%
%ADD49C,0.05200*%
G04:AMPARAMS|DCode=50|XSize=72mil|YSize=72mil|CornerRadius=0mil|HoleSize=0mil|Usage=FLASHONLY|Rotation=0.000|XOffset=0mil|YOffset=0mil|HoleType=Round|Shape=Relief|Width=10mil|Gap=10mil|Entries=4|*
%AMTHD50*
7,0,0,0.07200,0.05200,0.01000,45*
%
%ADD50THD50*%
%ADD51R,0.04331X0.03937*%
%ADD52R,0.03150X0.03150*%
%ADD53R,0.03543X0.08858*%
%ADD54R,0.03543X0.11024*%
%ADD55R,0.02559X0.00787*%
%ADD56R,0.00787X0.02559*%
G04:AMPARAMS|DCode=57|XSize=9.84mil|YSize=29.53mil|CornerRadius=2.46mil|HoleSize=0mil|Usage=FLASHONLY|Rotation=90.000|XOffset=0mil|YOffset=0mil|HoleType=Round|Shape=RoundedRectangle|*
%AMROUNDEDRECTD57*
21,1,0.00984,0.02461,0,0,90.0*
21,1,0.00492,0.02953,0,0,90.0*
1,1,0.00492,0.01230,0.00246*
1,1,0.00492,0.01230,-0.00246*
1,1,0.00492,-0.01230,-0.00246*
1,1,0.00492,-0.01230,0.00246*
%
%ADD57ROUNDEDRECTD57*%
G04:AMPARAMS|DCode=58|XSize=9.84mil|YSize=23.62mil|CornerRadius=2.46mil|HoleSize=0mil|Usage=FLASHONLY|Rotation=90.000|XOffset=0mil|YOffset=0mil|HoleType=Round|Shape=RoundedRectangle|*
%AMROUNDEDRECTD58*
21,1,0.00984,0.01870,0,0,90.0*
21,1,0.00492,0.02362,0,0,90.0*
1,1,0.00492,0.00935,0.00246*
1,1,0.00492,0.00935,-0.00246*
1,1,0.00492,-0.00935,-0.00246*
1,1,0.00492,-0.00935,0.00246*
%
%ADD58ROUNDEDRECTD58*%
%ADD59R,0.05000X0.04000*%
%ADD60R,0.02559X0.04331*%
%ADD61R,0.05512X0.08661*%
%ADD62R,0.05512X0.03543*%
%ADD63R,0.04000X0.05000*%
%ADD64R,0.05906X0.05512*%
%ADD65R,0.04331X0.02559*%
%ADD66C,0.02000*%
%ADD67C,0.01000*%
%ADD68C,0.01500*%
D13*
X-16200Y-52446D02*
D03*
Y-45753D02*
D03*
X89900Y-29447D02*
D03*
Y-22754D02*
D03*
X16600Y-5454D02*
D03*
Y-12146D02*
D03*
X130800Y-14853D02*
D03*
Y-21546D02*
D03*
D20*
X59241Y-58100D02*
D03*
X64359D02*
D03*
X-1159Y-61100D02*
D03*
X3959D02*
D03*
X16859Y-47100D02*
D03*
X11741D02*
D03*
X78741Y-46100D02*
D03*
X83859D02*
D03*
X79359Y-600D02*
D03*
X74241D02*
D03*
D21*
X-12200Y-47041D02*
D03*
Y-52159D02*
D03*
D27*
X-200Y200D02*
D03*
X25100Y-53700D02*
D03*
X154300Y-1100D02*
D03*
X155300Y-59100D02*
D03*
D28*
X11100Y-1000D02*
X16954D01*
X8606Y-3494D02*
X11100Y-1000D01*
X8606Y-7728D02*
Y-3494D01*
X42000Y3200D02*
X53000Y-7800D01*
X10377Y3200D02*
X42000D01*
X4400Y-2777D02*
X10377Y3200D01*
X95927Y-47273D02*
X97600Y-45600D01*
X96900D02*
X97600D01*
X77135Y-57069D02*
X83118D01*
X83637Y-57250D02*
X88500Y-52387D01*
X82800Y-57250D02*
X83637D01*
X89354Y-57200D02*
Y-55446D01*
X92200Y-52600D01*
X95700Y-62000D02*
Y-57546D01*
X91157Y-47273D02*
X95927D01*
X74461Y-50380D02*
X78741Y-46100D01*
X74461Y-55370D02*
Y-50380D01*
Y-55370D02*
X76160Y-57069D01*
X77135D01*
X77454Y-41600D02*
X77731Y-41322D01*
Y-38631D01*
X86726D01*
X87312Y-39217D01*
Y-43428D02*
Y-39217D01*
Y-43428D02*
X91157Y-47273D01*
X68800Y-59100D02*
X69419D01*
X69593Y-58927D01*
X76807D01*
X79480Y-61600D01*
X80700D01*
X92200Y-52600D02*
Y-49948D01*
X92300Y-49848D01*
X-7700Y-58100D02*
X-5200D01*
X-9200Y-59600D02*
X-7700Y-58100D01*
X-9200Y-61777D02*
Y-59600D01*
Y-61777D02*
X-7277Y-63700D01*
X47700D01*
X67861Y-60039D02*
X67922Y-60100D01*
X-12700Y-41600D02*
X-12200Y-42100D01*
Y-47041D02*
Y-42100D01*
X-12700Y-41600D02*
Y-40100D01*
X-9700Y-37100D01*
X16859Y-47100D02*
X20300D01*
X15800Y-53600D02*
X19300D01*
X11800Y-49600D02*
X15800Y-53600D01*
X11800Y-49600D02*
Y-47541D01*
X11300Y-59100D02*
X15954D01*
X16454Y-56446D02*
X19300Y-53600D01*
X16454Y-58600D02*
Y-56446D01*
X-1259Y-60600D02*
Y-59600D01*
X-5200Y-34100D02*
X-4200D01*
X-9700Y-37100D02*
X-5200D01*
X-4200Y-34100D02*
X316Y-38616D01*
Y-43399D02*
Y-38616D01*
X-5200Y-37100D02*
X-2834Y-39466D01*
Y-43399D02*
Y-39466D01*
X-6200Y-61100D02*
X-2834Y-57734D01*
Y-55801D01*
X-5200Y-58100D02*
X-4409Y-57309D01*
Y-55801D01*
X10300Y-58100D02*
X11300Y-59100D01*
X-1259Y-59600D02*
X-1259Y-59600D01*
Y-55801D01*
X-12200Y-47041D02*
X-10822Y-45663D01*
X-6672D01*
X-10822Y-53537D02*
X-6672D01*
X8863Y-45663D02*
X10741Y-47541D01*
X5729Y-45663D02*
X8863D01*
X3465Y-41435D02*
X5300Y-39600D01*
X3465Y-43399D02*
Y-41435D01*
X1891Y-43399D02*
Y-18009D01*
X138426Y-14226D02*
Y-9974D01*
X140300Y-28100D02*
X143800Y-24600D01*
X96715Y-5665D02*
X97300Y-6250D01*
X96715Y-5665D02*
Y-1515D01*
X95800Y-600D02*
X96715Y-1515D01*
X89300Y-22753D02*
X91646D01*
X93300Y-21100D01*
X97800D01*
X69950Y-26250D02*
X77300D01*
X64839Y-21139D02*
X69950Y-26250D01*
X64839Y-21139D02*
Y-18683D01*
X58950Y-6250D02*
X69300D01*
X58800Y-6100D02*
X58950Y-6250D01*
X58950Y-950D02*
X69300D01*
X58800Y-1100D02*
X58950Y-950D01*
X56300Y-10100D02*
X59800D01*
X54800Y-8600D02*
X56300Y-10100D01*
X54800Y-8600D02*
Y-5100D01*
X58800Y-1100D01*
X59241Y-58100D02*
Y-55541D01*
X57800Y-54100D02*
X59241Y-55541D01*
X105720Y-17554D02*
X113300Y-9974D01*
X105720Y-18621D02*
Y-17554D01*
X103241Y-21100D02*
X105720Y-18621D01*
X100300Y-21100D02*
X103241D01*
X99050Y-19850D02*
X100300Y-21100D01*
X99050Y-19850D02*
Y-16126D01*
X84300Y-10600D02*
X87024D01*
X81141Y-7441D02*
X84300Y-10600D01*
X81141Y-7441D02*
Y-4659D01*
X79359Y-2877D02*
X81141Y-4659D01*
X79359Y-2877D02*
Y-600D01*
Y-589D01*
X76592Y2178D02*
X79359Y-589D01*
X71889Y2178D02*
X76592D01*
X69300Y-411D02*
X71889Y2178D01*
X69300Y-950D02*
Y-411D01*
X107300Y-41600D02*
Y-34100D01*
X96150Y-30159D02*
X98239Y-28070D01*
Y-20661D01*
X96150Y-33100D02*
Y-30159D01*
X97800Y-21100D02*
X98239Y-20661D01*
X99050Y-19850D01*
X107300Y-34100D02*
X109004Y-32396D01*
X119504D01*
X123800Y-28100D01*
X106300Y-31600D02*
X107254D01*
X108258Y-30596D01*
X108304D01*
X108800Y-30100D01*
X118300D01*
Y-29600D01*
X122300Y-25600D01*
Y-21600D01*
X126300Y-17600D01*
Y-4600D02*
X138800D01*
X53000Y-11146D02*
Y-7800D01*
Y-11146D02*
X54800Y-12946D01*
Y-17600D02*
Y-12946D01*
X37213Y-35844D02*
X48458Y-24600D01*
X54800D01*
X74300Y-11100D02*
Y-6860D01*
X1891Y-57591D02*
Y-55801D01*
Y-57591D02*
X2400Y-58100D01*
X10300D01*
X47700Y-63700D02*
X50100Y-61300D01*
Y-60100D01*
X49300Y-59300D02*
X50100Y-60100D01*
X316Y-57996D02*
Y-55801D01*
Y-57996D02*
X3420Y-61100D01*
X3959D01*
Y-60600D02*
X7800D01*
X17100Y-4753D02*
X21154D01*
X8606Y-15602D02*
X9498D01*
X13654Y-11446D01*
X17100D01*
X91800Y-43352D02*
X96248D01*
X97800Y-41800D01*
X130800Y-28100D02*
Y-21546D01*
X123800Y-28100D02*
X130800D01*
X140300D01*
X130800Y-14853D02*
Y-10074D01*
X113300Y-9974D02*
X138426D01*
X97300Y-8800D02*
Y-6250D01*
D29*
X70700Y-62000D02*
D03*
X75700D02*
D03*
X80700D02*
D03*
X85700D02*
D03*
X90700D02*
D03*
X95700D02*
D03*
D30*
X105000Y-60300D02*
D03*
X-15300Y-61400D02*
D03*
X-15900Y300D02*
D03*
X113300Y-60222D02*
D03*
Y-52348D02*
D03*
Y-44474D02*
D03*
X8606Y-31350D02*
D03*
Y-23476D02*
D03*
Y-15602D02*
D03*
Y-7728D02*
D03*
D31*
X113300Y-36600D02*
D03*
D32*
X148418Y-59380D02*
D03*
Y-33427D02*
D03*
D33*
X138182Y-36757D02*
D03*
X138182Y-56442D02*
D03*
D34*
X113300Y-9974D02*
D03*
Y-2163D02*
D03*
Y-17726D02*
D03*
Y-25537D02*
D03*
D35*
X138800Y-24600D02*
D03*
Y-19600D02*
D03*
Y-14600D02*
D03*
Y-9600D02*
D03*
Y-4600D02*
D03*
X143800D02*
D03*
Y-9600D02*
D03*
Y-14600D02*
D03*
Y-19600D02*
D03*
Y-24600D02*
D03*
X37213Y-21277D02*
D03*
Y-35844D02*
D03*
X44300Y-18600D02*
D03*
X34300Y-28600D02*
D03*
X44300Y-38600D02*
D03*
D36*
X97300Y-45800D02*
D03*
X60300Y-26100D02*
D03*
X48300Y-12100D02*
D03*
X97400Y-41600D02*
D03*
X20300Y-47100D02*
D03*
X-12700Y-41600D02*
D03*
X-16200Y-56100D02*
D03*
X19300Y-53600D02*
D03*
X7800Y-60600D02*
D03*
X-6200Y-61100D02*
D03*
X-5200Y-34100D02*
D03*
X95800Y-600D02*
D03*
X88500Y-52387D02*
D03*
X58800Y-1100D02*
D03*
Y-6100D02*
D03*
X57800Y-54100D02*
D03*
X107300Y-41600D02*
D03*
X106600Y-31600D02*
D03*
X126300Y-4600D02*
D03*
Y-17600D02*
D03*
X64300Y-48600D02*
D03*
X74300Y-11100D02*
D03*
X49300Y-59300D02*
D03*
X21300Y-4900D02*
D03*
D51*
X89354Y-57200D02*
D03*
X96047D02*
D03*
X84146Y-41600D02*
D03*
X77454D02*
D03*
X83454Y-35100D02*
D03*
X90146D02*
D03*
X23146Y-58600D02*
D03*
X16454D02*
D03*
X24147Y200D02*
D03*
X17454D02*
D03*
D52*
X83300Y-28348D02*
D03*
Y-21852D02*
D03*
X91800Y-49848D02*
D03*
Y-43352D02*
D03*
D53*
X69761Y-38663D02*
D03*
X64839D02*
D03*
X59721D02*
D03*
X54800D02*
D03*
X69761Y-17600D02*
D03*
X59721D02*
D03*
X54800D02*
D03*
D54*
X64839Y-18683D02*
D03*
D55*
X5729Y-45663D02*
D03*
Y-47238D02*
D03*
Y-48812D02*
D03*
Y-50387D02*
D03*
Y-51962D02*
D03*
Y-53537D02*
D03*
X-6672D02*
D03*
Y-51962D02*
D03*
Y-50387D02*
D03*
Y-48812D02*
D03*
Y-47238D02*
D03*
Y-45663D02*
D03*
D56*
X3465Y-55801D02*
D03*
X1891D02*
D03*
X316D02*
D03*
X-1259D02*
D03*
X-2834D02*
D03*
X-4409D02*
D03*
Y-43399D02*
D03*
X-2834D02*
D03*
X-1259D02*
D03*
X316D02*
D03*
X1891D02*
D03*
X3465D02*
D03*
D57*
X76938Y-53131D02*
D03*
D58*
X77135Y-55100D02*
D03*
Y-57069D02*
D03*
X71465D02*
D03*
Y-55100D02*
D03*
Y-53131D02*
D03*
D59*
X82800Y-51950D02*
D03*
Y-57250D02*
D03*
X77100Y-20950D02*
D03*
Y-26250D02*
D03*
X69300Y-6250D02*
D03*
Y-950D02*
D03*
D60*
X95560Y-25324D02*
D03*
X103040D02*
D03*
Y-15876D02*
D03*
X99300D02*
D03*
X95560D02*
D03*
D61*
X102300Y-43557D02*
D03*
D62*
Y-53596D02*
D03*
D63*
X102550Y-8500D02*
D03*
X97250D02*
D03*
X101450Y-33100D02*
D03*
X96150D02*
D03*
D64*
X85532Y-100D02*
D03*
X102068D02*
D03*
D65*
X77576Y-6860D02*
D03*
Y-14340D02*
D03*
X87024D02*
D03*
Y-10600D02*
D03*
Y-6860D02*
D03*
D66*
X105674Y-53596D02*
X112300Y-60222D01*
X101300Y-53596D02*
X105674D01*
X101068Y-100D02*
X105800D01*
X108363Y-2663D01*
X112300D01*
D67*
X67861Y-60039D02*
X68800Y-59100D01*
X66922Y-60978D02*
X67861Y-60039D01*
X55300Y-51521D02*
X59721D01*
X44721D02*
X55300D01*
Y-59430D02*
Y-51521D01*
Y-59430D02*
X56848Y-60978D01*
X66922D01*
X68800Y-59100D02*
Y-57600D01*
X69332Y-57069D01*
X71465D01*
X64359Y-58100D02*
Y-48041D01*
X59721Y-51521D02*
Y-38663D01*
X64359Y-48041D02*
X64839Y-47561D01*
Y-38663D01*
X69761D01*
X60800Y-9100D02*
X62800D01*
X59800Y-10100D02*
X60800Y-9100D01*
X59800Y-17521D02*
Y-10100D01*
X59721Y-17600D02*
X59800Y-17521D01*
X62800Y-9100D02*
X64839Y-11139D01*
Y-18683D02*
Y-11139D01*
X-16200Y-56100D02*
Y-52446D01*
X-15913Y-52159D02*
X-12200D01*
X10741Y-47541D02*
X11800D01*
X37642Y-58600D02*
X44721Y-51521D01*
X23146Y-58600D02*
X37642D01*
X-16200Y-36100D02*
X1891Y-18009D01*
X-16200Y-45753D02*
Y-36100D01*
X23800Y-39600D02*
X28300Y-35100D01*
X5300Y-39600D02*
X23800D01*
X28300Y-35100D02*
X44721Y-51521D01*
X28300Y-35100D02*
Y-24100D01*
X31123Y-21277D01*
X37213D01*
Y-35844D02*
X37556D01*
X54800Y-24600D02*
Y-17600D01*
Y-24600D02*
X58800Y-28600D01*
X68898D01*
X73032Y-32734D01*
Y-43713D02*
Y-32734D01*
X68800Y-47946D02*
X73032Y-43713D01*
X68800Y-52600D02*
Y-47946D01*
Y-52600D02*
X69332Y-53131D01*
X71465D01*
X76938D02*
X82118D01*
X83800Y-51450D02*
Y-46159D01*
X101068Y-100D02*
X102450Y-1482D01*
X101300Y-45557D02*
Y-37100D01*
X101450Y-36950D01*
X100300Y-38100D02*
X101300Y-37100D01*
Y-45557D02*
X101450Y-45407D01*
X90800Y-38100D02*
X100300D01*
X90146Y-37446D02*
X90800Y-38100D01*
X90146Y-37446D02*
Y-35100D01*
X83859Y-46100D02*
Y-41387D01*
X83300Y-34946D02*
Y-28348D01*
X95560Y-25840D02*
Y-25324D01*
X91953Y-29446D02*
X95560Y-25840D01*
X89300Y-29446D02*
X91953D01*
X101450Y-33100D02*
X102300Y-32250D01*
X93524Y-15876D02*
X95560D01*
X90800Y-18600D02*
X93524Y-15876D01*
X84800Y-18600D02*
X90800D01*
X83300Y-20100D02*
X84800Y-18600D01*
X83300Y-21852D02*
Y-20100D01*
X77576Y-20674D02*
Y-14340D01*
X74241Y-1541D02*
Y-600D01*
Y-1541D02*
X77576Y-4876D01*
Y-6860D02*
Y-4876D01*
X87024Y-6860D02*
X87265Y-7100D01*
X90800D01*
Y-13100D02*
Y-7100D01*
X89560Y-14340D02*
X90800Y-13100D01*
X87024Y-14340D02*
X89560D01*
X87024Y-6860D02*
X88800Y-5084D01*
Y-1600D01*
X87300Y-100D02*
X88800Y-1600D01*
X84532Y-100D02*
X87300D01*
X69910Y-6860D02*
X74300D01*
X77576D01*
X1891Y-18009D02*
Y-5287D01*
X4400Y-2777D01*
X30300Y-14364D02*
X37213Y-21277D01*
X30300Y-14364D02*
Y-4000D01*
X23447Y-1300D02*
X27600D01*
X30300Y-4000D01*
D68*
X102900Y-8400D02*
X102950Y-15285D01*
X102450Y-6100D02*
Y-1482D01*
X101300Y-37100D02*
Y-33250D01*
X101300Y-45946D02*
Y-37490D01*
X102300Y-32250D02*
Y-29080D01*
X103040Y-28340D01*
Y-25324D01*
M02*
