%FSLAX25Y25*%
%MOIN*%
G70*
G01*
G75*
G04 Layer_Color=8388736*
%ADD10R,0.02008X0.01575*%
%ADD11R,0.05315X0.01575*%
%ADD12R,0.07480X0.03937*%
%ADD13R,0.03937X0.04331*%
%ADD14R,0.05709X0.06299*%
%ADD15R,0.06693X0.05906*%
%ADD16R,0.05906X0.06693*%
%ADD17R,0.06614X0.03150*%
%ADD18R,0.05512X0.05079*%
%ADD19R,0.05118X0.05079*%
%ADD20R,0.03543X0.02756*%
%ADD21R,0.02756X0.03543*%
%ADD22R,0.05906X0.05118*%
%ADD23R,0.02953X0.05512*%
%ADD24O,0.00787X0.02756*%
%ADD25O,0.02756X0.00787*%
%ADD26R,0.20276X0.20276*%
%ADD27C,0.04000*%
%ADD28C,0.00800*%
%ADD29C,0.03347*%
%ADD30C,0.06000*%
%ADD31R,0.06000X0.06000*%
G04:AMPARAMS|DCode=32|XSize=59.06mil|YSize=74.8mil|CornerRadius=14.76mil|HoleSize=0mil|Usage=FLASHONLY|Rotation=270.000|XOffset=0mil|YOffset=0mil|HoleType=Round|Shape=RoundedRectangle|*
%AMROUNDEDRECTD32*
21,1,0.05906,0.04528,0,0,270.0*
21,1,0.02953,0.07480,0,0,270.0*
1,1,0.02953,-0.02264,-0.01476*
1,1,0.02953,-0.02264,0.01476*
1,1,0.02953,0.02264,0.01476*
1,1,0.02953,0.02264,-0.01476*
%
%ADD32ROUNDEDRECTD32*%
%ADD33C,0.05709*%
%ADD34C,0.05906*%
%ADD35C,0.03937*%
%ADD36C,0.02400*%
%ADD37C,0.04000*%
%ADD38C,0.06756*%
G04:AMPARAMS|DCode=39|XSize=87.559mil|YSize=87.559mil|CornerRadius=0mil|HoleSize=0mil|Usage=FLASHONLY|Rotation=0.000|XOffset=0mil|YOffset=0mil|HoleType=Round|Shape=Relief|Width=10mil|Gap=10mil|Entries=4|*
%AMTHD39*
7,0,0,0.08756,0.06756,0.01000,45*
%
%ADD39THD39*%
%ADD40C,0.07000*%
%ADD41C,0.07543*%
G04:AMPARAMS|DCode=42|XSize=95.433mil|YSize=95.433mil|CornerRadius=0mil|HoleSize=0mil|Usage=FLASHONLY|Rotation=0.000|XOffset=0mil|YOffset=0mil|HoleType=Round|Shape=Relief|Width=10mil|Gap=10mil|Entries=4|*
%AMTHD42*
7,0,0,0.09543,0.07543,0.01000,45*
%
%ADD42THD42*%
%ADD43O,0.09118X0.07150*%
%ADD44C,0.07347*%
%ADD45C,0.06559*%
%ADD46C,0.05969*%
G04:AMPARAMS|DCode=47|XSize=79.685mil|YSize=79.685mil|CornerRadius=0mil|HoleSize=0mil|Usage=FLASHONLY|Rotation=0.000|XOffset=0mil|YOffset=0mil|HoleType=Round|Shape=Relief|Width=10mil|Gap=10mil|Entries=4|*
%AMTHD47*
7,0,0,0.07969,0.05969,0.01000,45*
%
%ADD47THD47*%
G04:AMPARAMS|DCode=48|XSize=90mil|YSize=90mil|CornerRadius=0mil|HoleSize=0mil|Usage=FLASHONLY|Rotation=0.000|XOffset=0mil|YOffset=0mil|HoleType=Round|Shape=Relief|Width=10mil|Gap=10mil|Entries=4|*
%AMTHD48*
7,0,0,0.09000,0.07000,0.01000,45*
%
%ADD48THD48*%
%ADD49C,0.05200*%
G04:AMPARAMS|DCode=50|XSize=72mil|YSize=72mil|CornerRadius=0mil|HoleSize=0mil|Usage=FLASHONLY|Rotation=0.000|XOffset=0mil|YOffset=0mil|HoleType=Round|Shape=Relief|Width=10mil|Gap=10mil|Entries=4|*
%AMTHD50*
7,0,0,0.07200,0.05200,0.01000,45*
%
%ADD50THD50*%
%ADD51R,0.04331X0.03937*%
%ADD52R,0.03150X0.03150*%
%ADD53R,0.03543X0.08858*%
%ADD54R,0.03543X0.11024*%
%ADD55R,0.02559X0.00787*%
%ADD56R,0.00787X0.02559*%
G04:AMPARAMS|DCode=57|XSize=9.84mil|YSize=29.53mil|CornerRadius=2.46mil|HoleSize=0mil|Usage=FLASHONLY|Rotation=90.000|XOffset=0mil|YOffset=0mil|HoleType=Round|Shape=RoundedRectangle|*
%AMROUNDEDRECTD57*
21,1,0.00984,0.02461,0,0,90.0*
21,1,0.00492,0.02953,0,0,90.0*
1,1,0.00492,0.01230,0.00246*
1,1,0.00492,0.01230,-0.00246*
1,1,0.00492,-0.01230,-0.00246*
1,1,0.00492,-0.01230,0.00246*
%
%ADD57ROUNDEDRECTD57*%
G04:AMPARAMS|DCode=58|XSize=9.84mil|YSize=23.62mil|CornerRadius=2.46mil|HoleSize=0mil|Usage=FLASHONLY|Rotation=90.000|XOffset=0mil|YOffset=0mil|HoleType=Round|Shape=RoundedRectangle|*
%AMROUNDEDRECTD58*
21,1,0.00984,0.01870,0,0,90.0*
21,1,0.00492,0.02362,0,0,90.0*
1,1,0.00492,0.00935,0.00246*
1,1,0.00492,0.00935,-0.00246*
1,1,0.00492,-0.00935,-0.00246*
1,1,0.00492,-0.00935,0.00246*
%
%ADD58ROUNDEDRECTD58*%
%ADD59R,0.05000X0.04000*%
%ADD60R,0.02559X0.04331*%
%ADD61R,0.05512X0.08661*%
%ADD62R,0.05512X0.03543*%
%ADD63R,0.04000X0.05000*%
%ADD64R,0.05906X0.05512*%
%ADD65R,0.04331X0.02559*%
%ADD66C,0.02000*%
%ADD67C,0.01000*%
%ADD68C,0.01500*%
%ADD69C,0.00984*%
%ADD70C,0.00787*%
%ADD71C,0.00394*%
%ADD72R,0.06276X0.06276*%
%ADD73R,0.02808X0.02375*%
%ADD74R,0.06115X0.02375*%
%ADD75R,0.08280X0.04737*%
%ADD76R,0.04737X0.05131*%
%ADD77R,0.06509X0.07099*%
%ADD78R,0.07493X0.06706*%
%ADD79R,0.06706X0.07493*%
%ADD80R,0.07414X0.03950*%
%ADD81R,0.06312X0.05879*%
%ADD82R,0.05918X0.05879*%
%ADD83R,0.04343X0.03556*%
%ADD84R,0.03556X0.04343*%
%ADD85R,0.06706X0.05918*%
%ADD86R,0.03753X0.06312*%
%ADD87O,0.01587X0.03556*%
%ADD88O,0.03556X0.01587*%
%ADD89R,0.21076X0.21076*%
%ADD90C,0.05000*%
%ADD91C,0.04147*%
%ADD92C,0.06800*%
%ADD93R,0.06800X0.06800*%
G04:AMPARAMS|DCode=94|XSize=67.06mil|YSize=82.8mil|CornerRadius=18.76mil|HoleSize=0mil|Usage=FLASHONLY|Rotation=270.000|XOffset=0mil|YOffset=0mil|HoleType=Round|Shape=RoundedRectangle|*
%AMROUNDEDRECTD94*
21,1,0.06706,0.04528,0,0,270.0*
21,1,0.02953,0.08280,0,0,270.0*
1,1,0.03753,-0.02264,-0.01476*
1,1,0.03753,-0.02264,0.01476*
1,1,0.03753,0.02264,0.01476*
1,1,0.03753,0.02264,-0.01476*
%
%ADD94ROUNDEDRECTD94*%
%ADD95C,0.06509*%
%ADD96C,0.06706*%
%ADD97C,0.04737*%
%ADD98C,0.03200*%
D73*
X104359Y-7100D02*
D03*
X99241Y-9069D02*
D03*
Y-5131D02*
D03*
X100241Y-13632D02*
D03*
Y-17569D02*
D03*
X105359Y-15600D02*
D03*
D74*
X138182Y-51718D02*
D03*
Y-49159D02*
D03*
Y-46600D02*
D03*
Y-44041D02*
D03*
Y-41482D02*
D03*
D75*
X148812Y-51521D02*
D03*
Y-41679D02*
D03*
D76*
X68800Y-1753D02*
D03*
Y-8446D02*
D03*
X63800Y-8446D02*
D03*
Y-1753D02*
D03*
X101800Y-39753D02*
D03*
Y-46446D02*
D03*
D77*
X52694Y-54320D02*
D03*
D78*
X-8330Y-56289D02*
D03*
Y-3927D02*
D03*
D79*
X52694D02*
D03*
D80*
X52300Y-18100D02*
D03*
Y-22431D02*
D03*
Y-31092D02*
D03*
Y-26761D02*
D03*
Y-39753D02*
D03*
Y-35423D02*
D03*
Y-48415D02*
D03*
Y-44084D02*
D03*
D81*
X14505Y-57864D02*
D03*
D82*
X44426Y-58257D02*
D03*
D83*
X89241Y-49100D02*
D03*
X94359D02*
D03*
D84*
X60300Y-17041D02*
D03*
Y-22159D02*
D03*
X103300Y-33659D02*
D03*
Y-28541D02*
D03*
X99800Y-34159D02*
D03*
Y-29041D02*
D03*
X72800Y-6159D02*
D03*
Y-1041D02*
D03*
X92300Y-5159D02*
D03*
Y-41D02*
D03*
X86800Y-5159D02*
D03*
Y-41D02*
D03*
D85*
X79300Y-572D02*
D03*
Y-9628D02*
D03*
D86*
X86946Y-10600D02*
D03*
X92654D02*
D03*
D87*
X89627Y-16820D02*
D03*
X87658D02*
D03*
X85690D02*
D03*
X83721D02*
D03*
X81753D02*
D03*
X79784D02*
D03*
X77816D02*
D03*
X75847D02*
D03*
X73879D02*
D03*
X71910D02*
D03*
X69942D02*
D03*
X67973D02*
D03*
Y-44379D02*
D03*
X69942D02*
D03*
X71910D02*
D03*
X73879D02*
D03*
X75847D02*
D03*
X77816D02*
D03*
X79784D02*
D03*
X81753D02*
D03*
X83721D02*
D03*
X85690D02*
D03*
X87658D02*
D03*
X89627D02*
D03*
D88*
X65021Y-19773D02*
D03*
Y-21742D02*
D03*
Y-23710D02*
D03*
Y-25679D02*
D03*
Y-27647D02*
D03*
Y-29616D02*
D03*
Y-31584D02*
D03*
Y-33553D02*
D03*
Y-35521D02*
D03*
Y-37490D02*
D03*
Y-39458D02*
D03*
Y-41427D02*
D03*
X92580D02*
D03*
Y-39458D02*
D03*
Y-37490D02*
D03*
Y-35521D02*
D03*
Y-33553D02*
D03*
Y-31584D02*
D03*
Y-29616D02*
D03*
Y-27647D02*
D03*
Y-25679D02*
D03*
Y-23710D02*
D03*
Y-21742D02*
D03*
Y-19773D02*
D03*
D89*
X78800Y-30600D02*
D03*
D90*
X-200Y200D02*
D03*
X25100Y-53700D02*
D03*
X154300Y-1100D02*
D03*
X155300Y-59100D02*
D03*
D91*
X70700Y-62000D02*
D03*
X75700D02*
D03*
X80700D02*
D03*
X85700D02*
D03*
X90700D02*
D03*
X95700D02*
D03*
D92*
X105000Y-60300D02*
D03*
X-15300Y-61400D02*
D03*
X-15900Y300D02*
D03*
X113300Y-60222D02*
D03*
Y-52348D02*
D03*
Y-44474D02*
D03*
X8606Y-31350D02*
D03*
Y-23476D02*
D03*
Y-15602D02*
D03*
Y-7728D02*
D03*
D93*
X113300Y-36600D02*
D03*
D94*
X148418Y-59380D02*
D03*
Y-33427D02*
D03*
D95*
X138182Y-36757D02*
D03*
X138182Y-56442D02*
D03*
D96*
X113300Y-9974D02*
D03*
Y-2163D02*
D03*
Y-17726D02*
D03*
Y-25537D02*
D03*
D97*
X138800Y-24600D02*
D03*
Y-19600D02*
D03*
Y-14600D02*
D03*
Y-9600D02*
D03*
Y-4600D02*
D03*
X143800D02*
D03*
Y-9600D02*
D03*
Y-14600D02*
D03*
Y-19600D02*
D03*
Y-24600D02*
D03*
X37213Y-21277D02*
D03*
Y-35844D02*
D03*
X44300Y-18600D02*
D03*
X34300Y-28600D02*
D03*
X44300Y-38600D02*
D03*
D98*
X97300Y-45800D02*
D03*
X60300Y-26100D02*
D03*
X48300Y-12100D02*
D03*
X97400Y-41600D02*
D03*
X20300Y-47100D02*
D03*
X-12700Y-41600D02*
D03*
X-16200Y-56100D02*
D03*
X19300Y-53600D02*
D03*
X7800Y-60600D02*
D03*
X-6200Y-61100D02*
D03*
X-5200Y-34100D02*
D03*
X95800Y-600D02*
D03*
X88500Y-52387D02*
D03*
X58800Y-1100D02*
D03*
Y-6100D02*
D03*
X57800Y-54100D02*
D03*
X107300Y-41600D02*
D03*
X106600Y-31600D02*
D03*
X126300Y-4600D02*
D03*
Y-17600D02*
D03*
X64300Y-48600D02*
D03*
X74300Y-11100D02*
D03*
X49300Y-59300D02*
D03*
X21300Y-4900D02*
D03*
M02*
