%FSLAX25Y25*%
%MOIN*%
G70*
G01*
G75*
G04 Layer_Color=65535*
%ADD10R,0.02008X0.01575*%
%ADD11R,0.05315X0.01575*%
%ADD12R,0.07480X0.03937*%
%ADD13R,0.03937X0.04331*%
%ADD14R,0.05709X0.06299*%
%ADD15R,0.06693X0.05906*%
%ADD16R,0.05906X0.06693*%
%ADD17R,0.06614X0.03150*%
%ADD18R,0.05512X0.05079*%
%ADD19R,0.05118X0.05079*%
%ADD20R,0.03543X0.02756*%
%ADD21R,0.02756X0.03543*%
%ADD22R,0.05906X0.05118*%
%ADD23R,0.02953X0.05512*%
%ADD24O,0.00787X0.02756*%
%ADD25O,0.02756X0.00787*%
%ADD26R,0.20276X0.20276*%
%ADD27C,0.04000*%
%ADD28C,0.00800*%
%ADD29C,0.03347*%
%ADD30C,0.06000*%
%ADD31R,0.06000X0.06000*%
G04:AMPARAMS|DCode=32|XSize=59.06mil|YSize=74.8mil|CornerRadius=14.76mil|HoleSize=0mil|Usage=FLASHONLY|Rotation=270.000|XOffset=0mil|YOffset=0mil|HoleType=Round|Shape=RoundedRectangle|*
%AMROUNDEDRECTD32*
21,1,0.05906,0.04528,0,0,270.0*
21,1,0.02953,0.07480,0,0,270.0*
1,1,0.02953,-0.02264,-0.01476*
1,1,0.02953,-0.02264,0.01476*
1,1,0.02953,0.02264,0.01476*
1,1,0.02953,0.02264,-0.01476*
%
%ADD32ROUNDEDRECTD32*%
%ADD33C,0.05709*%
%ADD34C,0.05906*%
%ADD35C,0.03937*%
%ADD36C,0.02400*%
%ADD37C,0.04000*%
%ADD38C,0.06756*%
G04:AMPARAMS|DCode=39|XSize=87.559mil|YSize=87.559mil|CornerRadius=0mil|HoleSize=0mil|Usage=FLASHONLY|Rotation=0.000|XOffset=0mil|YOffset=0mil|HoleType=Round|Shape=Relief|Width=10mil|Gap=10mil|Entries=4|*
%AMTHD39*
7,0,0,0.08756,0.06756,0.01000,45*
%
%ADD39THD39*%
%ADD40C,0.07000*%
%ADD41C,0.07543*%
G04:AMPARAMS|DCode=42|XSize=95.433mil|YSize=95.433mil|CornerRadius=0mil|HoleSize=0mil|Usage=FLASHONLY|Rotation=0.000|XOffset=0mil|YOffset=0mil|HoleType=Round|Shape=Relief|Width=10mil|Gap=10mil|Entries=4|*
%AMTHD42*
7,0,0,0.09543,0.07543,0.01000,45*
%
%ADD42THD42*%
%ADD43O,0.09118X0.07150*%
%ADD44C,0.07347*%
%ADD45C,0.06559*%
%ADD46C,0.05969*%
G04:AMPARAMS|DCode=47|XSize=79.685mil|YSize=79.685mil|CornerRadius=0mil|HoleSize=0mil|Usage=FLASHONLY|Rotation=0.000|XOffset=0mil|YOffset=0mil|HoleType=Round|Shape=Relief|Width=10mil|Gap=10mil|Entries=4|*
%AMTHD47*
7,0,0,0.07969,0.05969,0.01000,45*
%
%ADD47THD47*%
G04:AMPARAMS|DCode=48|XSize=90mil|YSize=90mil|CornerRadius=0mil|HoleSize=0mil|Usage=FLASHONLY|Rotation=0.000|XOffset=0mil|YOffset=0mil|HoleType=Round|Shape=Relief|Width=10mil|Gap=10mil|Entries=4|*
%AMTHD48*
7,0,0,0.09000,0.07000,0.01000,45*
%
%ADD48THD48*%
%ADD49C,0.05200*%
G04:AMPARAMS|DCode=50|XSize=72mil|YSize=72mil|CornerRadius=0mil|HoleSize=0mil|Usage=FLASHONLY|Rotation=0.000|XOffset=0mil|YOffset=0mil|HoleType=Round|Shape=Relief|Width=10mil|Gap=10mil|Entries=4|*
%AMTHD50*
7,0,0,0.07200,0.05200,0.01000,45*
%
%ADD50THD50*%
%ADD51R,0.04331X0.03937*%
%ADD52R,0.03150X0.03150*%
%ADD53R,0.03543X0.08858*%
%ADD54R,0.03543X0.11024*%
%ADD55R,0.02559X0.00787*%
%ADD56R,0.00787X0.02559*%
G04:AMPARAMS|DCode=57|XSize=9.84mil|YSize=29.53mil|CornerRadius=2.46mil|HoleSize=0mil|Usage=FLASHONLY|Rotation=90.000|XOffset=0mil|YOffset=0mil|HoleType=Round|Shape=RoundedRectangle|*
%AMROUNDEDRECTD57*
21,1,0.00984,0.02461,0,0,90.0*
21,1,0.00492,0.02953,0,0,90.0*
1,1,0.00492,0.01230,0.00246*
1,1,0.00492,0.01230,-0.00246*
1,1,0.00492,-0.01230,-0.00246*
1,1,0.00492,-0.01230,0.00246*
%
%ADD57ROUNDEDRECTD57*%
G04:AMPARAMS|DCode=58|XSize=9.84mil|YSize=23.62mil|CornerRadius=2.46mil|HoleSize=0mil|Usage=FLASHONLY|Rotation=90.000|XOffset=0mil|YOffset=0mil|HoleType=Round|Shape=RoundedRectangle|*
%AMROUNDEDRECTD58*
21,1,0.00984,0.01870,0,0,90.0*
21,1,0.00492,0.02362,0,0,90.0*
1,1,0.00492,0.00935,0.00246*
1,1,0.00492,0.00935,-0.00246*
1,1,0.00492,-0.00935,-0.00246*
1,1,0.00492,-0.00935,0.00246*
%
%ADD58ROUNDEDRECTD58*%
%ADD59R,0.05000X0.04000*%
%ADD60R,0.02559X0.04331*%
%ADD61R,0.05512X0.08661*%
%ADD62R,0.05512X0.03543*%
%ADD63R,0.04000X0.05000*%
%ADD64R,0.05906X0.05512*%
%ADD65R,0.04331X0.02559*%
%ADD66C,0.02000*%
%ADD67C,0.01000*%
%ADD68C,0.01500*%
%ADD69C,0.00984*%
%ADD70C,0.00787*%
%ADD71C,0.00394*%
G36*
X118479Y-44590D02*
X118510D01*
X118581Y-44594D01*
X118659Y-44602D01*
X118748Y-44617D01*
X118838Y-44633D01*
X118924Y-44656D01*
X118928D01*
X118936Y-44660D01*
X118947Y-44664D01*
X118963Y-44668D01*
X119002Y-44684D01*
X119056Y-44703D01*
X119115Y-44727D01*
X119177Y-44758D01*
X119240Y-44793D01*
X119298Y-44832D01*
X119306Y-44836D01*
X119322Y-44851D01*
X119349Y-44871D01*
X119384Y-44902D01*
X119419Y-44933D01*
X119458Y-44976D01*
X119497Y-45019D01*
X119532Y-45066D01*
X119536Y-45070D01*
X119544Y-45089D01*
X119560Y-45117D01*
X119579Y-45152D01*
X119599Y-45195D01*
X119618Y-45245D01*
X119638Y-45304D01*
X119657Y-45370D01*
Y-45378D01*
X119665Y-45401D01*
X119669Y-45436D01*
X119677Y-45487D01*
X119684Y-45546D01*
X119692Y-45616D01*
X119696Y-45694D01*
X119700Y-45780D01*
Y-46700D01*
X117138D01*
Y-45823D01*
Y-45819D01*
Y-45811D01*
Y-45795D01*
Y-45772D01*
Y-45748D01*
Y-45717D01*
X117142Y-45651D01*
X117146Y-45581D01*
X117153Y-45503D01*
X117165Y-45429D01*
X117177Y-45366D01*
Y-45362D01*
X117181Y-45355D01*
Y-45347D01*
X117188Y-45331D01*
X117200Y-45288D01*
X117220Y-45237D01*
X117243Y-45179D01*
X117274Y-45117D01*
X117313Y-45054D01*
X117360Y-44992D01*
Y-44988D01*
X117368Y-44984D01*
X117391Y-44957D01*
X117430Y-44922D01*
X117481Y-44879D01*
X117543Y-44828D01*
X117617Y-44777D01*
X117703Y-44730D01*
X117801Y-44688D01*
X117805D01*
X117812Y-44684D01*
X117828Y-44680D01*
X117848Y-44672D01*
X117871Y-44664D01*
X117902Y-44656D01*
X117937Y-44645D01*
X117976Y-44637D01*
X118019Y-44629D01*
X118066Y-44617D01*
X118167Y-44602D01*
X118280Y-44590D01*
X118405Y-44586D01*
X118456D01*
X118479Y-44590D01*
D02*
G37*
G36*
X118585Y-43206D02*
X119287D01*
Y-43502D01*
X118585D01*
Y-44200D01*
X118292D01*
Y-43502D01*
X117594D01*
Y-43206D01*
X118292D01*
Y-42507D01*
X118585D01*
Y-43206D01*
D02*
G37*
G36*
X118479Y-51890D02*
X118510D01*
X118581Y-51894D01*
X118659Y-51902D01*
X118748Y-51917D01*
X118838Y-51933D01*
X118924Y-51956D01*
X118928D01*
X118936Y-51960D01*
X118947Y-51964D01*
X118963Y-51968D01*
X119002Y-51984D01*
X119056Y-52003D01*
X119115Y-52027D01*
X119177Y-52058D01*
X119240Y-52093D01*
X119298Y-52132D01*
X119306Y-52136D01*
X119322Y-52151D01*
X119349Y-52171D01*
X119384Y-52202D01*
X119419Y-52233D01*
X119458Y-52276D01*
X119497Y-52319D01*
X119532Y-52366D01*
X119536Y-52370D01*
X119544Y-52389D01*
X119560Y-52417D01*
X119579Y-52452D01*
X119599Y-52495D01*
X119618Y-52545D01*
X119638Y-52604D01*
X119657Y-52670D01*
Y-52678D01*
X119665Y-52701D01*
X119669Y-52736D01*
X119677Y-52787D01*
X119684Y-52846D01*
X119692Y-52916D01*
X119696Y-52994D01*
X119700Y-53080D01*
Y-54000D01*
X117138D01*
Y-53123D01*
Y-53119D01*
Y-53111D01*
Y-53095D01*
Y-53072D01*
Y-53048D01*
Y-53017D01*
X117142Y-52951D01*
X117146Y-52881D01*
X117153Y-52803D01*
X117165Y-52729D01*
X117177Y-52666D01*
Y-52662D01*
X117181Y-52654D01*
Y-52647D01*
X117188Y-52631D01*
X117200Y-52588D01*
X117220Y-52538D01*
X117243Y-52479D01*
X117274Y-52417D01*
X117313Y-52354D01*
X117360Y-52292D01*
Y-52288D01*
X117368Y-52284D01*
X117391Y-52257D01*
X117430Y-52222D01*
X117481Y-52179D01*
X117543Y-52128D01*
X117617Y-52077D01*
X117703Y-52030D01*
X117801Y-51988D01*
X117805D01*
X117812Y-51984D01*
X117828Y-51980D01*
X117848Y-51972D01*
X117871Y-51964D01*
X117902Y-51956D01*
X117937Y-51945D01*
X117976Y-51937D01*
X118019Y-51929D01*
X118066Y-51917D01*
X118167Y-51902D01*
X118280Y-51890D01*
X118405Y-51886D01*
X118456D01*
X118479Y-51890D01*
D02*
G37*
G36*
X151959Y-7000D02*
X151628D01*
X151090Y-5050D01*
Y-5046D01*
X151086Y-5038D01*
X151082Y-5027D01*
X151078Y-5011D01*
X151066Y-4968D01*
X151055Y-4921D01*
X151039Y-4867D01*
X151027Y-4820D01*
X151016Y-4777D01*
X151012Y-4761D01*
X151008Y-4750D01*
Y-4758D01*
X151000Y-4777D01*
X150992Y-4812D01*
X150980Y-4851D01*
X150969Y-4902D01*
X150957Y-4949D01*
X150942Y-4999D01*
X150930Y-5050D01*
X150392Y-7000D01*
X150037D01*
X149366Y-4438D01*
X149713D01*
X150099Y-6123D01*
Y-6126D01*
X150103Y-6134D01*
X150107Y-6150D01*
X150111Y-6165D01*
X150115Y-6193D01*
X150122Y-6220D01*
X150138Y-6286D01*
X150154Y-6364D01*
X150173Y-6454D01*
X150189Y-6548D01*
X150208Y-6645D01*
Y-6641D01*
X150212Y-6626D01*
X150216Y-6606D01*
X150224Y-6579D01*
X150232Y-6548D01*
X150240Y-6513D01*
X150263Y-6431D01*
X150282Y-6349D01*
X150302Y-6271D01*
X150310Y-6239D01*
X150318Y-6208D01*
X150321Y-6185D01*
X150325Y-6169D01*
X150813Y-4438D01*
X151222D01*
X151589Y-5736D01*
Y-5740D01*
X151597Y-5760D01*
X151601Y-5783D01*
X151612Y-5818D01*
X151620Y-5861D01*
X151636Y-5912D01*
X151647Y-5970D01*
X151663Y-6033D01*
X151679Y-6099D01*
X151694Y-6169D01*
X151729Y-6325D01*
X151760Y-6485D01*
X151788Y-6645D01*
Y-6641D01*
X151792Y-6633D01*
Y-6622D01*
X151796Y-6602D01*
X151803Y-6579D01*
X151807Y-6551D01*
X151815Y-6520D01*
X151823Y-6485D01*
X151842Y-6403D01*
X151862Y-6306D01*
X151889Y-6200D01*
X151917Y-6087D01*
X152314Y-4438D01*
X152657D01*
X151959Y-7000D01*
D02*
G37*
G36*
X148169Y-4399D02*
X148196D01*
X148262Y-4406D01*
X148340Y-4418D01*
X148426Y-4434D01*
X148512Y-4457D01*
X148594Y-4488D01*
X148598D01*
X148601Y-4492D01*
X148613Y-4496D01*
X148629Y-4504D01*
X148668Y-4527D01*
X148719Y-4555D01*
X148773Y-4594D01*
X148828Y-4640D01*
X148882Y-4695D01*
X148929Y-4758D01*
X148933Y-4765D01*
X148949Y-4789D01*
X148968Y-4828D01*
X148988Y-4874D01*
X149011Y-4933D01*
X149034Y-5003D01*
X149050Y-5077D01*
X149058Y-5159D01*
X148734Y-5183D01*
Y-5179D01*
Y-5171D01*
X148730Y-5159D01*
X148726Y-5144D01*
X148719Y-5101D01*
X148703Y-5046D01*
X148679Y-4988D01*
X148648Y-4929D01*
X148605Y-4871D01*
X148555Y-4820D01*
X148547Y-4816D01*
X148527Y-4800D01*
X148492Y-4781D01*
X148445Y-4758D01*
X148383Y-4734D01*
X148305Y-4715D01*
X148215Y-4699D01*
X148110Y-4695D01*
X148059D01*
X148036Y-4699D01*
X148005D01*
X147939Y-4711D01*
X147864Y-4722D01*
X147790Y-4742D01*
X147720Y-4769D01*
X147689Y-4789D01*
X147662Y-4808D01*
X147658Y-4812D01*
X147642Y-4828D01*
X147619Y-4851D01*
X147595Y-4886D01*
X147568Y-4925D01*
X147548Y-4972D01*
X147533Y-5023D01*
X147525Y-5081D01*
Y-5089D01*
Y-5105D01*
X147529Y-5132D01*
X147537Y-5163D01*
X147548Y-5198D01*
X147568Y-5237D01*
X147591Y-5272D01*
X147623Y-5307D01*
X147626Y-5311D01*
X147646Y-5323D01*
X147658Y-5331D01*
X147673Y-5342D01*
X147697Y-5350D01*
X147724Y-5362D01*
X147755Y-5378D01*
X147790Y-5393D01*
X147829Y-5405D01*
X147876Y-5421D01*
X147931Y-5440D01*
X147989Y-5456D01*
X148056Y-5471D01*
X148130Y-5491D01*
X148134D01*
X148149Y-5495D01*
X148169Y-5499D01*
X148196Y-5506D01*
X148231Y-5514D01*
X148270Y-5526D01*
X148356Y-5545D01*
X148449Y-5573D01*
X148543Y-5600D01*
X148590Y-5612D01*
X148629Y-5627D01*
X148668Y-5643D01*
X148699Y-5655D01*
X148703D01*
X148711Y-5658D01*
X148719Y-5666D01*
X148734Y-5674D01*
X148773Y-5697D01*
X148824Y-5725D01*
X148878Y-5764D01*
X148933Y-5810D01*
X148984Y-5861D01*
X149027Y-5916D01*
X149030Y-5924D01*
X149042Y-5943D01*
X149062Y-5974D01*
X149081Y-6021D01*
X149101Y-6072D01*
X149120Y-6134D01*
X149132Y-6204D01*
X149136Y-6278D01*
Y-6282D01*
Y-6286D01*
Y-6298D01*
Y-6314D01*
X149128Y-6353D01*
X149120Y-6403D01*
X149109Y-6462D01*
X149085Y-6528D01*
X149058Y-6598D01*
X149019Y-6665D01*
X149015Y-6672D01*
X148995Y-6696D01*
X148972Y-6727D01*
X148933Y-6766D01*
X148886Y-6813D01*
X148828Y-6860D01*
X148758Y-6903D01*
X148679Y-6945D01*
X148676D01*
X148668Y-6949D01*
X148656Y-6953D01*
X148641Y-6961D01*
X148621Y-6969D01*
X148598Y-6977D01*
X148535Y-6992D01*
X148465Y-7012D01*
X148379Y-7027D01*
X148290Y-7039D01*
X148188Y-7043D01*
X148130D01*
X148102Y-7039D01*
X148067D01*
X148028Y-7035D01*
X147985Y-7031D01*
X147896Y-7019D01*
X147798Y-7000D01*
X147701Y-6977D01*
X147607Y-6945D01*
X147603D01*
X147595Y-6942D01*
X147584Y-6934D01*
X147568Y-6926D01*
X147525Y-6903D01*
X147474Y-6867D01*
X147412Y-6825D01*
X147353Y-6774D01*
X147291Y-6711D01*
X147237Y-6641D01*
Y-6637D01*
X147233Y-6633D01*
X147225Y-6622D01*
X147217Y-6606D01*
X147205Y-6587D01*
X147194Y-6563D01*
X147170Y-6505D01*
X147147Y-6438D01*
X147123Y-6357D01*
X147108Y-6271D01*
X147100Y-6177D01*
X147420Y-6150D01*
Y-6154D01*
Y-6158D01*
X147424Y-6181D01*
X147432Y-6216D01*
X147439Y-6263D01*
X147455Y-6314D01*
X147470Y-6368D01*
X147494Y-6419D01*
X147521Y-6470D01*
X147525Y-6474D01*
X147537Y-6489D01*
X147556Y-6513D01*
X147588Y-6540D01*
X147623Y-6571D01*
X147666Y-6606D01*
X147720Y-6637D01*
X147779Y-6668D01*
X147783D01*
X147786Y-6672D01*
X147810Y-6680D01*
X147845Y-6692D01*
X147896Y-6704D01*
X147950Y-6719D01*
X148020Y-6731D01*
X148094Y-6739D01*
X148172Y-6743D01*
X148204D01*
X148243Y-6739D01*
X148286Y-6735D01*
X148340Y-6731D01*
X148395Y-6719D01*
X148453Y-6707D01*
X148512Y-6688D01*
X148520Y-6684D01*
X148535Y-6676D01*
X148563Y-6665D01*
X148594Y-6645D01*
X148633Y-6622D01*
X148668Y-6594D01*
X148703Y-6563D01*
X148734Y-6528D01*
X148738Y-6524D01*
X148746Y-6509D01*
X148758Y-6489D01*
X148773Y-6462D01*
X148785Y-6431D01*
X148796Y-6392D01*
X148804Y-6353D01*
X148808Y-6310D01*
Y-6306D01*
Y-6290D01*
X148804Y-6267D01*
X148800Y-6239D01*
X148793Y-6204D01*
X148777Y-6169D01*
X148761Y-6134D01*
X148738Y-6099D01*
X148734Y-6095D01*
X148726Y-6084D01*
X148707Y-6068D01*
X148683Y-6044D01*
X148652Y-6021D01*
X148613Y-5998D01*
X148563Y-5970D01*
X148508Y-5947D01*
X148504Y-5943D01*
X148488Y-5939D01*
X148457Y-5931D01*
X148438Y-5924D01*
X148414Y-5916D01*
X148383Y-5908D01*
X148352Y-5900D01*
X148313Y-5889D01*
X148274Y-5877D01*
X148227Y-5865D01*
X148172Y-5853D01*
X148114Y-5838D01*
X148052Y-5822D01*
X148048D01*
X148036Y-5818D01*
X148017Y-5814D01*
X147993Y-5807D01*
X147966Y-5799D01*
X147935Y-5791D01*
X147861Y-5771D01*
X147779Y-5744D01*
X147697Y-5717D01*
X147623Y-5690D01*
X147588Y-5678D01*
X147560Y-5662D01*
X147556D01*
X147552Y-5658D01*
X147529Y-5643D01*
X147498Y-5623D01*
X147459Y-5596D01*
X147412Y-5561D01*
X147369Y-5522D01*
X147326Y-5475D01*
X147287Y-5424D01*
X147283Y-5417D01*
X147272Y-5397D01*
X147260Y-5370D01*
X147244Y-5331D01*
X147225Y-5284D01*
X147213Y-5229D01*
X147201Y-5167D01*
X147197Y-5105D01*
Y-5101D01*
Y-5097D01*
Y-5085D01*
Y-5069D01*
X147205Y-5034D01*
X147213Y-4988D01*
X147225Y-4929D01*
X147244Y-4871D01*
X147272Y-4804D01*
X147307Y-4742D01*
Y-4738D01*
X147311Y-4734D01*
X147326Y-4715D01*
X147353Y-4683D01*
X147389Y-4644D01*
X147432Y-4605D01*
X147486Y-4563D01*
X147552Y-4520D01*
X147626Y-4484D01*
X147630D01*
X147634Y-4481D01*
X147646Y-4477D01*
X147666Y-4469D01*
X147685Y-4465D01*
X147708Y-4457D01*
X147763Y-4438D01*
X147833Y-4422D01*
X147911Y-4410D01*
X148001Y-4399D01*
X148094Y-4395D01*
X148141D01*
X148169Y-4399D01*
D02*
G37*
G36*
X119349Y-35737D02*
X119353Y-35744D01*
X119365Y-35756D01*
X119376Y-35776D01*
X119396Y-35799D01*
X119411Y-35826D01*
X119458Y-35893D01*
X119505Y-35971D01*
X119556Y-36056D01*
X119603Y-36154D01*
X119645Y-36251D01*
Y-36255D01*
X119649Y-36263D01*
X119653Y-36279D01*
X119661Y-36298D01*
X119669Y-36322D01*
X119677Y-36349D01*
X119684Y-36384D01*
X119692Y-36419D01*
X119712Y-36501D01*
X119727Y-36591D01*
X119739Y-36692D01*
X119743Y-36794D01*
Y-36797D01*
Y-36809D01*
Y-36829D01*
X119739Y-36856D01*
Y-36891D01*
X119735Y-36930D01*
X119731Y-36973D01*
X119723Y-37020D01*
X119704Y-37129D01*
X119677Y-37242D01*
X119638Y-37363D01*
X119583Y-37480D01*
X119579Y-37484D01*
X119575Y-37492D01*
X119567Y-37511D01*
X119552Y-37531D01*
X119536Y-37558D01*
X119517Y-37585D01*
X119466Y-37652D01*
X119400Y-37729D01*
X119318Y-37804D01*
X119224Y-37878D01*
X119119Y-37944D01*
X119115D01*
X119103Y-37952D01*
X119088Y-37960D01*
X119064Y-37967D01*
X119037Y-37979D01*
X119002Y-37995D01*
X118963Y-38006D01*
X118916Y-38022D01*
X118869Y-38038D01*
X118815Y-38049D01*
X118698Y-38077D01*
X118569Y-38092D01*
X118432Y-38100D01*
X118397D01*
X118370Y-38096D01*
X118335D01*
X118296Y-38092D01*
X118253Y-38088D01*
X118206Y-38080D01*
X118097Y-38061D01*
X117980Y-38034D01*
X117855Y-37995D01*
X117734Y-37944D01*
X117730D01*
X117719Y-37936D01*
X117703Y-37928D01*
X117680Y-37917D01*
X117652Y-37897D01*
X117625Y-37878D01*
X117551Y-37831D01*
X117473Y-37765D01*
X117395Y-37690D01*
X117321Y-37597D01*
X117286Y-37550D01*
X117255Y-37495D01*
Y-37492D01*
X117247Y-37484D01*
X117239Y-37464D01*
X117231Y-37445D01*
X117216Y-37418D01*
X117204Y-37382D01*
X117188Y-37343D01*
X117173Y-37301D01*
X117161Y-37254D01*
X117146Y-37203D01*
X117118Y-37086D01*
X117103Y-36961D01*
X117095Y-36821D01*
Y-36817D01*
Y-36809D01*
Y-36794D01*
Y-36774D01*
X117099Y-36751D01*
Y-36719D01*
X117106Y-36653D01*
X117118Y-36579D01*
X117134Y-36493D01*
X117157Y-36407D01*
X117188Y-36322D01*
Y-36318D01*
X117192Y-36310D01*
X117196Y-36298D01*
X117204Y-36283D01*
X117224Y-36244D01*
X117255Y-36193D01*
X117290Y-36134D01*
X117333Y-36076D01*
X117379Y-36017D01*
X117438Y-35967D01*
X117446Y-35963D01*
X117465Y-35947D01*
X117500Y-35924D01*
X117551Y-35893D01*
X117610Y-35861D01*
X117680Y-35830D01*
X117762Y-35799D01*
X117855Y-35772D01*
X117941Y-36080D01*
X117937D01*
X117933Y-36084D01*
X117910Y-36088D01*
X117875Y-36103D01*
X117828Y-36119D01*
X117781Y-36138D01*
X117730Y-36162D01*
X117680Y-36189D01*
X117633Y-36220D01*
X117629Y-36224D01*
X117613Y-36236D01*
X117594Y-36255D01*
X117567Y-36283D01*
X117539Y-36318D01*
X117508Y-36361D01*
X117481Y-36407D01*
X117454Y-36466D01*
X117450Y-36474D01*
X117442Y-36493D01*
X117430Y-36528D01*
X117419Y-36571D01*
X117407Y-36622D01*
X117395Y-36680D01*
X117387Y-36747D01*
X117383Y-36817D01*
Y-36821D01*
Y-36829D01*
Y-36840D01*
Y-36856D01*
X117387Y-36899D01*
X117391Y-36953D01*
X117403Y-37016D01*
X117415Y-37086D01*
X117434Y-37152D01*
X117457Y-37219D01*
X117461Y-37226D01*
X117469Y-37246D01*
X117485Y-37277D01*
X117508Y-37316D01*
X117535Y-37359D01*
X117567Y-37406D01*
X117602Y-37449D01*
X117645Y-37492D01*
X117649Y-37495D01*
X117664Y-37507D01*
X117688Y-37527D01*
X117719Y-37550D01*
X117758Y-37577D01*
X117801Y-37605D01*
X117848Y-37628D01*
X117898Y-37652D01*
X117902D01*
X117910Y-37655D01*
X117922Y-37659D01*
X117941Y-37667D01*
X117961Y-37675D01*
X117988Y-37683D01*
X118050Y-37698D01*
X118128Y-37718D01*
X118214Y-37733D01*
X118312Y-37745D01*
X118413Y-37749D01*
X118444D01*
X118472Y-37745D01*
X118499D01*
X118534Y-37741D01*
X118573Y-37737D01*
X118612Y-37733D01*
X118705Y-37722D01*
X118803Y-37698D01*
X118897Y-37671D01*
X118990Y-37632D01*
X118994D01*
X119002Y-37628D01*
X119014Y-37620D01*
X119029Y-37609D01*
X119068Y-37581D01*
X119119Y-37546D01*
X119174Y-37499D01*
X119232Y-37441D01*
X119287Y-37371D01*
X119333Y-37293D01*
Y-37289D01*
X119337Y-37281D01*
X119345Y-37269D01*
X119349Y-37254D01*
X119357Y-37234D01*
X119369Y-37207D01*
X119388Y-37148D01*
X119407Y-37074D01*
X119427Y-36996D01*
X119439Y-36907D01*
X119443Y-36813D01*
Y-36809D01*
Y-36801D01*
Y-36790D01*
Y-36774D01*
X119439Y-36731D01*
X119431Y-36676D01*
X119423Y-36614D01*
X119407Y-36540D01*
X119388Y-36462D01*
X119361Y-36384D01*
Y-36380D01*
X119357Y-36376D01*
X119353Y-36364D01*
X119345Y-36349D01*
X119330Y-36310D01*
X119306Y-36263D01*
X119279Y-36212D01*
X119248Y-36162D01*
X119212Y-36111D01*
X119177Y-36064D01*
X118694D01*
Y-36817D01*
X118394D01*
Y-35733D01*
X119345D01*
X119349Y-35737D01*
D02*
G37*
G36*
X118817Y-58353D02*
X118852D01*
X118895Y-58357D01*
X118942Y-58360D01*
X119039Y-58372D01*
X119141Y-58388D01*
X119242Y-58407D01*
X119332Y-58438D01*
X119336D01*
X119344Y-58442D01*
X119355Y-58446D01*
X119371Y-58454D01*
X119410Y-58477D01*
X119465Y-58509D01*
X119523Y-58552D01*
X119586Y-58606D01*
X119644Y-58676D01*
X119702Y-58754D01*
Y-58758D01*
X119710Y-58766D01*
X119714Y-58778D01*
X119726Y-58797D01*
X119734Y-58817D01*
X119745Y-58844D01*
X119761Y-58879D01*
X119773Y-58914D01*
X119784Y-58953D01*
X119800Y-59000D01*
X119812Y-59047D01*
X119819Y-59101D01*
X119835Y-59219D01*
X119843Y-59351D01*
Y-59355D01*
Y-59367D01*
Y-59386D01*
X119839Y-59410D01*
Y-59441D01*
X119835Y-59476D01*
X119831Y-59515D01*
X119827Y-59558D01*
X119812Y-59651D01*
X119792Y-59749D01*
X119761Y-59850D01*
X119722Y-59940D01*
Y-59944D01*
X119714Y-59952D01*
X119710Y-59960D01*
X119699Y-59975D01*
X119671Y-60018D01*
X119628Y-60065D01*
X119578Y-60119D01*
X119519Y-60170D01*
X119445Y-60221D01*
X119363Y-60264D01*
X119359D01*
X119351Y-60268D01*
X119340Y-60272D01*
X119320Y-60279D01*
X119297Y-60287D01*
X119266Y-60295D01*
X119231Y-60303D01*
X119192Y-60311D01*
X119149Y-60322D01*
X119102Y-60330D01*
X119047Y-60338D01*
X118993Y-60346D01*
X118930Y-60353D01*
X118864Y-60357D01*
X118794Y-60361D01*
X117238D01*
Y-60022D01*
X118802D01*
X118833Y-60018D01*
X118907Y-60014D01*
X118985Y-60006D01*
X119067Y-59999D01*
X119145Y-59983D01*
X119180Y-59975D01*
X119211Y-59963D01*
X119219Y-59960D01*
X119238Y-59952D01*
X119266Y-59936D01*
X119301Y-59913D01*
X119340Y-59885D01*
X119383Y-59846D01*
X119422Y-59803D01*
X119457Y-59749D01*
X119461Y-59741D01*
X119468Y-59722D01*
X119484Y-59690D01*
X119496Y-59648D01*
X119511Y-59593D01*
X119527Y-59531D01*
X119535Y-59460D01*
X119539Y-59382D01*
Y-59378D01*
Y-59367D01*
Y-59347D01*
X119535Y-59320D01*
Y-59289D01*
X119531Y-59254D01*
X119519Y-59176D01*
X119496Y-59086D01*
X119468Y-59000D01*
X119426Y-58918D01*
X119402Y-58879D01*
X119371Y-58848D01*
X119367D01*
X119363Y-58840D01*
X119351Y-58832D01*
X119336Y-58825D01*
X119316Y-58809D01*
X119293Y-58797D01*
X119262Y-58782D01*
X119227Y-58766D01*
X119184Y-58754D01*
X119137Y-58739D01*
X119086Y-58723D01*
X119024Y-58711D01*
X118958Y-58704D01*
X118887Y-58696D01*
X118806Y-58688D01*
X117238D01*
Y-58349D01*
X118782D01*
X118817Y-58353D01*
D02*
G37*
G36*
X119153Y-55868D02*
X119203Y-55876D01*
X119262Y-55888D01*
X119328Y-55911D01*
X119398Y-55939D01*
X119465Y-55978D01*
X119472Y-55981D01*
X119496Y-56001D01*
X119527Y-56024D01*
X119566Y-56063D01*
X119613Y-56110D01*
X119660Y-56169D01*
X119702Y-56239D01*
X119745Y-56317D01*
Y-56321D01*
X119749Y-56329D01*
X119753Y-56340D01*
X119761Y-56356D01*
X119769Y-56375D01*
X119777Y-56399D01*
X119792Y-56461D01*
X119812Y-56531D01*
X119827Y-56617D01*
X119839Y-56707D01*
X119843Y-56808D01*
Y-56812D01*
Y-56824D01*
Y-56843D01*
Y-56867D01*
X119839Y-56894D01*
Y-56929D01*
X119835Y-56968D01*
X119831Y-57011D01*
X119819Y-57101D01*
X119800Y-57198D01*
X119777Y-57296D01*
X119745Y-57389D01*
Y-57393D01*
X119741Y-57401D01*
X119734Y-57413D01*
X119726Y-57428D01*
X119702Y-57471D01*
X119667Y-57522D01*
X119624Y-57584D01*
X119574Y-57643D01*
X119511Y-57705D01*
X119441Y-57760D01*
X119437D01*
X119433Y-57764D01*
X119422Y-57772D01*
X119406Y-57779D01*
X119387Y-57791D01*
X119363Y-57803D01*
X119305Y-57826D01*
X119238Y-57850D01*
X119157Y-57873D01*
X119071Y-57889D01*
X118977Y-57896D01*
X118950Y-57577D01*
X118958D01*
X118981Y-57573D01*
X119016Y-57565D01*
X119063Y-57557D01*
X119114Y-57542D01*
X119168Y-57526D01*
X119219Y-57503D01*
X119270Y-57475D01*
X119273Y-57471D01*
X119289Y-57460D01*
X119313Y-57440D01*
X119340Y-57409D01*
X119371Y-57374D01*
X119406Y-57331D01*
X119437Y-57276D01*
X119468Y-57218D01*
Y-57214D01*
X119472Y-57210D01*
X119480Y-57187D01*
X119492Y-57152D01*
X119504Y-57101D01*
X119519Y-57046D01*
X119531Y-56976D01*
X119539Y-56902D01*
X119543Y-56824D01*
Y-56820D01*
Y-56816D01*
Y-56793D01*
X119539Y-56754D01*
X119535Y-56711D01*
X119531Y-56656D01*
X119519Y-56602D01*
X119508Y-56543D01*
X119488Y-56485D01*
X119484Y-56477D01*
X119476Y-56461D01*
X119465Y-56434D01*
X119445Y-56403D01*
X119422Y-56364D01*
X119394Y-56329D01*
X119363Y-56293D01*
X119328Y-56262D01*
X119324Y-56258D01*
X119309Y-56251D01*
X119289Y-56239D01*
X119262Y-56223D01*
X119231Y-56212D01*
X119192Y-56200D01*
X119153Y-56192D01*
X119110Y-56188D01*
X119090D01*
X119067Y-56192D01*
X119039Y-56196D01*
X119004Y-56204D01*
X118969Y-56219D01*
X118934Y-56235D01*
X118899Y-56258D01*
X118895Y-56262D01*
X118884Y-56270D01*
X118868Y-56290D01*
X118844Y-56313D01*
X118821Y-56344D01*
X118798Y-56383D01*
X118770Y-56434D01*
X118747Y-56489D01*
X118743Y-56492D01*
X118739Y-56508D01*
X118731Y-56539D01*
X118724Y-56559D01*
X118716Y-56582D01*
X118708Y-56613D01*
X118700Y-56644D01*
X118688Y-56683D01*
X118677Y-56722D01*
X118665Y-56769D01*
X118653Y-56824D01*
X118638Y-56882D01*
X118622Y-56945D01*
Y-56949D01*
X118618Y-56960D01*
X118614Y-56980D01*
X118607Y-57003D01*
X118599Y-57031D01*
X118591Y-57062D01*
X118571Y-57136D01*
X118544Y-57218D01*
X118517Y-57300D01*
X118490Y-57374D01*
X118478Y-57409D01*
X118462Y-57436D01*
Y-57440D01*
X118458Y-57444D01*
X118443Y-57467D01*
X118423Y-57499D01*
X118396Y-57538D01*
X118361Y-57584D01*
X118322Y-57627D01*
X118275Y-57670D01*
X118224Y-57709D01*
X118217Y-57713D01*
X118197Y-57725D01*
X118170Y-57736D01*
X118131Y-57752D01*
X118084Y-57772D01*
X118029Y-57783D01*
X117967Y-57795D01*
X117905Y-57799D01*
X117869D01*
X117834Y-57791D01*
X117788Y-57783D01*
X117729Y-57772D01*
X117671Y-57752D01*
X117604Y-57725D01*
X117542Y-57690D01*
X117538D01*
X117534Y-57686D01*
X117515Y-57670D01*
X117483Y-57643D01*
X117444Y-57608D01*
X117405Y-57565D01*
X117362Y-57510D01*
X117320Y-57444D01*
X117285Y-57370D01*
Y-57366D01*
X117281Y-57362D01*
X117277Y-57350D01*
X117269Y-57331D01*
X117265Y-57311D01*
X117257Y-57288D01*
X117238Y-57233D01*
X117222Y-57163D01*
X117210Y-57085D01*
X117199Y-56995D01*
X117195Y-56902D01*
Y-56898D01*
Y-56890D01*
Y-56875D01*
Y-56855D01*
X117199Y-56828D01*
Y-56801D01*
X117207Y-56734D01*
X117218Y-56656D01*
X117234Y-56570D01*
X117257Y-56485D01*
X117288Y-56403D01*
Y-56399D01*
X117292Y-56395D01*
X117296Y-56383D01*
X117304Y-56368D01*
X117327Y-56329D01*
X117355Y-56278D01*
X117394Y-56223D01*
X117440Y-56169D01*
X117495Y-56114D01*
X117558Y-56067D01*
X117565Y-56063D01*
X117589Y-56048D01*
X117628Y-56028D01*
X117675Y-56009D01*
X117733Y-55985D01*
X117803Y-55962D01*
X117877Y-55946D01*
X117959Y-55939D01*
X117983Y-56262D01*
X117971D01*
X117959Y-56266D01*
X117944Y-56270D01*
X117901Y-56278D01*
X117846Y-56293D01*
X117788Y-56317D01*
X117729Y-56348D01*
X117671Y-56391D01*
X117620Y-56442D01*
X117616Y-56450D01*
X117600Y-56469D01*
X117581Y-56504D01*
X117558Y-56551D01*
X117534Y-56613D01*
X117515Y-56691D01*
X117499Y-56781D01*
X117495Y-56886D01*
Y-56890D01*
Y-56898D01*
Y-56914D01*
Y-56937D01*
X117499Y-56960D01*
Y-56992D01*
X117511Y-57058D01*
X117522Y-57132D01*
X117542Y-57206D01*
X117569Y-57276D01*
X117589Y-57307D01*
X117608Y-57335D01*
X117612Y-57339D01*
X117628Y-57354D01*
X117651Y-57378D01*
X117686Y-57401D01*
X117725Y-57428D01*
X117772Y-57448D01*
X117823Y-57464D01*
X117881Y-57471D01*
X117905D01*
X117932Y-57467D01*
X117963Y-57460D01*
X117998Y-57448D01*
X118037Y-57428D01*
X118072Y-57405D01*
X118107Y-57374D01*
X118111Y-57370D01*
X118123Y-57350D01*
X118131Y-57339D01*
X118142Y-57323D01*
X118150Y-57300D01*
X118162Y-57272D01*
X118178Y-57241D01*
X118193Y-57206D01*
X118205Y-57167D01*
X118220Y-57120D01*
X118240Y-57066D01*
X118256Y-57007D01*
X118271Y-56941D01*
X118291Y-56867D01*
Y-56863D01*
X118295Y-56847D01*
X118298Y-56828D01*
X118306Y-56801D01*
X118314Y-56765D01*
X118326Y-56726D01*
X118345Y-56641D01*
X118373Y-56547D01*
X118400Y-56453D01*
X118412Y-56407D01*
X118427Y-56368D01*
X118443Y-56329D01*
X118455Y-56297D01*
Y-56293D01*
X118458Y-56286D01*
X118466Y-56278D01*
X118474Y-56262D01*
X118497Y-56223D01*
X118525Y-56173D01*
X118564Y-56118D01*
X118611Y-56063D01*
X118661Y-56013D01*
X118716Y-55970D01*
X118724Y-55966D01*
X118743Y-55954D01*
X118774Y-55935D01*
X118821Y-55915D01*
X118872Y-55896D01*
X118934Y-55876D01*
X119004Y-55865D01*
X119079Y-55861D01*
X119114D01*
X119153Y-55868D01*
D02*
G37*
G36*
X119449Y-8637D02*
X119453Y-8644D01*
X119465Y-8656D01*
X119476Y-8676D01*
X119496Y-8699D01*
X119511Y-8726D01*
X119558Y-8793D01*
X119605Y-8871D01*
X119656Y-8956D01*
X119702Y-9054D01*
X119745Y-9151D01*
Y-9155D01*
X119749Y-9163D01*
X119753Y-9179D01*
X119761Y-9198D01*
X119769Y-9222D01*
X119777Y-9249D01*
X119784Y-9284D01*
X119792Y-9319D01*
X119812Y-9401D01*
X119827Y-9491D01*
X119839Y-9592D01*
X119843Y-9693D01*
Y-9697D01*
Y-9709D01*
Y-9729D01*
X119839Y-9756D01*
Y-9791D01*
X119835Y-9830D01*
X119831Y-9873D01*
X119823Y-9920D01*
X119804Y-10029D01*
X119777Y-10142D01*
X119738Y-10263D01*
X119683Y-10380D01*
X119679Y-10384D01*
X119675Y-10392D01*
X119667Y-10411D01*
X119652Y-10431D01*
X119636Y-10458D01*
X119617Y-10485D01*
X119566Y-10552D01*
X119500Y-10629D01*
X119418Y-10704D01*
X119324Y-10778D01*
X119219Y-10844D01*
X119215D01*
X119203Y-10852D01*
X119188Y-10860D01*
X119164Y-10867D01*
X119137Y-10879D01*
X119102Y-10895D01*
X119063Y-10906D01*
X119016Y-10922D01*
X118969Y-10938D01*
X118915Y-10949D01*
X118798Y-10977D01*
X118669Y-10992D01*
X118533Y-11000D01*
X118497D01*
X118470Y-10996D01*
X118435D01*
X118396Y-10992D01*
X118353Y-10988D01*
X118306Y-10981D01*
X118197Y-10961D01*
X118080Y-10934D01*
X117955Y-10895D01*
X117834Y-10844D01*
X117831D01*
X117819Y-10836D01*
X117803Y-10828D01*
X117780Y-10817D01*
X117753Y-10797D01*
X117725Y-10778D01*
X117651Y-10731D01*
X117573Y-10665D01*
X117495Y-10590D01*
X117421Y-10497D01*
X117386Y-10450D01*
X117355Y-10396D01*
Y-10392D01*
X117347Y-10384D01*
X117339Y-10364D01*
X117331Y-10345D01*
X117316Y-10317D01*
X117304Y-10282D01*
X117288Y-10243D01*
X117273Y-10200D01*
X117261Y-10154D01*
X117245Y-10103D01*
X117218Y-9986D01*
X117203Y-9861D01*
X117195Y-9721D01*
Y-9717D01*
Y-9709D01*
Y-9693D01*
Y-9674D01*
X117199Y-9651D01*
Y-9619D01*
X117207Y-9553D01*
X117218Y-9479D01*
X117234Y-9393D01*
X117257Y-9307D01*
X117288Y-9222D01*
Y-9218D01*
X117292Y-9210D01*
X117296Y-9198D01*
X117304Y-9183D01*
X117324Y-9144D01*
X117355Y-9093D01*
X117390Y-9034D01*
X117433Y-8976D01*
X117480Y-8917D01*
X117538Y-8867D01*
X117546Y-8863D01*
X117565Y-8847D01*
X117600Y-8824D01*
X117651Y-8793D01*
X117710Y-8761D01*
X117780Y-8730D01*
X117862Y-8699D01*
X117955Y-8672D01*
X118041Y-8980D01*
X118037D01*
X118033Y-8984D01*
X118010Y-8988D01*
X117975Y-9003D01*
X117928Y-9019D01*
X117881Y-9038D01*
X117831Y-9062D01*
X117780Y-9089D01*
X117733Y-9120D01*
X117729Y-9124D01*
X117713Y-9136D01*
X117694Y-9155D01*
X117667Y-9183D01*
X117639Y-9218D01*
X117608Y-9261D01*
X117581Y-9307D01*
X117554Y-9366D01*
X117550Y-9374D01*
X117542Y-9393D01*
X117530Y-9428D01*
X117518Y-9471D01*
X117507Y-9522D01*
X117495Y-9580D01*
X117487Y-9647D01*
X117483Y-9717D01*
Y-9721D01*
Y-9729D01*
Y-9740D01*
Y-9756D01*
X117487Y-9799D01*
X117491Y-9853D01*
X117503Y-9916D01*
X117515Y-9986D01*
X117534Y-10052D01*
X117558Y-10119D01*
X117561Y-10126D01*
X117569Y-10146D01*
X117585Y-10177D01*
X117608Y-10216D01*
X117636Y-10259D01*
X117667Y-10306D01*
X117702Y-10349D01*
X117745Y-10392D01*
X117749Y-10396D01*
X117764Y-10407D01*
X117788Y-10427D01*
X117819Y-10450D01*
X117858Y-10477D01*
X117901Y-10505D01*
X117947Y-10528D01*
X117998Y-10552D01*
X118002D01*
X118010Y-10555D01*
X118022Y-10559D01*
X118041Y-10567D01*
X118061Y-10575D01*
X118088Y-10583D01*
X118150Y-10598D01*
X118228Y-10618D01*
X118314Y-10633D01*
X118412Y-10645D01*
X118513Y-10649D01*
X118544D01*
X118571Y-10645D01*
X118599D01*
X118634Y-10641D01*
X118673Y-10637D01*
X118712Y-10633D01*
X118806Y-10622D01*
X118903Y-10598D01*
X118997Y-10571D01*
X119090Y-10532D01*
X119094D01*
X119102Y-10528D01*
X119114Y-10520D01*
X119129Y-10509D01*
X119168Y-10481D01*
X119219Y-10446D01*
X119273Y-10399D01*
X119332Y-10341D01*
X119387Y-10271D01*
X119433Y-10193D01*
Y-10189D01*
X119437Y-10181D01*
X119445Y-10169D01*
X119449Y-10154D01*
X119457Y-10134D01*
X119468Y-10107D01*
X119488Y-10048D01*
X119508Y-9974D01*
X119527Y-9896D01*
X119539Y-9807D01*
X119543Y-9713D01*
Y-9709D01*
Y-9701D01*
Y-9690D01*
Y-9674D01*
X119539Y-9631D01*
X119531Y-9577D01*
X119523Y-9514D01*
X119508Y-9440D01*
X119488Y-9362D01*
X119461Y-9284D01*
Y-9280D01*
X119457Y-9276D01*
X119453Y-9264D01*
X119445Y-9249D01*
X119430Y-9210D01*
X119406Y-9163D01*
X119379Y-9112D01*
X119348Y-9062D01*
X119313Y-9011D01*
X119277Y-8964D01*
X118794D01*
Y-9717D01*
X118493D01*
Y-8633D01*
X119445D01*
X119449Y-8637D01*
D02*
G37*
G36*
X118932Y-51582D02*
X118616D01*
Y-50619D01*
X118932D01*
Y-51582D01*
D02*
G37*
G36*
X119800Y-64062D02*
Y-64409D01*
X117238Y-65404D01*
Y-65033D01*
X119098Y-64370D01*
X119102D01*
X119110Y-64367D01*
X119121Y-64363D01*
X119137Y-64355D01*
X119180Y-64343D01*
X119235Y-64324D01*
X119301Y-64300D01*
X119371Y-64277D01*
X119519Y-64234D01*
X119515D01*
X119511Y-64230D01*
X119500Y-64226D01*
X119484Y-64222D01*
X119441Y-64210D01*
X119387Y-64195D01*
X119324Y-64175D01*
X119254Y-64152D01*
X119176Y-64125D01*
X119098Y-64097D01*
X117238Y-63403D01*
Y-63060D01*
X119800Y-64062D01*
D02*
G37*
G36*
X119125Y-60837D02*
X119168Y-60841D01*
X119219Y-60853D01*
X119277Y-60864D01*
X119336Y-60884D01*
X119394Y-60911D01*
X119402Y-60915D01*
X119422Y-60923D01*
X119449Y-60942D01*
X119484Y-60962D01*
X119523Y-60989D01*
X119562Y-61020D01*
X119601Y-61059D01*
X119636Y-61098D01*
X119640Y-61102D01*
X119648Y-61118D01*
X119664Y-61141D01*
X119683Y-61176D01*
X119702Y-61215D01*
X119722Y-61266D01*
X119741Y-61321D01*
X119761Y-61379D01*
Y-61387D01*
X119769Y-61410D01*
X119773Y-61445D01*
X119781Y-61492D01*
X119788Y-61555D01*
X119792Y-61625D01*
X119800Y-61703D01*
Y-61792D01*
Y-62767D01*
X117238D01*
Y-61808D01*
Y-61804D01*
Y-61796D01*
Y-61781D01*
Y-61761D01*
X117242Y-61734D01*
Y-61707D01*
X117245Y-61640D01*
X117257Y-61566D01*
X117269Y-61488D01*
X117288Y-61410D01*
X117316Y-61340D01*
Y-61336D01*
X117320Y-61332D01*
X117331Y-61309D01*
X117351Y-61278D01*
X117374Y-61239D01*
X117409Y-61192D01*
X117452Y-61145D01*
X117499Y-61102D01*
X117558Y-61059D01*
X117565Y-61055D01*
X117585Y-61044D01*
X117620Y-61028D01*
X117663Y-61009D01*
X117713Y-60989D01*
X117768Y-60974D01*
X117831Y-60962D01*
X117897Y-60958D01*
X117924D01*
X117955Y-60962D01*
X117998Y-60970D01*
X118045Y-60981D01*
X118096Y-60997D01*
X118154Y-61016D01*
X118209Y-61048D01*
X118217Y-61051D01*
X118232Y-61063D01*
X118260Y-61087D01*
X118291Y-61114D01*
X118330Y-61153D01*
X118365Y-61200D01*
X118404Y-61254D01*
X118439Y-61321D01*
Y-61317D01*
X118443Y-61309D01*
X118447Y-61297D01*
X118451Y-61282D01*
X118470Y-61239D01*
X118493Y-61188D01*
X118529Y-61129D01*
X118568Y-61071D01*
X118614Y-61013D01*
X118673Y-60962D01*
X118681Y-60958D01*
X118700Y-60942D01*
X118735Y-60923D01*
X118782Y-60896D01*
X118841Y-60872D01*
X118903Y-60853D01*
X118977Y-60837D01*
X119059Y-60833D01*
X119090D01*
X119125Y-60837D01*
D02*
G37*
G36*
X155957Y-7000D02*
X155618D01*
Y-4438D01*
X155957D01*
Y-7000D01*
D02*
G37*
G36*
X155298Y-23938D02*
X154455D01*
Y-26200D01*
X154116D01*
Y-23938D01*
X153274D01*
Y-23638D01*
X155298D01*
Y-23938D01*
D02*
G37*
G36*
X152033Y-23599D02*
X152061D01*
X152127Y-23607D01*
X152205Y-23618D01*
X152291Y-23634D01*
X152377Y-23657D01*
X152459Y-23688D01*
X152462D01*
X152466Y-23692D01*
X152478Y-23696D01*
X152494Y-23704D01*
X152533Y-23727D01*
X152583Y-23755D01*
X152638Y-23794D01*
X152692Y-23841D01*
X152747Y-23895D01*
X152794Y-23957D01*
X152798Y-23965D01*
X152813Y-23989D01*
X152833Y-24028D01*
X152852Y-24074D01*
X152876Y-24133D01*
X152899Y-24203D01*
X152915Y-24277D01*
X152923Y-24359D01*
X152599Y-24383D01*
Y-24379D01*
Y-24371D01*
X152595Y-24359D01*
X152591Y-24344D01*
X152583Y-24301D01*
X152568Y-24246D01*
X152544Y-24188D01*
X152513Y-24129D01*
X152470Y-24071D01*
X152419Y-24020D01*
X152412Y-24016D01*
X152392Y-24000D01*
X152357Y-23981D01*
X152310Y-23957D01*
X152248Y-23934D01*
X152170Y-23915D01*
X152080Y-23899D01*
X151975Y-23895D01*
X151924D01*
X151901Y-23899D01*
X151870D01*
X151803Y-23911D01*
X151729Y-23922D01*
X151655Y-23942D01*
X151585Y-23969D01*
X151554Y-23989D01*
X151526Y-24008D01*
X151523Y-24012D01*
X151507Y-24028D01*
X151484Y-24051D01*
X151460Y-24086D01*
X151433Y-24125D01*
X151413Y-24172D01*
X151398Y-24223D01*
X151390Y-24281D01*
Y-24289D01*
Y-24305D01*
X151394Y-24332D01*
X151402Y-24363D01*
X151413Y-24398D01*
X151433Y-24437D01*
X151456Y-24472D01*
X151487Y-24507D01*
X151491Y-24511D01*
X151511Y-24523D01*
X151523Y-24531D01*
X151538Y-24543D01*
X151561Y-24550D01*
X151589Y-24562D01*
X151620Y-24578D01*
X151655Y-24593D01*
X151694Y-24605D01*
X151741Y-24621D01*
X151795Y-24640D01*
X151854Y-24656D01*
X151920Y-24671D01*
X151994Y-24691D01*
X151998D01*
X152014Y-24695D01*
X152033Y-24699D01*
X152061Y-24706D01*
X152096Y-24714D01*
X152135Y-24726D01*
X152221Y-24745D01*
X152314Y-24773D01*
X152408Y-24800D01*
X152455Y-24812D01*
X152494Y-24827D01*
X152533Y-24843D01*
X152564Y-24855D01*
X152568D01*
X152576Y-24858D01*
X152583Y-24866D01*
X152599Y-24874D01*
X152638Y-24897D01*
X152689Y-24925D01*
X152743Y-24964D01*
X152798Y-25010D01*
X152848Y-25061D01*
X152891Y-25116D01*
X152895Y-25124D01*
X152907Y-25143D01*
X152927Y-25174D01*
X152946Y-25221D01*
X152965Y-25272D01*
X152985Y-25334D01*
X152997Y-25404D01*
X153001Y-25479D01*
Y-25482D01*
Y-25486D01*
Y-25498D01*
Y-25514D01*
X152993Y-25553D01*
X152985Y-25603D01*
X152973Y-25662D01*
X152950Y-25728D01*
X152923Y-25798D01*
X152884Y-25865D01*
X152880Y-25872D01*
X152860Y-25896D01*
X152837Y-25927D01*
X152798Y-25966D01*
X152751Y-26013D01*
X152692Y-26060D01*
X152622Y-26103D01*
X152544Y-26145D01*
X152540D01*
X152533Y-26149D01*
X152521Y-26153D01*
X152505Y-26161D01*
X152486Y-26169D01*
X152462Y-26177D01*
X152400Y-26192D01*
X152330Y-26212D01*
X152244Y-26227D01*
X152154Y-26239D01*
X152053Y-26243D01*
X151994D01*
X151967Y-26239D01*
X151932D01*
X151893Y-26235D01*
X151850Y-26231D01*
X151760Y-26219D01*
X151663Y-26200D01*
X151565Y-26177D01*
X151472Y-26145D01*
X151468D01*
X151460Y-26142D01*
X151448Y-26134D01*
X151433Y-26126D01*
X151390Y-26103D01*
X151339Y-26067D01*
X151277Y-26024D01*
X151218Y-25974D01*
X151156Y-25911D01*
X151101Y-25841D01*
Y-25837D01*
X151097Y-25833D01*
X151090Y-25822D01*
X151082Y-25806D01*
X151070Y-25787D01*
X151058Y-25763D01*
X151035Y-25705D01*
X151012Y-25638D01*
X150988Y-25556D01*
X150973Y-25471D01*
X150965Y-25377D01*
X151285Y-25350D01*
Y-25354D01*
Y-25358D01*
X151288Y-25381D01*
X151296Y-25416D01*
X151304Y-25463D01*
X151320Y-25514D01*
X151335Y-25568D01*
X151359Y-25619D01*
X151386Y-25670D01*
X151390Y-25673D01*
X151402Y-25689D01*
X151421Y-25712D01*
X151452Y-25740D01*
X151487Y-25771D01*
X151530Y-25806D01*
X151585Y-25837D01*
X151643Y-25868D01*
X151647D01*
X151651Y-25872D01*
X151675Y-25880D01*
X151710Y-25892D01*
X151760Y-25904D01*
X151815Y-25919D01*
X151885Y-25931D01*
X151959Y-25939D01*
X152037Y-25943D01*
X152068D01*
X152108Y-25939D01*
X152150Y-25935D01*
X152205Y-25931D01*
X152260Y-25919D01*
X152318Y-25907D01*
X152377Y-25888D01*
X152384Y-25884D01*
X152400Y-25876D01*
X152427Y-25865D01*
X152459Y-25845D01*
X152497Y-25822D01*
X152533Y-25794D01*
X152568Y-25763D01*
X152599Y-25728D01*
X152603Y-25724D01*
X152611Y-25709D01*
X152622Y-25689D01*
X152638Y-25662D01*
X152650Y-25631D01*
X152661Y-25592D01*
X152669Y-25553D01*
X152673Y-25510D01*
Y-25506D01*
Y-25490D01*
X152669Y-25467D01*
X152665Y-25440D01*
X152657Y-25404D01*
X152642Y-25369D01*
X152626Y-25334D01*
X152603Y-25299D01*
X152599Y-25295D01*
X152591Y-25284D01*
X152572Y-25268D01*
X152548Y-25245D01*
X152517Y-25221D01*
X152478Y-25198D01*
X152427Y-25170D01*
X152373Y-25147D01*
X152369Y-25143D01*
X152353Y-25139D01*
X152322Y-25131D01*
X152303Y-25124D01*
X152279Y-25116D01*
X152248Y-25108D01*
X152217Y-25100D01*
X152178Y-25089D01*
X152139Y-25077D01*
X152092Y-25065D01*
X152037Y-25053D01*
X151979Y-25038D01*
X151916Y-25022D01*
X151912D01*
X151901Y-25018D01*
X151881Y-25014D01*
X151858Y-25007D01*
X151831Y-24999D01*
X151799Y-24991D01*
X151725Y-24972D01*
X151643Y-24944D01*
X151561Y-24917D01*
X151487Y-24890D01*
X151452Y-24878D01*
X151425Y-24862D01*
X151421D01*
X151417Y-24858D01*
X151394Y-24843D01*
X151363Y-24823D01*
X151324Y-24796D01*
X151277Y-24761D01*
X151234Y-24722D01*
X151191Y-24675D01*
X151152Y-24624D01*
X151148Y-24617D01*
X151136Y-24597D01*
X151125Y-24570D01*
X151109Y-24531D01*
X151090Y-24484D01*
X151078Y-24429D01*
X151066Y-24367D01*
X151062Y-24305D01*
Y-24301D01*
Y-24297D01*
Y-24285D01*
Y-24270D01*
X151070Y-24234D01*
X151078Y-24188D01*
X151090Y-24129D01*
X151109Y-24071D01*
X151136Y-24004D01*
X151172Y-23942D01*
Y-23938D01*
X151175Y-23934D01*
X151191Y-23915D01*
X151218Y-23883D01*
X151253Y-23844D01*
X151296Y-23805D01*
X151351Y-23763D01*
X151417Y-23720D01*
X151491Y-23685D01*
X151495D01*
X151499Y-23681D01*
X151511Y-23677D01*
X151530Y-23669D01*
X151550Y-23665D01*
X151573Y-23657D01*
X151628Y-23638D01*
X151698Y-23622D01*
X151776Y-23610D01*
X151866Y-23599D01*
X151959Y-23595D01*
X152006D01*
X152033Y-23599D01*
D02*
G37*
G36*
X155783Y-10500D02*
X157043D01*
Y-10800D01*
X155444D01*
Y-8238D01*
X155783D01*
Y-10500D01*
D02*
G37*
G36*
X130449Y-7999D02*
X130481D01*
X130547Y-8006D01*
X130621Y-8018D01*
X130707Y-8034D01*
X130793Y-8057D01*
X130878Y-8088D01*
X130882D01*
X130890Y-8092D01*
X130902Y-8096D01*
X130917Y-8104D01*
X130956Y-8123D01*
X131007Y-8155D01*
X131066Y-8190D01*
X131124Y-8233D01*
X131183Y-8280D01*
X131233Y-8338D01*
X131237Y-8346D01*
X131253Y-8365D01*
X131276Y-8400D01*
X131307Y-8451D01*
X131339Y-8510D01*
X131370Y-8580D01*
X131401Y-8662D01*
X131428Y-8755D01*
X131120Y-8841D01*
Y-8837D01*
X131116Y-8833D01*
X131112Y-8810D01*
X131097Y-8775D01*
X131081Y-8728D01*
X131062Y-8681D01*
X131038Y-8630D01*
X131011Y-8580D01*
X130980Y-8533D01*
X130976Y-8529D01*
X130964Y-8513D01*
X130945Y-8494D01*
X130917Y-8467D01*
X130882Y-8439D01*
X130839Y-8408D01*
X130793Y-8381D01*
X130734Y-8354D01*
X130726Y-8350D01*
X130707Y-8342D01*
X130672Y-8330D01*
X130629Y-8319D01*
X130578Y-8307D01*
X130520Y-8295D01*
X130453Y-8287D01*
X130383Y-8283D01*
X130344D01*
X130301Y-8287D01*
X130247Y-8291D01*
X130184Y-8303D01*
X130114Y-8315D01*
X130048Y-8334D01*
X129981Y-8358D01*
X129974Y-8361D01*
X129954Y-8369D01*
X129923Y-8385D01*
X129884Y-8408D01*
X129841Y-8435D01*
X129794Y-8467D01*
X129751Y-8502D01*
X129708Y-8545D01*
X129704Y-8549D01*
X129693Y-8564D01*
X129673Y-8588D01*
X129650Y-8619D01*
X129623Y-8658D01*
X129595Y-8701D01*
X129572Y-8748D01*
X129549Y-8798D01*
Y-8802D01*
X129545Y-8810D01*
X129541Y-8822D01*
X129533Y-8841D01*
X129525Y-8861D01*
X129517Y-8888D01*
X129502Y-8950D01*
X129482Y-9028D01*
X129467Y-9114D01*
X129455Y-9212D01*
X129451Y-9313D01*
Y-9317D01*
Y-9329D01*
Y-9344D01*
X129455Y-9371D01*
Y-9399D01*
X129459Y-9434D01*
X129463Y-9473D01*
X129467Y-9512D01*
X129478Y-9606D01*
X129502Y-9703D01*
X129529Y-9797D01*
X129568Y-9890D01*
Y-9894D01*
X129572Y-9902D01*
X129580Y-9914D01*
X129591Y-9929D01*
X129619Y-9968D01*
X129654Y-10019D01*
X129701Y-10074D01*
X129759Y-10132D01*
X129829Y-10187D01*
X129907Y-10233D01*
X129911D01*
X129919Y-10237D01*
X129931Y-10245D01*
X129946Y-10249D01*
X129966Y-10257D01*
X129993Y-10268D01*
X130052Y-10288D01*
X130126Y-10307D01*
X130204Y-10327D01*
X130293Y-10339D01*
X130387Y-10343D01*
X130426D01*
X130469Y-10339D01*
X130524Y-10331D01*
X130586Y-10323D01*
X130660Y-10307D01*
X130738Y-10288D01*
X130816Y-10261D01*
X130820D01*
X130824Y-10257D01*
X130835Y-10253D01*
X130851Y-10245D01*
X130890Y-10229D01*
X130937Y-10206D01*
X130988Y-10179D01*
X131038Y-10148D01*
X131089Y-10113D01*
X131136Y-10077D01*
Y-9594D01*
X130383D01*
Y-9294D01*
X131467D01*
Y-10245D01*
X131463Y-10249D01*
X131456Y-10253D01*
X131444Y-10265D01*
X131424Y-10276D01*
X131401Y-10296D01*
X131374Y-10311D01*
X131307Y-10358D01*
X131229Y-10405D01*
X131144Y-10456D01*
X131046Y-10503D01*
X130949Y-10545D01*
X130945D01*
X130937Y-10549D01*
X130921Y-10553D01*
X130902Y-10561D01*
X130878Y-10569D01*
X130851Y-10577D01*
X130816Y-10584D01*
X130781Y-10592D01*
X130699Y-10612D01*
X130609Y-10627D01*
X130508Y-10639D01*
X130406Y-10643D01*
X130371D01*
X130344Y-10639D01*
X130309D01*
X130270Y-10635D01*
X130227Y-10631D01*
X130180Y-10623D01*
X130071Y-10604D01*
X129958Y-10577D01*
X129837Y-10538D01*
X129720Y-10483D01*
X129716Y-10479D01*
X129708Y-10475D01*
X129689Y-10467D01*
X129669Y-10452D01*
X129642Y-10436D01*
X129615Y-10417D01*
X129549Y-10366D01*
X129471Y-10300D01*
X129396Y-10218D01*
X129322Y-10124D01*
X129256Y-10019D01*
Y-10015D01*
X129248Y-10003D01*
X129240Y-9988D01*
X129233Y-9964D01*
X129221Y-9937D01*
X129205Y-9902D01*
X129194Y-9863D01*
X129178Y-9816D01*
X129162Y-9769D01*
X129151Y-9715D01*
X129123Y-9598D01*
X129108Y-9469D01*
X129100Y-9332D01*
Y-9329D01*
Y-9317D01*
Y-9297D01*
X129104Y-9270D01*
Y-9235D01*
X129108Y-9196D01*
X129112Y-9153D01*
X129120Y-9106D01*
X129139Y-8997D01*
X129166Y-8880D01*
X129205Y-8755D01*
X129256Y-8634D01*
Y-8630D01*
X129264Y-8619D01*
X129272Y-8603D01*
X129283Y-8580D01*
X129303Y-8552D01*
X129322Y-8525D01*
X129369Y-8451D01*
X129435Y-8373D01*
X129509Y-8295D01*
X129603Y-8221D01*
X129650Y-8186D01*
X129704Y-8155D01*
X129708D01*
X129716Y-8147D01*
X129736Y-8139D01*
X129755Y-8131D01*
X129782Y-8116D01*
X129818Y-8104D01*
X129857Y-8088D01*
X129900Y-8073D01*
X129946Y-8061D01*
X129997Y-8045D01*
X130114Y-8018D01*
X130239Y-8003D01*
X130379Y-7995D01*
X130426D01*
X130449Y-7999D01*
D02*
G37*
G36*
X130438Y-5700D02*
X130091D01*
X129096Y-3138D01*
X129467D01*
X130130Y-4998D01*
Y-5002D01*
X130133Y-5010D01*
X130137Y-5021D01*
X130145Y-5037D01*
X130157Y-5080D01*
X130176Y-5134D01*
X130200Y-5201D01*
X130223Y-5271D01*
X130266Y-5419D01*
Y-5415D01*
X130270Y-5411D01*
X130274Y-5400D01*
X130278Y-5384D01*
X130289Y-5341D01*
X130305Y-5287D01*
X130325Y-5224D01*
X130348Y-5154D01*
X130375Y-5076D01*
X130403Y-4998D01*
X131097Y-3138D01*
X131440D01*
X130438Y-5700D01*
D02*
G37*
G36*
X149721Y-23642D02*
X149752D01*
X149830Y-23645D01*
X149912Y-23653D01*
X149998Y-23669D01*
X150080Y-23685D01*
X150119Y-23696D01*
X150154Y-23708D01*
X150157D01*
X150161Y-23712D01*
X150185Y-23720D01*
X150216Y-23739D01*
X150255Y-23766D01*
X150302Y-23798D01*
X150349Y-23841D01*
X150395Y-23891D01*
X150438Y-23954D01*
X150442Y-23961D01*
X150454Y-23985D01*
X150473Y-24020D01*
X150493Y-24067D01*
X150512Y-24125D01*
X150532Y-24192D01*
X150544Y-24262D01*
X150548Y-24340D01*
Y-24344D01*
Y-24351D01*
Y-24367D01*
X150544Y-24386D01*
Y-24410D01*
X150540Y-24437D01*
X150524Y-24500D01*
X150505Y-24574D01*
X150473Y-24648D01*
X150427Y-24726D01*
X150399Y-24765D01*
X150368Y-24800D01*
X150360Y-24808D01*
X150349Y-24815D01*
X150337Y-24831D01*
X150317Y-24843D01*
X150294Y-24862D01*
X150267Y-24878D01*
X150235Y-24897D01*
X150200Y-24917D01*
X150157Y-24936D01*
X150115Y-24956D01*
X150064Y-24975D01*
X150013Y-24995D01*
X149955Y-25010D01*
X149892Y-25022D01*
X149826Y-25034D01*
X149834Y-25038D01*
X149849Y-25046D01*
X149873Y-25057D01*
X149900Y-25073D01*
X149966Y-25116D01*
X150002Y-25139D01*
X150029Y-25163D01*
X150037Y-25170D01*
X150056Y-25186D01*
X150083Y-25217D01*
X150119Y-25256D01*
X150161Y-25307D01*
X150208Y-25365D01*
X150259Y-25432D01*
X150310Y-25506D01*
X150754Y-26200D01*
X150329D01*
X149990Y-25670D01*
Y-25666D01*
X149982Y-25658D01*
X149974Y-25646D01*
X149966Y-25631D01*
X149939Y-25592D01*
X149904Y-25541D01*
X149865Y-25482D01*
X149822Y-25424D01*
X149783Y-25369D01*
X149744Y-25319D01*
X149740Y-25315D01*
X149729Y-25299D01*
X149709Y-25276D01*
X149689Y-25248D01*
X149631Y-25194D01*
X149604Y-25166D01*
X149573Y-25147D01*
X149569Y-25143D01*
X149561Y-25139D01*
X149545Y-25131D01*
X149526Y-25120D01*
X149479Y-25096D01*
X149420Y-25077D01*
X149416D01*
X149409Y-25073D01*
X149393D01*
X149374Y-25069D01*
X149346Y-25065D01*
X149315D01*
X149276Y-25061D01*
X148839D01*
Y-26200D01*
X148500D01*
Y-23638D01*
X149689D01*
X149721Y-23642D01*
D02*
G37*
G36*
X148069Y-8199D02*
X148096D01*
X148162Y-8207D01*
X148240Y-8218D01*
X148326Y-8234D01*
X148412Y-8257D01*
X148494Y-8288D01*
X148498D01*
X148502Y-8292D01*
X148513Y-8296D01*
X148529Y-8304D01*
X148568Y-8327D01*
X148618Y-8355D01*
X148673Y-8394D01*
X148728Y-8440D01*
X148782Y-8495D01*
X148829Y-8557D01*
X148833Y-8565D01*
X148849Y-8589D01*
X148868Y-8628D01*
X148888Y-8675D01*
X148911Y-8733D01*
X148934Y-8803D01*
X148950Y-8877D01*
X148958Y-8959D01*
X148634Y-8983D01*
Y-8979D01*
Y-8971D01*
X148630Y-8959D01*
X148626Y-8944D01*
X148618Y-8901D01*
X148603Y-8846D01*
X148580Y-8788D01*
X148548Y-8729D01*
X148505Y-8671D01*
X148455Y-8620D01*
X148447Y-8616D01*
X148427Y-8600D01*
X148392Y-8581D01*
X148345Y-8557D01*
X148283Y-8534D01*
X148205Y-8515D01*
X148115Y-8499D01*
X148010Y-8495D01*
X147959D01*
X147936Y-8499D01*
X147905D01*
X147838Y-8511D01*
X147764Y-8522D01*
X147690Y-8542D01*
X147620Y-8569D01*
X147589Y-8589D01*
X147562Y-8608D01*
X147558Y-8612D01*
X147542Y-8628D01*
X147519Y-8651D01*
X147495Y-8686D01*
X147468Y-8725D01*
X147449Y-8772D01*
X147433Y-8823D01*
X147425Y-8881D01*
Y-8889D01*
Y-8905D01*
X147429Y-8932D01*
X147437Y-8963D01*
X147449Y-8998D01*
X147468Y-9037D01*
X147491Y-9072D01*
X147523Y-9107D01*
X147527Y-9111D01*
X147546Y-9123D01*
X147558Y-9131D01*
X147573Y-9143D01*
X147597Y-9150D01*
X147624Y-9162D01*
X147655Y-9178D01*
X147690Y-9193D01*
X147729Y-9205D01*
X147776Y-9221D01*
X147831Y-9240D01*
X147889Y-9256D01*
X147956Y-9271D01*
X148030Y-9291D01*
X148033D01*
X148049Y-9295D01*
X148069Y-9298D01*
X148096Y-9306D01*
X148131Y-9314D01*
X148170Y-9326D01*
X148256Y-9345D01*
X148349Y-9373D01*
X148443Y-9400D01*
X148490Y-9412D01*
X148529Y-9427D01*
X148568Y-9443D01*
X148599Y-9454D01*
X148603D01*
X148611Y-9458D01*
X148618Y-9466D01*
X148634Y-9474D01*
X148673Y-9497D01*
X148724Y-9525D01*
X148778Y-9564D01*
X148833Y-9611D01*
X148884Y-9661D01*
X148927Y-9716D01*
X148931Y-9724D01*
X148942Y-9743D01*
X148962Y-9774D01*
X148981Y-9821D01*
X149001Y-9872D01*
X149020Y-9934D01*
X149032Y-10004D01*
X149036Y-10079D01*
Y-10082D01*
Y-10086D01*
Y-10098D01*
Y-10114D01*
X149028Y-10153D01*
X149020Y-10203D01*
X149009Y-10262D01*
X148985Y-10328D01*
X148958Y-10398D01*
X148919Y-10465D01*
X148915Y-10472D01*
X148895Y-10496D01*
X148872Y-10527D01*
X148833Y-10566D01*
X148786Y-10613D01*
X148728Y-10660D01*
X148658Y-10702D01*
X148580Y-10745D01*
X148576D01*
X148568Y-10749D01*
X148556Y-10753D01*
X148540Y-10761D01*
X148521Y-10769D01*
X148498Y-10777D01*
X148435Y-10792D01*
X148365Y-10812D01*
X148279Y-10827D01*
X148189Y-10839D01*
X148088Y-10843D01*
X148030D01*
X148002Y-10839D01*
X147967D01*
X147928Y-10835D01*
X147885Y-10831D01*
X147796Y-10819D01*
X147698Y-10800D01*
X147601Y-10777D01*
X147507Y-10745D01*
X147503D01*
X147495Y-10741D01*
X147484Y-10734D01*
X147468Y-10726D01*
X147425Y-10702D01*
X147374Y-10667D01*
X147312Y-10625D01*
X147254Y-10574D01*
X147191Y-10511D01*
X147136Y-10441D01*
Y-10437D01*
X147133Y-10433D01*
X147125Y-10422D01*
X147117Y-10406D01*
X147105Y-10387D01*
X147094Y-10363D01*
X147070Y-10305D01*
X147047Y-10238D01*
X147023Y-10157D01*
X147008Y-10071D01*
X147000Y-9977D01*
X147320Y-9950D01*
Y-9954D01*
Y-9958D01*
X147324Y-9981D01*
X147332Y-10016D01*
X147339Y-10063D01*
X147355Y-10114D01*
X147371Y-10168D01*
X147394Y-10219D01*
X147421Y-10270D01*
X147425Y-10273D01*
X147437Y-10289D01*
X147456Y-10312D01*
X147487Y-10340D01*
X147523Y-10371D01*
X147565Y-10406D01*
X147620Y-10437D01*
X147679Y-10469D01*
X147682D01*
X147686Y-10472D01*
X147710Y-10480D01*
X147745Y-10492D01*
X147796Y-10504D01*
X147850Y-10519D01*
X147920Y-10531D01*
X147994Y-10539D01*
X148073Y-10543D01*
X148104D01*
X148143Y-10539D01*
X148186Y-10535D01*
X148240Y-10531D01*
X148295Y-10519D01*
X148353Y-10508D01*
X148412Y-10488D01*
X148420Y-10484D01*
X148435Y-10476D01*
X148462Y-10465D01*
X148494Y-10445D01*
X148533Y-10422D01*
X148568Y-10394D01*
X148603Y-10363D01*
X148634Y-10328D01*
X148638Y-10324D01*
X148646Y-10309D01*
X148658Y-10289D01*
X148673Y-10262D01*
X148685Y-10231D01*
X148696Y-10192D01*
X148704Y-10153D01*
X148708Y-10110D01*
Y-10106D01*
Y-10090D01*
X148704Y-10067D01*
X148700Y-10040D01*
X148693Y-10004D01*
X148677Y-9969D01*
X148661Y-9934D01*
X148638Y-9899D01*
X148634Y-9895D01*
X148626Y-9883D01*
X148607Y-9868D01*
X148583Y-9844D01*
X148552Y-9821D01*
X148513Y-9798D01*
X148462Y-9770D01*
X148408Y-9747D01*
X148404Y-9743D01*
X148388Y-9739D01*
X148357Y-9731D01*
X148338Y-9724D01*
X148314Y-9716D01*
X148283Y-9708D01*
X148252Y-9700D01*
X148213Y-9689D01*
X148174Y-9677D01*
X148127Y-9665D01*
X148073Y-9653D01*
X148014Y-9638D01*
X147952Y-9622D01*
X147948D01*
X147936Y-9618D01*
X147916Y-9614D01*
X147893Y-9607D01*
X147866Y-9599D01*
X147835Y-9591D01*
X147760Y-9572D01*
X147679Y-9544D01*
X147597Y-9517D01*
X147523Y-9490D01*
X147487Y-9478D01*
X147460Y-9462D01*
X147456D01*
X147452Y-9458D01*
X147429Y-9443D01*
X147398Y-9423D01*
X147359Y-9396D01*
X147312Y-9361D01*
X147269Y-9322D01*
X147226Y-9275D01*
X147187Y-9224D01*
X147183Y-9217D01*
X147172Y-9197D01*
X147160Y-9170D01*
X147144Y-9131D01*
X147125Y-9084D01*
X147113Y-9029D01*
X147101Y-8967D01*
X147098Y-8905D01*
Y-8901D01*
Y-8897D01*
Y-8885D01*
Y-8869D01*
X147105Y-8834D01*
X147113Y-8788D01*
X147125Y-8729D01*
X147144Y-8671D01*
X147172Y-8604D01*
X147207Y-8542D01*
Y-8538D01*
X147211Y-8534D01*
X147226Y-8515D01*
X147254Y-8483D01*
X147289Y-8444D01*
X147332Y-8405D01*
X147386Y-8363D01*
X147452Y-8320D01*
X147527Y-8285D01*
X147530D01*
X147534Y-8281D01*
X147546Y-8277D01*
X147565Y-8269D01*
X147585Y-8265D01*
X147608Y-8257D01*
X147663Y-8238D01*
X147733Y-8222D01*
X147811Y-8210D01*
X147901Y-8199D01*
X147994Y-8195D01*
X148041D01*
X148069Y-8199D01*
D02*
G37*
G36*
X157731Y-4399D02*
X157763D01*
X157802Y-4403D01*
X157841Y-4410D01*
X157887Y-4414D01*
X157985Y-4438D01*
X158094Y-4469D01*
X158203Y-4508D01*
X158258Y-4535D01*
X158312Y-4566D01*
X158316D01*
X158324Y-4574D01*
X158340Y-4582D01*
X158359Y-4598D01*
X158383Y-4613D01*
X158410Y-4637D01*
X158472Y-4687D01*
X158543Y-4754D01*
X158617Y-4835D01*
X158683Y-4929D01*
X158745Y-5038D01*
Y-5042D01*
X158753Y-5054D01*
X158761Y-5069D01*
X158769Y-5093D01*
X158781Y-5120D01*
X158792Y-5155D01*
X158808Y-5194D01*
X158823Y-5237D01*
X158835Y-5288D01*
X158851Y-5339D01*
X158874Y-5456D01*
X158890Y-5584D01*
X158897Y-5725D01*
Y-5729D01*
Y-5740D01*
Y-5764D01*
X158894Y-5791D01*
Y-5826D01*
X158890Y-5865D01*
X158886Y-5908D01*
X158878Y-5959D01*
X158859Y-6068D01*
X158831Y-6185D01*
X158792Y-6306D01*
X158738Y-6423D01*
Y-6427D01*
X158730Y-6435D01*
X158722Y-6450D01*
X158710Y-6474D01*
X158691Y-6497D01*
X158671Y-6528D01*
X158624Y-6594D01*
X158562Y-6668D01*
X158484Y-6746D01*
X158394Y-6821D01*
X158293Y-6887D01*
X158289D01*
X158281Y-6895D01*
X158266Y-6903D01*
X158242Y-6910D01*
X158215Y-6922D01*
X158184Y-6938D01*
X158149Y-6949D01*
X158106Y-6965D01*
X158016Y-6992D01*
X157911Y-7019D01*
X157794Y-7035D01*
X157673Y-7043D01*
X157638D01*
X157610Y-7039D01*
X157579D01*
X157544Y-7035D01*
X157501Y-7027D01*
X157455Y-7019D01*
X157357Y-7000D01*
X157248Y-6969D01*
X157135Y-6926D01*
X157080Y-6903D01*
X157026Y-6871D01*
X157022Y-6867D01*
X157014Y-6864D01*
X156998Y-6852D01*
X156979Y-6840D01*
X156955Y-6821D01*
X156928Y-6801D01*
X156866Y-6746D01*
X156795Y-6676D01*
X156721Y-6598D01*
X156655Y-6501D01*
X156593Y-6396D01*
Y-6392D01*
X156585Y-6380D01*
X156581Y-6364D01*
X156569Y-6341D01*
X156558Y-6314D01*
X156546Y-6282D01*
X156534Y-6243D01*
X156522Y-6200D01*
X156507Y-6154D01*
X156495Y-6107D01*
X156472Y-5998D01*
X156456Y-5881D01*
X156448Y-5756D01*
Y-5748D01*
Y-5729D01*
X156452Y-5694D01*
Y-5651D01*
X156460Y-5596D01*
X156468Y-5534D01*
X156476Y-5467D01*
X156491Y-5389D01*
X156511Y-5311D01*
X156530Y-5229D01*
X156558Y-5147D01*
X156593Y-5066D01*
X156632Y-4984D01*
X156675Y-4902D01*
X156729Y-4828D01*
X156788Y-4758D01*
X156791Y-4754D01*
X156803Y-4742D01*
X156823Y-4722D01*
X156850Y-4699D01*
X156885Y-4672D01*
X156924Y-4644D01*
X156971Y-4609D01*
X157026Y-4574D01*
X157088Y-4543D01*
X157154Y-4508D01*
X157228Y-4481D01*
X157306Y-4449D01*
X157388Y-4430D01*
X157478Y-4410D01*
X157575Y-4399D01*
X157673Y-4395D01*
X157708D01*
X157731Y-4399D01*
D02*
G37*
G36*
X154026Y-4442D02*
X154097Y-4445D01*
X154175Y-4453D01*
X154249Y-4465D01*
X154311Y-4477D01*
X154315D01*
X154323Y-4481D01*
X154331D01*
X154346Y-4488D01*
X154389Y-4500D01*
X154440Y-4520D01*
X154498Y-4543D01*
X154561Y-4574D01*
X154623Y-4613D01*
X154685Y-4660D01*
X154689D01*
X154693Y-4668D01*
X154721Y-4691D01*
X154756Y-4730D01*
X154799Y-4781D01*
X154849Y-4843D01*
X154900Y-4917D01*
X154947Y-5003D01*
X154990Y-5101D01*
Y-5105D01*
X154994Y-5112D01*
X154998Y-5128D01*
X155005Y-5147D01*
X155013Y-5171D01*
X155021Y-5202D01*
X155033Y-5237D01*
X155040Y-5276D01*
X155048Y-5319D01*
X155060Y-5366D01*
X155076Y-5467D01*
X155087Y-5580D01*
X155091Y-5705D01*
Y-5709D01*
Y-5717D01*
Y-5733D01*
Y-5756D01*
X155087Y-5779D01*
Y-5810D01*
X155083Y-5881D01*
X155076Y-5959D01*
X155060Y-6048D01*
X155044Y-6138D01*
X155021Y-6224D01*
Y-6228D01*
X155017Y-6236D01*
X155013Y-6247D01*
X155009Y-6263D01*
X154994Y-6302D01*
X154974Y-6357D01*
X154951Y-6415D01*
X154920Y-6477D01*
X154884Y-6540D01*
X154845Y-6598D01*
X154841Y-6606D01*
X154826Y-6622D01*
X154806Y-6649D01*
X154775Y-6684D01*
X154744Y-6719D01*
X154701Y-6758D01*
X154658Y-6797D01*
X154611Y-6832D01*
X154607Y-6836D01*
X154588Y-6844D01*
X154561Y-6860D01*
X154526Y-6879D01*
X154483Y-6899D01*
X154432Y-6918D01*
X154374Y-6938D01*
X154307Y-6957D01*
X154299D01*
X154276Y-6965D01*
X154241Y-6969D01*
X154190Y-6977D01*
X154132Y-6984D01*
X154061Y-6992D01*
X153983Y-6996D01*
X153898Y-7000D01*
X152977D01*
Y-4438D01*
X153960D01*
X154026Y-4442D01*
D02*
G37*
G36*
X151859Y-10800D02*
X151528D01*
X150990Y-8850D01*
Y-8846D01*
X150986Y-8838D01*
X150982Y-8827D01*
X150978Y-8811D01*
X150966Y-8768D01*
X150955Y-8721D01*
X150939Y-8667D01*
X150927Y-8620D01*
X150916Y-8577D01*
X150912Y-8561D01*
X150908Y-8550D01*
Y-8557D01*
X150900Y-8577D01*
X150892Y-8612D01*
X150881Y-8651D01*
X150869Y-8702D01*
X150857Y-8749D01*
X150841Y-8799D01*
X150830Y-8850D01*
X150292Y-10800D01*
X149937D01*
X149266Y-8238D01*
X149613D01*
X149999Y-9922D01*
Y-9926D01*
X150003Y-9934D01*
X150007Y-9950D01*
X150011Y-9965D01*
X150015Y-9993D01*
X150022Y-10020D01*
X150038Y-10086D01*
X150054Y-10164D01*
X150073Y-10254D01*
X150089Y-10348D01*
X150108Y-10445D01*
Y-10441D01*
X150112Y-10426D01*
X150116Y-10406D01*
X150124Y-10379D01*
X150132Y-10348D01*
X150139Y-10312D01*
X150163Y-10231D01*
X150182Y-10149D01*
X150202Y-10071D01*
X150210Y-10040D01*
X150217Y-10008D01*
X150221Y-9985D01*
X150225Y-9969D01*
X150713Y-8238D01*
X151122D01*
X151489Y-9536D01*
Y-9540D01*
X151497Y-9560D01*
X151501Y-9583D01*
X151512Y-9618D01*
X151520Y-9661D01*
X151536Y-9712D01*
X151547Y-9770D01*
X151563Y-9833D01*
X151579Y-9899D01*
X151594Y-9969D01*
X151629Y-10125D01*
X151661Y-10285D01*
X151688Y-10445D01*
Y-10441D01*
X151692Y-10433D01*
Y-10422D01*
X151696Y-10402D01*
X151703Y-10379D01*
X151707Y-10351D01*
X151715Y-10320D01*
X151723Y-10285D01*
X151742Y-10203D01*
X151762Y-10106D01*
X151789Y-10001D01*
X151816Y-9887D01*
X152214Y-8238D01*
X152558D01*
X151859Y-10800D01*
D02*
G37*
G36*
X158427Y-9279D02*
X159550Y-10800D01*
X159102D01*
X158189Y-9509D01*
X157772Y-9911D01*
Y-10800D01*
X157432D01*
Y-8238D01*
X157772D01*
Y-9505D01*
X159043Y-8238D01*
X159503D01*
X158427Y-9279D01*
D02*
G37*
G36*
X154051Y-8199D02*
X154082Y-8203D01*
X154121Y-8207D01*
X154164Y-8210D01*
X154211Y-8218D01*
X154313Y-8242D01*
X154422Y-8277D01*
X154476Y-8300D01*
X154531Y-8327D01*
X154582Y-8359D01*
X154632Y-8394D01*
X154636Y-8398D01*
X154644Y-8401D01*
X154656Y-8413D01*
X154675Y-8429D01*
X154695Y-8448D01*
X154722Y-8476D01*
X154749Y-8503D01*
X154777Y-8534D01*
X154808Y-8573D01*
X154835Y-8612D01*
X154866Y-8659D01*
X154897Y-8710D01*
X154925Y-8760D01*
X154952Y-8819D01*
X154999Y-8944D01*
X154664Y-9022D01*
Y-9018D01*
X154660Y-9010D01*
X154656Y-8994D01*
X154648Y-8975D01*
X154636Y-8951D01*
X154624Y-8924D01*
X154597Y-8866D01*
X154562Y-8799D01*
X154515Y-8729D01*
X154465Y-8667D01*
X154402Y-8612D01*
X154394Y-8608D01*
X154371Y-8593D01*
X154336Y-8573D01*
X154285Y-8546D01*
X154227Y-8522D01*
X154153Y-8503D01*
X154071Y-8487D01*
X153977Y-8483D01*
X153950D01*
X153930Y-8487D01*
X153903D01*
X153876Y-8491D01*
X153805Y-8503D01*
X153727Y-8518D01*
X153646Y-8546D01*
X153564Y-8581D01*
X153486Y-8628D01*
X153482D01*
X153478Y-8636D01*
X153454Y-8655D01*
X153419Y-8686D01*
X153376Y-8729D01*
X153334Y-8784D01*
X153287Y-8846D01*
X153244Y-8924D01*
X153209Y-9010D01*
Y-9014D01*
X153205Y-9022D01*
X153201Y-9033D01*
X153197Y-9053D01*
X153189Y-9072D01*
X153185Y-9100D01*
X153170Y-9162D01*
X153154Y-9236D01*
X153142Y-9318D01*
X153135Y-9408D01*
X153131Y-9501D01*
Y-9505D01*
Y-9517D01*
Y-9533D01*
Y-9556D01*
X153135Y-9583D01*
Y-9618D01*
X153139Y-9653D01*
X153142Y-9692D01*
X153154Y-9782D01*
X153170Y-9880D01*
X153193Y-9977D01*
X153224Y-10071D01*
Y-10075D01*
X153228Y-10082D01*
X153236Y-10094D01*
X153244Y-10110D01*
X153263Y-10157D01*
X153295Y-10207D01*
X153338Y-10270D01*
X153388Y-10328D01*
X153447Y-10387D01*
X153517Y-10437D01*
X153521D01*
X153525Y-10441D01*
X153536Y-10449D01*
X153552Y-10457D01*
X153595Y-10472D01*
X153649Y-10496D01*
X153712Y-10515D01*
X153786Y-10535D01*
X153868Y-10550D01*
X153954Y-10554D01*
X153981D01*
X154000Y-10550D01*
X154024D01*
X154055Y-10547D01*
X154121Y-10535D01*
X154195Y-10515D01*
X154277Y-10484D01*
X154355Y-10445D01*
X154433Y-10390D01*
X154437Y-10387D01*
X154441Y-10383D01*
X154465Y-10359D01*
X154500Y-10320D01*
X154543Y-10270D01*
X154586Y-10199D01*
X154632Y-10118D01*
X154671Y-10016D01*
X154702Y-9903D01*
X155042Y-9989D01*
Y-9993D01*
X155038Y-10008D01*
X155030Y-10028D01*
X155022Y-10059D01*
X155007Y-10090D01*
X154991Y-10133D01*
X154975Y-10176D01*
X154952Y-10223D01*
X154901Y-10328D01*
X154831Y-10433D01*
X154753Y-10535D01*
X154706Y-10582D01*
X154656Y-10625D01*
X154652Y-10628D01*
X154644Y-10632D01*
X154628Y-10644D01*
X154605Y-10660D01*
X154578Y-10675D01*
X154546Y-10695D01*
X154511Y-10714D01*
X154469Y-10734D01*
X154422Y-10753D01*
X154371Y-10773D01*
X154313Y-10792D01*
X154254Y-10808D01*
X154125Y-10835D01*
X154055Y-10839D01*
X153981Y-10843D01*
X153942D01*
X153911Y-10839D01*
X153876D01*
X153837Y-10835D01*
X153790Y-10827D01*
X153743Y-10823D01*
X153634Y-10800D01*
X153521Y-10773D01*
X153412Y-10730D01*
X153357Y-10706D01*
X153306Y-10675D01*
X153302Y-10671D01*
X153295Y-10667D01*
X153283Y-10656D01*
X153263Y-10644D01*
X153217Y-10605D01*
X153162Y-10550D01*
X153096Y-10484D01*
X153033Y-10398D01*
X152967Y-10301D01*
X152912Y-10188D01*
Y-10184D01*
X152909Y-10172D01*
X152901Y-10157D01*
X152893Y-10133D01*
X152881Y-10102D01*
X152869Y-10067D01*
X152858Y-10028D01*
X152846Y-9981D01*
X152834Y-9934D01*
X152823Y-9880D01*
X152799Y-9763D01*
X152784Y-9638D01*
X152780Y-9501D01*
Y-9497D01*
Y-9482D01*
Y-9462D01*
X152784Y-9435D01*
Y-9400D01*
X152788Y-9357D01*
X152792Y-9314D01*
X152799Y-9263D01*
X152819Y-9154D01*
X152842Y-9037D01*
X152881Y-8916D01*
X152932Y-8803D01*
Y-8799D01*
X152940Y-8792D01*
X152947Y-8776D01*
X152959Y-8753D01*
X152975Y-8729D01*
X152994Y-8702D01*
X153045Y-8636D01*
X153103Y-8561D01*
X153178Y-8487D01*
X153267Y-8413D01*
X153365Y-8351D01*
X153369D01*
X153376Y-8343D01*
X153392Y-8335D01*
X153416Y-8327D01*
X153439Y-8316D01*
X153470Y-8300D01*
X153509Y-8288D01*
X153548Y-8273D01*
X153591Y-8257D01*
X153638Y-8246D01*
X153743Y-8218D01*
X153860Y-8203D01*
X153985Y-8195D01*
X154024D01*
X154051Y-8199D01*
D02*
G37*
G36*
X118385Y1586D02*
X119087D01*
Y1289D01*
X118385D01*
Y591D01*
X118092D01*
Y1289D01*
X117394D01*
Y1586D01*
X118092D01*
Y2284D01*
X118385D01*
Y1586D01*
D02*
G37*
G36*
X90949Y-63699D02*
X90981D01*
X91047Y-63706D01*
X91121Y-63718D01*
X91207Y-63734D01*
X91293Y-63757D01*
X91378Y-63788D01*
X91382D01*
X91390Y-63792D01*
X91402Y-63796D01*
X91417Y-63804D01*
X91456Y-63823D01*
X91507Y-63855D01*
X91566Y-63890D01*
X91624Y-63933D01*
X91683Y-63980D01*
X91733Y-64038D01*
X91737Y-64046D01*
X91753Y-64065D01*
X91776Y-64100D01*
X91807Y-64151D01*
X91839Y-64210D01*
X91870Y-64280D01*
X91901Y-64362D01*
X91928Y-64455D01*
X91620Y-64541D01*
Y-64537D01*
X91616Y-64533D01*
X91612Y-64510D01*
X91597Y-64475D01*
X91581Y-64428D01*
X91562Y-64381D01*
X91538Y-64331D01*
X91511Y-64280D01*
X91480Y-64233D01*
X91476Y-64229D01*
X91464Y-64214D01*
X91445Y-64194D01*
X91417Y-64167D01*
X91382Y-64139D01*
X91339Y-64108D01*
X91293Y-64081D01*
X91234Y-64054D01*
X91226Y-64050D01*
X91207Y-64042D01*
X91172Y-64030D01*
X91129Y-64018D01*
X91078Y-64007D01*
X91020Y-63995D01*
X90953Y-63987D01*
X90883Y-63983D01*
X90844D01*
X90801Y-63987D01*
X90747Y-63991D01*
X90684Y-64003D01*
X90614Y-64015D01*
X90548Y-64034D01*
X90481Y-64057D01*
X90474Y-64061D01*
X90454Y-64069D01*
X90423Y-64085D01*
X90384Y-64108D01*
X90341Y-64135D01*
X90294Y-64167D01*
X90251Y-64202D01*
X90208Y-64245D01*
X90205Y-64249D01*
X90193Y-64264D01*
X90173Y-64288D01*
X90150Y-64319D01*
X90123Y-64358D01*
X90095Y-64401D01*
X90072Y-64447D01*
X90048Y-64498D01*
Y-64502D01*
X90045Y-64510D01*
X90041Y-64522D01*
X90033Y-64541D01*
X90025Y-64561D01*
X90017Y-64588D01*
X90002Y-64650D01*
X89982Y-64728D01*
X89967Y-64814D01*
X89955Y-64912D01*
X89951Y-65013D01*
Y-65017D01*
Y-65029D01*
Y-65044D01*
X89955Y-65071D01*
Y-65099D01*
X89959Y-65134D01*
X89963Y-65173D01*
X89967Y-65212D01*
X89978Y-65306D01*
X90002Y-65403D01*
X90029Y-65497D01*
X90068Y-65590D01*
Y-65594D01*
X90072Y-65602D01*
X90080Y-65614D01*
X90091Y-65629D01*
X90119Y-65668D01*
X90154Y-65719D01*
X90201Y-65773D01*
X90259Y-65832D01*
X90329Y-65887D01*
X90407Y-65933D01*
X90411D01*
X90419Y-65937D01*
X90431Y-65945D01*
X90446Y-65949D01*
X90466Y-65957D01*
X90493Y-65969D01*
X90552Y-65988D01*
X90626Y-66008D01*
X90704Y-66027D01*
X90793Y-66039D01*
X90887Y-66043D01*
X90926D01*
X90969Y-66039D01*
X91023Y-66031D01*
X91086Y-66023D01*
X91160Y-66008D01*
X91238Y-65988D01*
X91316Y-65961D01*
X91320D01*
X91324Y-65957D01*
X91335Y-65953D01*
X91351Y-65945D01*
X91390Y-65930D01*
X91437Y-65906D01*
X91488Y-65879D01*
X91538Y-65848D01*
X91589Y-65812D01*
X91636Y-65777D01*
Y-65294D01*
X90883D01*
Y-64994D01*
X91967D01*
Y-65945D01*
X91963Y-65949D01*
X91956Y-65953D01*
X91944Y-65965D01*
X91924Y-65976D01*
X91901Y-65996D01*
X91874Y-66011D01*
X91807Y-66058D01*
X91729Y-66105D01*
X91644Y-66156D01*
X91546Y-66202D01*
X91449Y-66245D01*
X91445D01*
X91437Y-66249D01*
X91421Y-66253D01*
X91402Y-66261D01*
X91378Y-66269D01*
X91351Y-66277D01*
X91316Y-66284D01*
X91281Y-66292D01*
X91199Y-66312D01*
X91109Y-66327D01*
X91008Y-66339D01*
X90907Y-66343D01*
X90871D01*
X90844Y-66339D01*
X90809D01*
X90770Y-66335D01*
X90727Y-66331D01*
X90680Y-66323D01*
X90571Y-66304D01*
X90458Y-66277D01*
X90337Y-66238D01*
X90220Y-66183D01*
X90216Y-66179D01*
X90208Y-66175D01*
X90189Y-66167D01*
X90169Y-66152D01*
X90142Y-66136D01*
X90115Y-66117D01*
X90048Y-66066D01*
X89970Y-66000D01*
X89896Y-65918D01*
X89822Y-65824D01*
X89756Y-65719D01*
Y-65715D01*
X89748Y-65703D01*
X89740Y-65688D01*
X89733Y-65664D01*
X89721Y-65637D01*
X89705Y-65602D01*
X89694Y-65563D01*
X89678Y-65516D01*
X89662Y-65469D01*
X89651Y-65415D01*
X89623Y-65298D01*
X89608Y-65169D01*
X89600Y-65033D01*
Y-65029D01*
Y-65017D01*
Y-64997D01*
X89604Y-64970D01*
Y-64935D01*
X89608Y-64896D01*
X89612Y-64853D01*
X89619Y-64806D01*
X89639Y-64697D01*
X89666Y-64580D01*
X89705Y-64455D01*
X89756Y-64334D01*
Y-64331D01*
X89764Y-64319D01*
X89772Y-64303D01*
X89783Y-64280D01*
X89803Y-64253D01*
X89822Y-64225D01*
X89869Y-64151D01*
X89935Y-64073D01*
X90009Y-63995D01*
X90103Y-63921D01*
X90150Y-63886D01*
X90205Y-63855D01*
X90208D01*
X90216Y-63847D01*
X90236Y-63839D01*
X90255Y-63831D01*
X90282Y-63816D01*
X90318Y-63804D01*
X90357Y-63788D01*
X90399Y-63773D01*
X90446Y-63761D01*
X90497Y-63745D01*
X90614Y-63718D01*
X90739Y-63703D01*
X90879Y-63695D01*
X90926D01*
X90949Y-63699D01*
D02*
G37*
G36*
X95938Y-66100D02*
X95591D01*
X94596Y-63538D01*
X94967D01*
X95630Y-65398D01*
Y-65402D01*
X95634Y-65410D01*
X95637Y-65421D01*
X95645Y-65437D01*
X95657Y-65480D01*
X95676Y-65535D01*
X95700Y-65601D01*
X95723Y-65671D01*
X95766Y-65819D01*
Y-65815D01*
X95770Y-65811D01*
X95774Y-65800D01*
X95778Y-65784D01*
X95789Y-65741D01*
X95805Y-65687D01*
X95825Y-65624D01*
X95848Y-65554D01*
X95875Y-65476D01*
X95903Y-65398D01*
X96597Y-63538D01*
X96940D01*
X95938Y-66100D01*
D02*
G37*
G36*
X118825Y-4369D02*
X118868Y-4373D01*
X118919Y-4385D01*
X118977Y-4397D01*
X119036Y-4416D01*
X119094Y-4444D01*
X119102Y-4448D01*
X119122Y-4455D01*
X119149Y-4475D01*
X119184Y-4494D01*
X119223Y-4522D01*
X119262Y-4553D01*
X119301Y-4592D01*
X119336Y-4631D01*
X119340Y-4635D01*
X119348Y-4650D01*
X119363Y-4674D01*
X119383Y-4709D01*
X119403Y-4748D01*
X119422Y-4798D01*
X119441Y-4853D01*
X119461Y-4912D01*
Y-4919D01*
X119469Y-4943D01*
X119473Y-4978D01*
X119481Y-5025D01*
X119488Y-5087D01*
X119492Y-5157D01*
X119500Y-5235D01*
Y-5325D01*
Y-6300D01*
X116938D01*
Y-5341D01*
Y-5337D01*
Y-5329D01*
Y-5313D01*
Y-5294D01*
X116942Y-5266D01*
Y-5239D01*
X116946Y-5173D01*
X116957Y-5099D01*
X116969Y-5021D01*
X116988Y-4943D01*
X117016Y-4873D01*
Y-4869D01*
X117020Y-4865D01*
X117031Y-4841D01*
X117051Y-4810D01*
X117074Y-4771D01*
X117109Y-4724D01*
X117152Y-4678D01*
X117199Y-4635D01*
X117257Y-4592D01*
X117265Y-4588D01*
X117285Y-4576D01*
X117320Y-4561D01*
X117363Y-4541D01*
X117413Y-4522D01*
X117468Y-4506D01*
X117531Y-4494D01*
X117597Y-4490D01*
X117624D01*
X117655Y-4494D01*
X117698Y-4502D01*
X117745Y-4514D01*
X117796Y-4529D01*
X117854Y-4549D01*
X117909Y-4580D01*
X117917Y-4584D01*
X117932Y-4596D01*
X117959Y-4619D01*
X117991Y-4646D01*
X118030Y-4685D01*
X118065Y-4732D01*
X118104Y-4787D01*
X118139Y-4853D01*
Y-4849D01*
X118143Y-4841D01*
X118147Y-4830D01*
X118151Y-4814D01*
X118170Y-4771D01*
X118193Y-4721D01*
X118229Y-4662D01*
X118268Y-4603D01*
X118314Y-4545D01*
X118373Y-4494D01*
X118381Y-4490D01*
X118400Y-4475D01*
X118435Y-4455D01*
X118482Y-4428D01*
X118541Y-4405D01*
X118603Y-4385D01*
X118677Y-4369D01*
X118759Y-4366D01*
X118790D01*
X118825Y-4369D01*
D02*
G37*
G36*
X119500Y-2170D02*
X118724Y-2466D01*
Y-3543D01*
X119500Y-3820D01*
Y-4178D01*
X116938Y-3199D01*
Y-2829D01*
X119500Y-1788D01*
Y-2170D01*
D02*
G37*
G36*
X117238Y-520D02*
X119500D01*
Y-860D01*
X117238D01*
Y-1702D01*
X116938D01*
Y322D01*
X117238D01*
Y-520D01*
D02*
G37*
G36*
X74856Y-63630D02*
X74887Y-63634D01*
X74922Y-63638D01*
X74961Y-63642D01*
X75004Y-63653D01*
X75097Y-63677D01*
X75195Y-63712D01*
X75245Y-63735D01*
X75292Y-63762D01*
X75335Y-63798D01*
X75378Y-63833D01*
X75382Y-63837D01*
X75386Y-63841D01*
X75398Y-63852D01*
X75413Y-63868D01*
X75429Y-63891D01*
X75448Y-63915D01*
X75487Y-63973D01*
X75526Y-64047D01*
X75561Y-64133D01*
X75589Y-64231D01*
X75593Y-64285D01*
X75596Y-64340D01*
Y-64347D01*
Y-64367D01*
X75593Y-64398D01*
X75589Y-64437D01*
X75581Y-64484D01*
X75569Y-64535D01*
X75554Y-64589D01*
X75530Y-64644D01*
X75526Y-64652D01*
X75519Y-64671D01*
X75503Y-64698D01*
X75480Y-64737D01*
X75452Y-64784D01*
X75417Y-64839D01*
X75370Y-64894D01*
X75320Y-64956D01*
X75312Y-64964D01*
X75292Y-64987D01*
X75257Y-65022D01*
X75234Y-65046D01*
X75207Y-65073D01*
X75175Y-65104D01*
X75136Y-65139D01*
X75097Y-65174D01*
X75054Y-65217D01*
X75008Y-65260D01*
X74953Y-65307D01*
X74898Y-65354D01*
X74836Y-65408D01*
X74832Y-65412D01*
X74824Y-65420D01*
X74809Y-65432D01*
X74789Y-65447D01*
X74742Y-65486D01*
X74684Y-65537D01*
X74625Y-65592D01*
X74563Y-65646D01*
X74512Y-65693D01*
X74493Y-65712D01*
X74473Y-65732D01*
X74469Y-65736D01*
X74462Y-65748D01*
X74446Y-65763D01*
X74427Y-65787D01*
X74384Y-65837D01*
X74341Y-65900D01*
X75600D01*
Y-66200D01*
X73904D01*
Y-66196D01*
Y-66180D01*
Y-66157D01*
X73908Y-66130D01*
X73912Y-66099D01*
X73916Y-66063D01*
X73927Y-66025D01*
X73939Y-65986D01*
Y-65982D01*
X73943Y-65978D01*
X73951Y-65954D01*
X73966Y-65923D01*
X73990Y-65876D01*
X74017Y-65826D01*
X74056Y-65767D01*
X74095Y-65709D01*
X74146Y-65646D01*
Y-65642D01*
X74154Y-65638D01*
X74173Y-65615D01*
X74204Y-65580D01*
X74251Y-65533D01*
X74309Y-65478D01*
X74380Y-65412D01*
X74466Y-65338D01*
X74559Y-65256D01*
X74563Y-65252D01*
X74579Y-65241D01*
X74598Y-65225D01*
X74625Y-65198D01*
X74660Y-65170D01*
X74699Y-65135D01*
X74785Y-65061D01*
X74879Y-64972D01*
X74972Y-64882D01*
X75019Y-64839D01*
X75058Y-64796D01*
X75093Y-64753D01*
X75125Y-64714D01*
Y-64710D01*
X75132Y-64706D01*
X75140Y-64695D01*
X75148Y-64679D01*
X75171Y-64640D01*
X75199Y-64589D01*
X75226Y-64531D01*
X75249Y-64468D01*
X75265Y-64398D01*
X75273Y-64332D01*
Y-64328D01*
Y-64324D01*
X75269Y-64301D01*
X75265Y-64266D01*
X75257Y-64223D01*
X75238Y-64172D01*
X75214Y-64121D01*
X75183Y-64067D01*
X75136Y-64016D01*
X75129Y-64012D01*
X75113Y-63996D01*
X75082Y-63977D01*
X75043Y-63950D01*
X74992Y-63926D01*
X74933Y-63907D01*
X74863Y-63891D01*
X74785Y-63887D01*
X74762D01*
X74746Y-63891D01*
X74707Y-63895D01*
X74657Y-63903D01*
X74598Y-63922D01*
X74536Y-63946D01*
X74477Y-63981D01*
X74423Y-64028D01*
X74419Y-64035D01*
X74403Y-64051D01*
X74380Y-64082D01*
X74356Y-64125D01*
X74329Y-64180D01*
X74309Y-64242D01*
X74294Y-64316D01*
X74286Y-64402D01*
X73962Y-64367D01*
Y-64363D01*
Y-64351D01*
X73966Y-64332D01*
X73970Y-64309D01*
X73978Y-64277D01*
X73982Y-64242D01*
X74005Y-64164D01*
X74037Y-64074D01*
X74079Y-63985D01*
X74138Y-63895D01*
X74169Y-63856D01*
X74208Y-63817D01*
X74212Y-63813D01*
X74220Y-63809D01*
X74231Y-63798D01*
X74247Y-63786D01*
X74270Y-63774D01*
X74298Y-63755D01*
X74329Y-63739D01*
X74364Y-63720D01*
X74403Y-63704D01*
X74446Y-63684D01*
X74497Y-63669D01*
X74547Y-63657D01*
X74664Y-63634D01*
X74727Y-63630D01*
X74793Y-63626D01*
X74828D01*
X74856Y-63630D01*
D02*
G37*
G36*
X69944Y-66200D02*
X69628D01*
Y-64195D01*
X69624Y-64199D01*
X69608Y-64215D01*
X69581Y-64234D01*
X69546Y-64262D01*
X69503Y-64297D01*
X69452Y-64332D01*
X69394Y-64375D01*
X69328Y-64414D01*
X69324D01*
X69320Y-64418D01*
X69296Y-64433D01*
X69261Y-64453D01*
X69218Y-64476D01*
X69168Y-64504D01*
X69113Y-64527D01*
X69055Y-64554D01*
X69000Y-64578D01*
Y-64270D01*
X69004D01*
X69012Y-64266D01*
X69027Y-64258D01*
X69043Y-64246D01*
X69066Y-64234D01*
X69094Y-64223D01*
X69156Y-64188D01*
X69226Y-64145D01*
X69304Y-64094D01*
X69382Y-64035D01*
X69456Y-63973D01*
X69460Y-63969D01*
X69464Y-63965D01*
X69488Y-63942D01*
X69523Y-63907D01*
X69565Y-63864D01*
X69612Y-63809D01*
X69659Y-63751D01*
X69702Y-63688D01*
X69737Y-63626D01*
X69944D01*
Y-66200D01*
D02*
G37*
G36*
X71593Y-63630D02*
X71613D01*
X71640Y-63634D01*
X71703Y-63642D01*
X71773Y-63661D01*
X71847Y-63684D01*
X71929Y-63716D01*
X72007Y-63762D01*
X72011D01*
X72015Y-63770D01*
X72026Y-63778D01*
X72042Y-63786D01*
X72077Y-63817D01*
X72124Y-63860D01*
X72175Y-63919D01*
X72229Y-63981D01*
X72280Y-64059D01*
X72323Y-64149D01*
Y-64152D01*
X72327Y-64160D01*
X72334Y-64176D01*
X72338Y-64195D01*
X72350Y-64219D01*
X72358Y-64250D01*
X72366Y-64289D01*
X72377Y-64332D01*
X72389Y-64379D01*
X72397Y-64433D01*
X72409Y-64492D01*
X72416Y-64554D01*
X72420Y-64624D01*
X72428Y-64698D01*
X72432Y-64780D01*
Y-64866D01*
Y-64870D01*
Y-64890D01*
Y-64913D01*
Y-64948D01*
X72428Y-64987D01*
Y-65038D01*
X72424Y-65088D01*
X72420Y-65147D01*
X72405Y-65272D01*
X72385Y-65404D01*
X72358Y-65533D01*
X72342Y-65592D01*
X72323Y-65650D01*
Y-65654D01*
X72319Y-65662D01*
X72311Y-65677D01*
X72303Y-65697D01*
X72292Y-65724D01*
X72280Y-65751D01*
X72245Y-65814D01*
X72198Y-65888D01*
X72143Y-65962D01*
X72081Y-66032D01*
X72007Y-66095D01*
X72003D01*
X71999Y-66102D01*
X71987Y-66106D01*
X71968Y-66118D01*
X71948Y-66130D01*
X71925Y-66141D01*
X71867Y-66169D01*
X71792Y-66196D01*
X71710Y-66220D01*
X71613Y-66235D01*
X71512Y-66243D01*
X71484D01*
X71461Y-66239D01*
X71438D01*
X71406Y-66235D01*
X71336Y-66223D01*
X71258Y-66204D01*
X71176Y-66173D01*
X71098Y-66134D01*
X71020Y-66079D01*
X71016Y-66075D01*
X71012Y-66071D01*
X70989Y-66048D01*
X70958Y-66009D01*
X70919Y-65958D01*
X70880Y-65892D01*
X70845Y-65810D01*
X70814Y-65716D01*
X70794Y-65607D01*
X71094Y-65584D01*
Y-65588D01*
Y-65592D01*
X71098Y-65603D01*
X71102Y-65619D01*
X71110Y-65658D01*
X71126Y-65701D01*
X71145Y-65751D01*
X71168Y-65802D01*
X71200Y-65853D01*
X71239Y-65892D01*
X71242Y-65896D01*
X71258Y-65908D01*
X71281Y-65923D01*
X71317Y-65939D01*
X71356Y-65954D01*
X71402Y-65970D01*
X71457Y-65982D01*
X71519Y-65986D01*
X71543D01*
X71570Y-65982D01*
X71605Y-65978D01*
X71644Y-65970D01*
X71687Y-65958D01*
X71730Y-65943D01*
X71773Y-65919D01*
X71777Y-65915D01*
X71792Y-65908D01*
X71812Y-65892D01*
X71835Y-65872D01*
X71867Y-65849D01*
X71894Y-65818D01*
X71925Y-65783D01*
X71952Y-65744D01*
X71956Y-65740D01*
X71964Y-65724D01*
X71976Y-65697D01*
X71995Y-65662D01*
X72011Y-65619D01*
X72030Y-65568D01*
X72050Y-65510D01*
X72069Y-65443D01*
Y-65439D01*
X72073Y-65436D01*
Y-65424D01*
X72077Y-65412D01*
X72085Y-65373D01*
X72093Y-65323D01*
X72101Y-65264D01*
X72108Y-65202D01*
X72116Y-65131D01*
Y-65057D01*
Y-65053D01*
Y-65042D01*
Y-65022D01*
Y-64995D01*
X72112Y-65003D01*
X72097Y-65018D01*
X72077Y-65049D01*
X72046Y-65081D01*
X72011Y-65120D01*
X71964Y-65163D01*
X71913Y-65202D01*
X71855Y-65241D01*
X71847Y-65245D01*
X71828Y-65256D01*
X71792Y-65268D01*
X71750Y-65284D01*
X71699Y-65303D01*
X71640Y-65315D01*
X71574Y-65326D01*
X71504Y-65330D01*
X71473D01*
X71449Y-65326D01*
X71422Y-65323D01*
X71391Y-65319D01*
X71317Y-65303D01*
X71231Y-65276D01*
X71188Y-65256D01*
X71141Y-65233D01*
X71098Y-65206D01*
X71051Y-65174D01*
X71008Y-65139D01*
X70966Y-65100D01*
X70962Y-65096D01*
X70958Y-65088D01*
X70946Y-65077D01*
X70930Y-65057D01*
X70915Y-65034D01*
X70895Y-65007D01*
X70876Y-64975D01*
X70856Y-64936D01*
X70837Y-64897D01*
X70817Y-64851D01*
X70798Y-64800D01*
X70782Y-64745D01*
X70767Y-64687D01*
X70755Y-64628D01*
X70751Y-64562D01*
X70747Y-64492D01*
Y-64488D01*
Y-64476D01*
Y-64453D01*
X70751Y-64425D01*
X70755Y-64394D01*
X70759Y-64355D01*
X70767Y-64312D01*
X70775Y-64266D01*
X70802Y-64168D01*
X70821Y-64113D01*
X70845Y-64063D01*
X70868Y-64008D01*
X70899Y-63958D01*
X70934Y-63911D01*
X70973Y-63864D01*
X70977Y-63860D01*
X70985Y-63852D01*
X70997Y-63841D01*
X71016Y-63825D01*
X71036Y-63809D01*
X71063Y-63790D01*
X71094Y-63766D01*
X71133Y-63743D01*
X71172Y-63723D01*
X71215Y-63700D01*
X71313Y-63661D01*
X71367Y-63649D01*
X71426Y-63638D01*
X71488Y-63630D01*
X71551Y-63626D01*
X71574D01*
X71593Y-63630D01*
D02*
G37*
G36*
X85971Y-63699D02*
X86003Y-63703D01*
X86042Y-63706D01*
X86085Y-63710D01*
X86131Y-63718D01*
X86233Y-63742D01*
X86342Y-63777D01*
X86396Y-63800D01*
X86451Y-63827D01*
X86502Y-63859D01*
X86553Y-63894D01*
X86556Y-63898D01*
X86564Y-63902D01*
X86576Y-63913D01*
X86595Y-63929D01*
X86615Y-63948D01*
X86642Y-63976D01*
X86669Y-64003D01*
X86697Y-64034D01*
X86728Y-64073D01*
X86755Y-64112D01*
X86787Y-64159D01*
X86818Y-64210D01*
X86845Y-64260D01*
X86872Y-64319D01*
X86919Y-64444D01*
X86584Y-64522D01*
Y-64518D01*
X86580Y-64510D01*
X86576Y-64494D01*
X86568Y-64475D01*
X86556Y-64451D01*
X86545Y-64424D01*
X86517Y-64366D01*
X86482Y-64299D01*
X86436Y-64229D01*
X86385Y-64167D01*
X86322Y-64112D01*
X86315Y-64108D01*
X86291Y-64093D01*
X86256Y-64073D01*
X86205Y-64046D01*
X86147Y-64022D01*
X86073Y-64003D01*
X85991Y-63987D01*
X85897Y-63983D01*
X85870D01*
X85851Y-63987D01*
X85823D01*
X85796Y-63991D01*
X85726Y-64003D01*
X85648Y-64018D01*
X85566Y-64046D01*
X85484Y-64081D01*
X85406Y-64128D01*
X85402D01*
X85398Y-64135D01*
X85375Y-64155D01*
X85340Y-64186D01*
X85297Y-64229D01*
X85254Y-64284D01*
X85207Y-64346D01*
X85164Y-64424D01*
X85129Y-64510D01*
Y-64514D01*
X85125Y-64522D01*
X85121Y-64533D01*
X85117Y-64553D01*
X85110Y-64572D01*
X85106Y-64600D01*
X85090Y-64662D01*
X85074Y-64736D01*
X85063Y-64818D01*
X85055Y-64908D01*
X85051Y-65001D01*
Y-65005D01*
Y-65017D01*
Y-65033D01*
Y-65056D01*
X85055Y-65083D01*
Y-65118D01*
X85059Y-65153D01*
X85063Y-65192D01*
X85074Y-65282D01*
X85090Y-65380D01*
X85113Y-65477D01*
X85145Y-65571D01*
Y-65575D01*
X85149Y-65582D01*
X85156Y-65594D01*
X85164Y-65610D01*
X85184Y-65657D01*
X85215Y-65707D01*
X85258Y-65770D01*
X85308Y-65828D01*
X85367Y-65887D01*
X85437Y-65937D01*
X85441D01*
X85445Y-65941D01*
X85457Y-65949D01*
X85472Y-65957D01*
X85515Y-65972D01*
X85570Y-65996D01*
X85632Y-66015D01*
X85706Y-66035D01*
X85788Y-66050D01*
X85874Y-66054D01*
X85901D01*
X85921Y-66050D01*
X85944D01*
X85975Y-66047D01*
X86042Y-66035D01*
X86116Y-66015D01*
X86198Y-65984D01*
X86276Y-65945D01*
X86354Y-65891D01*
X86357Y-65887D01*
X86361Y-65883D01*
X86385Y-65859D01*
X86420Y-65820D01*
X86463Y-65770D01*
X86506Y-65699D01*
X86553Y-65618D01*
X86592Y-65516D01*
X86623Y-65403D01*
X86962Y-65489D01*
Y-65493D01*
X86958Y-65508D01*
X86950Y-65528D01*
X86942Y-65559D01*
X86927Y-65590D01*
X86911Y-65633D01*
X86896Y-65676D01*
X86872Y-65723D01*
X86822Y-65828D01*
X86751Y-65933D01*
X86673Y-66035D01*
X86627Y-66082D01*
X86576Y-66124D01*
X86572Y-66128D01*
X86564Y-66132D01*
X86549Y-66144D01*
X86525Y-66160D01*
X86498Y-66175D01*
X86467Y-66195D01*
X86432Y-66214D01*
X86389Y-66234D01*
X86342Y-66253D01*
X86291Y-66273D01*
X86233Y-66292D01*
X86174Y-66308D01*
X86045Y-66335D01*
X85975Y-66339D01*
X85901Y-66343D01*
X85862D01*
X85831Y-66339D01*
X85796D01*
X85757Y-66335D01*
X85710Y-66327D01*
X85663Y-66323D01*
X85554Y-66300D01*
X85441Y-66273D01*
X85332Y-66230D01*
X85277Y-66206D01*
X85227Y-66175D01*
X85223Y-66171D01*
X85215Y-66167D01*
X85203Y-66156D01*
X85184Y-66144D01*
X85137Y-66105D01*
X85082Y-66050D01*
X85016Y-65984D01*
X84953Y-65898D01*
X84887Y-65801D01*
X84833Y-65688D01*
Y-65684D01*
X84829Y-65672D01*
X84821Y-65657D01*
X84813Y-65633D01*
X84801Y-65602D01*
X84790Y-65567D01*
X84778Y-65528D01*
X84766Y-65481D01*
X84755Y-65434D01*
X84743Y-65380D01*
X84720Y-65263D01*
X84704Y-65138D01*
X84700Y-65001D01*
Y-64997D01*
Y-64982D01*
Y-64962D01*
X84704Y-64935D01*
Y-64900D01*
X84708Y-64857D01*
X84712Y-64814D01*
X84720Y-64763D01*
X84739Y-64654D01*
X84762Y-64537D01*
X84801Y-64416D01*
X84852Y-64303D01*
Y-64299D01*
X84860Y-64292D01*
X84868Y-64276D01*
X84879Y-64253D01*
X84895Y-64229D01*
X84914Y-64202D01*
X84965Y-64135D01*
X85024Y-64061D01*
X85098Y-63987D01*
X85188Y-63913D01*
X85285Y-63851D01*
X85289D01*
X85297Y-63843D01*
X85312Y-63835D01*
X85336Y-63827D01*
X85359Y-63816D01*
X85390Y-63800D01*
X85429Y-63788D01*
X85468Y-63773D01*
X85511Y-63757D01*
X85558Y-63745D01*
X85663Y-63718D01*
X85780Y-63703D01*
X85905Y-63695D01*
X85944D01*
X85971Y-63699D01*
D02*
G37*
G36*
X80749Y-63742D02*
X80819Y-63745D01*
X80897Y-63753D01*
X80971Y-63765D01*
X81034Y-63777D01*
X81038D01*
X81046Y-63781D01*
X81053D01*
X81069Y-63788D01*
X81112Y-63800D01*
X81163Y-63820D01*
X81221Y-63843D01*
X81283Y-63874D01*
X81346Y-63913D01*
X81408Y-63960D01*
X81412D01*
X81416Y-63968D01*
X81443Y-63991D01*
X81478Y-64030D01*
X81521Y-64081D01*
X81572Y-64143D01*
X81623Y-64217D01*
X81669Y-64303D01*
X81712Y-64401D01*
Y-64405D01*
X81716Y-64412D01*
X81720Y-64428D01*
X81728Y-64447D01*
X81736Y-64471D01*
X81744Y-64502D01*
X81755Y-64537D01*
X81763Y-64576D01*
X81771Y-64619D01*
X81783Y-64666D01*
X81798Y-64767D01*
X81810Y-64880D01*
X81814Y-65005D01*
Y-65009D01*
Y-65017D01*
Y-65033D01*
Y-65056D01*
X81810Y-65079D01*
Y-65110D01*
X81806Y-65181D01*
X81798Y-65259D01*
X81783Y-65348D01*
X81767Y-65438D01*
X81744Y-65524D01*
Y-65528D01*
X81740Y-65536D01*
X81736Y-65547D01*
X81732Y-65563D01*
X81716Y-65602D01*
X81697Y-65657D01*
X81673Y-65715D01*
X81642Y-65777D01*
X81607Y-65840D01*
X81568Y-65898D01*
X81564Y-65906D01*
X81549Y-65922D01*
X81529Y-65949D01*
X81498Y-65984D01*
X81467Y-66019D01*
X81424Y-66058D01*
X81381Y-66097D01*
X81334Y-66132D01*
X81330Y-66136D01*
X81311Y-66144D01*
X81283Y-66160D01*
X81248Y-66179D01*
X81205Y-66199D01*
X81155Y-66218D01*
X81096Y-66238D01*
X81030Y-66257D01*
X81022D01*
X80999Y-66265D01*
X80964Y-66269D01*
X80913Y-66277D01*
X80854Y-66284D01*
X80784Y-66292D01*
X80706Y-66296D01*
X80620Y-66300D01*
X79700D01*
Y-63738D01*
X80683D01*
X80749Y-63742D01*
D02*
G37*
G36*
X76845Y-63630D02*
X76891Y-63638D01*
X76946Y-63645D01*
X77008Y-63661D01*
X77071Y-63684D01*
X77129Y-63712D01*
X77137Y-63716D01*
X77157Y-63727D01*
X77184Y-63747D01*
X77223Y-63770D01*
X77262Y-63805D01*
X77305Y-63848D01*
X77348Y-63895D01*
X77387Y-63950D01*
X77390Y-63958D01*
X77402Y-63977D01*
X77422Y-64012D01*
X77445Y-64055D01*
X77469Y-64110D01*
X77496Y-64176D01*
X77523Y-64250D01*
X77547Y-64332D01*
Y-64336D01*
X77550Y-64344D01*
Y-64355D01*
X77554Y-64375D01*
X77562Y-64394D01*
X77566Y-64422D01*
X77570Y-64457D01*
X77578Y-64492D01*
X77582Y-64535D01*
X77586Y-64578D01*
X77593Y-64628D01*
X77597Y-64683D01*
X77601Y-64741D01*
Y-64800D01*
X77605Y-64936D01*
Y-64940D01*
Y-64956D01*
Y-64979D01*
Y-65010D01*
X77601Y-65049D01*
Y-65092D01*
X77597Y-65143D01*
X77593Y-65198D01*
X77582Y-65315D01*
X77566Y-65436D01*
X77543Y-65557D01*
X77527Y-65611D01*
X77511Y-65666D01*
Y-65670D01*
X77508Y-65677D01*
X77504Y-65693D01*
X77496Y-65712D01*
X77484Y-65736D01*
X77472Y-65759D01*
X77441Y-65822D01*
X77402Y-65892D01*
X77355Y-65962D01*
X77301Y-66032D01*
X77235Y-66095D01*
X77231D01*
X77227Y-66102D01*
X77215Y-66106D01*
X77203Y-66118D01*
X77160Y-66141D01*
X77110Y-66169D01*
X77039Y-66196D01*
X76961Y-66220D01*
X76872Y-66235D01*
X76770Y-66243D01*
X76735D01*
X76708Y-66239D01*
X76677Y-66235D01*
X76642Y-66227D01*
X76603Y-66220D01*
X76560Y-66212D01*
X76466Y-66180D01*
X76415Y-66157D01*
X76369Y-66134D01*
X76318Y-66102D01*
X76271Y-66067D01*
X76228Y-66028D01*
X76185Y-65982D01*
X76182Y-65978D01*
X76174Y-65966D01*
X76162Y-65947D01*
X76146Y-65919D01*
X76127Y-65884D01*
X76107Y-65841D01*
X76084Y-65790D01*
X76061Y-65728D01*
X76037Y-65662D01*
X76014Y-65584D01*
X75994Y-65498D01*
X75975Y-65404D01*
X75959Y-65299D01*
X75947Y-65190D01*
X75940Y-65065D01*
X75936Y-64936D01*
Y-64933D01*
Y-64917D01*
Y-64894D01*
Y-64862D01*
X75940Y-64823D01*
Y-64780D01*
X75944Y-64730D01*
X75947Y-64675D01*
X75959Y-64558D01*
X75975Y-64437D01*
X75994Y-64316D01*
X76010Y-64262D01*
X76025Y-64207D01*
Y-64203D01*
X76029Y-64195D01*
X76037Y-64180D01*
X76045Y-64160D01*
X76053Y-64137D01*
X76064Y-64110D01*
X76096Y-64047D01*
X76135Y-63977D01*
X76182Y-63907D01*
X76236Y-63841D01*
X76302Y-63778D01*
X76306D01*
X76310Y-63770D01*
X76322Y-63762D01*
X76337Y-63755D01*
X76376Y-63731D01*
X76431Y-63700D01*
X76497Y-63673D01*
X76579Y-63649D01*
X76669Y-63634D01*
X76770Y-63626D01*
X76806D01*
X76845Y-63630D01*
D02*
G37*
G36*
X118517Y-26985D02*
X118552D01*
X118595Y-26989D01*
X118642Y-26993D01*
X118739Y-27005D01*
X118841Y-27020D01*
X118942Y-27040D01*
X119032Y-27071D01*
X119036D01*
X119044Y-27075D01*
X119055Y-27079D01*
X119071Y-27087D01*
X119110Y-27110D01*
X119165Y-27141D01*
X119223Y-27184D01*
X119286Y-27239D01*
X119344Y-27309D01*
X119403Y-27387D01*
Y-27391D01*
X119410Y-27399D01*
X119414Y-27410D01*
X119426Y-27430D01*
X119434Y-27449D01*
X119445Y-27477D01*
X119461Y-27512D01*
X119473Y-27547D01*
X119484Y-27586D01*
X119500Y-27633D01*
X119512Y-27679D01*
X119519Y-27734D01*
X119535Y-27851D01*
X119543Y-27984D01*
Y-27988D01*
Y-27999D01*
Y-28019D01*
X119539Y-28042D01*
Y-28073D01*
X119535Y-28108D01*
X119531Y-28147D01*
X119527Y-28190D01*
X119512Y-28284D01*
X119492Y-28381D01*
X119461Y-28483D01*
X119422Y-28572D01*
Y-28576D01*
X119414Y-28584D01*
X119410Y-28592D01*
X119399Y-28608D01*
X119371Y-28651D01*
X119328Y-28697D01*
X119278Y-28752D01*
X119219Y-28803D01*
X119145Y-28853D01*
X119063Y-28896D01*
X119059D01*
X119052Y-28900D01*
X119040Y-28904D01*
X119020Y-28912D01*
X118997Y-28920D01*
X118966Y-28927D01*
X118931Y-28935D01*
X118892Y-28943D01*
X118849Y-28955D01*
X118802Y-28962D01*
X118747Y-28970D01*
X118693Y-28978D01*
X118630Y-28986D01*
X118564Y-28990D01*
X118494Y-28994D01*
X116938D01*
Y-28654D01*
X118502D01*
X118533Y-28651D01*
X118607Y-28647D01*
X118685Y-28639D01*
X118767Y-28631D01*
X118845Y-28615D01*
X118880Y-28608D01*
X118911Y-28596D01*
X118919Y-28592D01*
X118938Y-28584D01*
X118966Y-28569D01*
X119001Y-28545D01*
X119040Y-28518D01*
X119083Y-28479D01*
X119122Y-28436D01*
X119157Y-28381D01*
X119161Y-28374D01*
X119168Y-28354D01*
X119184Y-28323D01*
X119196Y-28280D01*
X119211Y-28225D01*
X119227Y-28163D01*
X119235Y-28093D01*
X119239Y-28015D01*
Y-28011D01*
Y-27999D01*
Y-27980D01*
X119235Y-27952D01*
Y-27921D01*
X119231Y-27886D01*
X119219Y-27808D01*
X119196Y-27718D01*
X119168Y-27633D01*
X119126Y-27551D01*
X119102Y-27512D01*
X119071Y-27481D01*
X119067D01*
X119063Y-27473D01*
X119052Y-27465D01*
X119036Y-27457D01*
X119016Y-27441D01*
X118993Y-27430D01*
X118962Y-27414D01*
X118927Y-27399D01*
X118884Y-27387D01*
X118837Y-27371D01*
X118786Y-27356D01*
X118724Y-27344D01*
X118658Y-27336D01*
X118587Y-27328D01*
X118506Y-27321D01*
X116938D01*
Y-26981D01*
X118482D01*
X118517Y-26985D01*
D02*
G37*
G36*
X118825Y-29469D02*
X118868Y-29473D01*
X118919Y-29485D01*
X118977Y-29497D01*
X119036Y-29516D01*
X119094Y-29544D01*
X119102Y-29548D01*
X119122Y-29555D01*
X119149Y-29575D01*
X119184Y-29594D01*
X119223Y-29622D01*
X119262Y-29653D01*
X119301Y-29692D01*
X119336Y-29731D01*
X119340Y-29735D01*
X119348Y-29750D01*
X119363Y-29774D01*
X119383Y-29809D01*
X119403Y-29848D01*
X119422Y-29899D01*
X119441Y-29953D01*
X119461Y-30012D01*
Y-30019D01*
X119469Y-30043D01*
X119473Y-30078D01*
X119481Y-30125D01*
X119488Y-30187D01*
X119492Y-30257D01*
X119500Y-30335D01*
Y-30425D01*
Y-31400D01*
X116938D01*
Y-30441D01*
Y-30437D01*
Y-30429D01*
Y-30413D01*
Y-30394D01*
X116942Y-30367D01*
Y-30339D01*
X116946Y-30273D01*
X116957Y-30199D01*
X116969Y-30121D01*
X116988Y-30043D01*
X117016Y-29973D01*
Y-29969D01*
X117020Y-29965D01*
X117031Y-29941D01*
X117051Y-29910D01*
X117074Y-29871D01*
X117109Y-29824D01*
X117152Y-29778D01*
X117199Y-29735D01*
X117257Y-29692D01*
X117265Y-29688D01*
X117285Y-29676D01*
X117320Y-29661D01*
X117363Y-29641D01*
X117413Y-29622D01*
X117468Y-29606D01*
X117531Y-29594D01*
X117597Y-29590D01*
X117624D01*
X117655Y-29594D01*
X117698Y-29602D01*
X117745Y-29614D01*
X117796Y-29629D01*
X117854Y-29649D01*
X117909Y-29680D01*
X117917Y-29684D01*
X117932Y-29696D01*
X117959Y-29719D01*
X117991Y-29746D01*
X118030Y-29785D01*
X118065Y-29832D01*
X118104Y-29887D01*
X118139Y-29953D01*
Y-29949D01*
X118143Y-29941D01*
X118147Y-29930D01*
X118151Y-29914D01*
X118170Y-29871D01*
X118193Y-29820D01*
X118229Y-29762D01*
X118268Y-29704D01*
X118314Y-29645D01*
X118373Y-29594D01*
X118381Y-29590D01*
X118400Y-29575D01*
X118435Y-29555D01*
X118482Y-29528D01*
X118541Y-29505D01*
X118603Y-29485D01*
X118677Y-29469D01*
X118759Y-29466D01*
X118790D01*
X118825Y-29469D01*
D02*
G37*
G36*
X119053Y-18272D02*
X119103Y-18280D01*
X119162Y-18292D01*
X119228Y-18315D01*
X119298Y-18342D01*
X119365Y-18381D01*
X119372Y-18385D01*
X119396Y-18405D01*
X119427Y-18428D01*
X119466Y-18467D01*
X119513Y-18514D01*
X119560Y-18572D01*
X119603Y-18643D01*
X119645Y-18721D01*
Y-18724D01*
X119649Y-18732D01*
X119653Y-18744D01*
X119661Y-18759D01*
X119669Y-18779D01*
X119677Y-18802D01*
X119692Y-18865D01*
X119712Y-18935D01*
X119727Y-19021D01*
X119739Y-19110D01*
X119743Y-19212D01*
Y-19216D01*
Y-19228D01*
Y-19247D01*
Y-19270D01*
X119739Y-19298D01*
Y-19333D01*
X119735Y-19372D01*
X119731Y-19415D01*
X119720Y-19504D01*
X119700Y-19602D01*
X119677Y-19699D01*
X119645Y-19793D01*
Y-19797D01*
X119641Y-19805D01*
X119634Y-19816D01*
X119626Y-19832D01*
X119603Y-19875D01*
X119567Y-19926D01*
X119525Y-19988D01*
X119474Y-20046D01*
X119411Y-20109D01*
X119341Y-20164D01*
X119337D01*
X119333Y-20167D01*
X119322Y-20175D01*
X119306Y-20183D01*
X119287Y-20195D01*
X119263Y-20206D01*
X119205Y-20230D01*
X119138Y-20253D01*
X119056Y-20277D01*
X118971Y-20292D01*
X118877Y-20300D01*
X118850Y-19980D01*
X118858D01*
X118881Y-19976D01*
X118916Y-19969D01*
X118963Y-19961D01*
X119014Y-19945D01*
X119068Y-19929D01*
X119119Y-19906D01*
X119170Y-19879D01*
X119174Y-19875D01*
X119189Y-19863D01*
X119212Y-19844D01*
X119240Y-19813D01*
X119271Y-19777D01*
X119306Y-19735D01*
X119337Y-19680D01*
X119369Y-19621D01*
Y-19617D01*
X119372Y-19614D01*
X119380Y-19590D01*
X119392Y-19555D01*
X119404Y-19504D01*
X119419Y-19450D01*
X119431Y-19380D01*
X119439Y-19306D01*
X119443Y-19228D01*
Y-19224D01*
Y-19220D01*
Y-19196D01*
X119439Y-19157D01*
X119435Y-19114D01*
X119431Y-19060D01*
X119419Y-19005D01*
X119407Y-18947D01*
X119388Y-18888D01*
X119384Y-18880D01*
X119376Y-18865D01*
X119365Y-18837D01*
X119345Y-18806D01*
X119322Y-18767D01*
X119294Y-18732D01*
X119263Y-18697D01*
X119228Y-18666D01*
X119224Y-18662D01*
X119209Y-18654D01*
X119189Y-18643D01*
X119162Y-18627D01*
X119131Y-18615D01*
X119092Y-18604D01*
X119053Y-18596D01*
X119010Y-18592D01*
X118990D01*
X118967Y-18596D01*
X118939Y-18600D01*
X118904Y-18607D01*
X118869Y-18623D01*
X118834Y-18639D01*
X118799Y-18662D01*
X118795Y-18666D01*
X118783Y-18674D01*
X118768Y-18693D01*
X118745Y-18717D01*
X118721Y-18748D01*
X118698Y-18787D01*
X118670Y-18837D01*
X118647Y-18892D01*
X118643Y-18896D01*
X118639Y-18912D01*
X118631Y-18943D01*
X118624Y-18962D01*
X118616Y-18986D01*
X118608Y-19017D01*
X118600Y-19048D01*
X118588Y-19087D01*
X118577Y-19126D01*
X118565Y-19173D01*
X118553Y-19228D01*
X118538Y-19286D01*
X118522Y-19348D01*
Y-19352D01*
X118518Y-19364D01*
X118514Y-19384D01*
X118507Y-19407D01*
X118499Y-19434D01*
X118491Y-19465D01*
X118472Y-19539D01*
X118444Y-19621D01*
X118417Y-19703D01*
X118390Y-19777D01*
X118378Y-19813D01*
X118362Y-19840D01*
Y-19844D01*
X118358Y-19848D01*
X118343Y-19871D01*
X118323Y-19902D01*
X118296Y-19941D01*
X118261Y-19988D01*
X118222Y-20031D01*
X118175Y-20074D01*
X118124Y-20113D01*
X118117Y-20117D01*
X118097Y-20128D01*
X118070Y-20140D01*
X118031Y-20156D01*
X117984Y-20175D01*
X117929Y-20187D01*
X117867Y-20199D01*
X117805Y-20202D01*
X117770D01*
X117734Y-20195D01*
X117688Y-20187D01*
X117629Y-20175D01*
X117571Y-20156D01*
X117504Y-20128D01*
X117442Y-20093D01*
X117438D01*
X117434Y-20089D01*
X117415Y-20074D01*
X117383Y-20046D01*
X117344Y-20011D01*
X117305Y-19969D01*
X117262Y-19914D01*
X117220Y-19848D01*
X117184Y-19773D01*
Y-19770D01*
X117181Y-19766D01*
X117177Y-19754D01*
X117169Y-19735D01*
X117165Y-19715D01*
X117157Y-19692D01*
X117138Y-19637D01*
X117122Y-19567D01*
X117110Y-19489D01*
X117099Y-19399D01*
X117095Y-19306D01*
Y-19302D01*
Y-19294D01*
Y-19278D01*
Y-19259D01*
X117099Y-19231D01*
Y-19204D01*
X117106Y-19138D01*
X117118Y-19060D01*
X117134Y-18974D01*
X117157Y-18888D01*
X117188Y-18806D01*
Y-18802D01*
X117192Y-18799D01*
X117196Y-18787D01*
X117204Y-18771D01*
X117227Y-18732D01*
X117255Y-18681D01*
X117294Y-18627D01*
X117341Y-18572D01*
X117395Y-18518D01*
X117457Y-18471D01*
X117465Y-18467D01*
X117489Y-18451D01*
X117528Y-18432D01*
X117575Y-18412D01*
X117633Y-18389D01*
X117703Y-18366D01*
X117777Y-18350D01*
X117859Y-18342D01*
X117883Y-18666D01*
X117871D01*
X117859Y-18670D01*
X117844Y-18674D01*
X117801Y-18681D01*
X117746Y-18697D01*
X117688Y-18721D01*
X117629Y-18752D01*
X117571Y-18795D01*
X117520Y-18845D01*
X117516Y-18853D01*
X117500Y-18873D01*
X117481Y-18908D01*
X117457Y-18955D01*
X117434Y-19017D01*
X117415Y-19095D01*
X117399Y-19185D01*
X117395Y-19290D01*
Y-19294D01*
Y-19302D01*
Y-19317D01*
Y-19341D01*
X117399Y-19364D01*
Y-19395D01*
X117411Y-19462D01*
X117422Y-19536D01*
X117442Y-19610D01*
X117469Y-19680D01*
X117489Y-19711D01*
X117508Y-19738D01*
X117512Y-19742D01*
X117528Y-19758D01*
X117551Y-19781D01*
X117586Y-19805D01*
X117625Y-19832D01*
X117672Y-19851D01*
X117723Y-19867D01*
X117781Y-19875D01*
X117805D01*
X117832Y-19871D01*
X117863Y-19863D01*
X117898Y-19851D01*
X117937Y-19832D01*
X117972Y-19809D01*
X118007Y-19777D01*
X118011Y-19773D01*
X118023Y-19754D01*
X118031Y-19742D01*
X118043Y-19727D01*
X118050Y-19703D01*
X118062Y-19676D01*
X118078Y-19645D01*
X118093Y-19610D01*
X118105Y-19571D01*
X118121Y-19524D01*
X118140Y-19469D01*
X118156Y-19411D01*
X118171Y-19344D01*
X118191Y-19270D01*
Y-19266D01*
X118195Y-19251D01*
X118199Y-19231D01*
X118206Y-19204D01*
X118214Y-19169D01*
X118226Y-19130D01*
X118245Y-19044D01*
X118273Y-18951D01*
X118300Y-18857D01*
X118312Y-18810D01*
X118327Y-18771D01*
X118343Y-18732D01*
X118354Y-18701D01*
Y-18697D01*
X118358Y-18689D01*
X118366Y-18681D01*
X118374Y-18666D01*
X118397Y-18627D01*
X118425Y-18576D01*
X118464Y-18522D01*
X118510Y-18467D01*
X118561Y-18416D01*
X118616Y-18373D01*
X118624Y-18370D01*
X118643Y-18358D01*
X118674Y-18338D01*
X118721Y-18319D01*
X118772Y-18299D01*
X118834Y-18280D01*
X118904Y-18268D01*
X118979Y-18264D01*
X119014D01*
X119053Y-18272D01*
D02*
G37*
G36*
X119500Y-24583D02*
X118970Y-24922D01*
X118966D01*
X118958Y-24930D01*
X118946Y-24938D01*
X118931Y-24946D01*
X118892Y-24973D01*
X118841Y-25008D01*
X118782Y-25047D01*
X118724Y-25090D01*
X118669Y-25129D01*
X118619Y-25168D01*
X118615Y-25172D01*
X118599Y-25183D01*
X118576Y-25203D01*
X118548Y-25222D01*
X118494Y-25281D01*
X118466Y-25308D01*
X118447Y-25339D01*
X118443Y-25343D01*
X118439Y-25351D01*
X118431Y-25367D01*
X118420Y-25386D01*
X118396Y-25433D01*
X118377Y-25491D01*
Y-25495D01*
X118373Y-25503D01*
Y-25519D01*
X118369Y-25538D01*
X118365Y-25566D01*
Y-25597D01*
X118361Y-25636D01*
Y-25683D01*
Y-26073D01*
X119500D01*
Y-26412D01*
X116938D01*
Y-25277D01*
Y-25273D01*
Y-25261D01*
Y-25246D01*
Y-25222D01*
X116942Y-25191D01*
Y-25160D01*
X116946Y-25082D01*
X116953Y-25000D01*
X116969Y-24914D01*
X116984Y-24832D01*
X116996Y-24793D01*
X117008Y-24758D01*
Y-24754D01*
X117012Y-24750D01*
X117020Y-24727D01*
X117039Y-24696D01*
X117066Y-24657D01*
X117098Y-24610D01*
X117140Y-24563D01*
X117191Y-24517D01*
X117254Y-24474D01*
X117261Y-24470D01*
X117285Y-24458D01*
X117320Y-24439D01*
X117367Y-24419D01*
X117425Y-24399D01*
X117491Y-24380D01*
X117562Y-24368D01*
X117640Y-24364D01*
X117667D01*
X117686Y-24368D01*
X117710D01*
X117737Y-24372D01*
X117800Y-24388D01*
X117874Y-24407D01*
X117948Y-24439D01*
X118026Y-24485D01*
X118065Y-24513D01*
X118100Y-24544D01*
X118108Y-24552D01*
X118115Y-24563D01*
X118131Y-24575D01*
X118143Y-24595D01*
X118162Y-24618D01*
X118178Y-24645D01*
X118197Y-24676D01*
X118217Y-24712D01*
X118236Y-24754D01*
X118256Y-24797D01*
X118275Y-24848D01*
X118295Y-24899D01*
X118310Y-24957D01*
X118322Y-25020D01*
X118334Y-25086D01*
X118338Y-25078D01*
X118346Y-25063D01*
X118357Y-25039D01*
X118373Y-25012D01*
X118416Y-24946D01*
X118439Y-24910D01*
X118463Y-24883D01*
X118470Y-24875D01*
X118486Y-24856D01*
X118517Y-24828D01*
X118556Y-24793D01*
X118607Y-24750D01*
X118665Y-24704D01*
X118732Y-24653D01*
X118806Y-24602D01*
X119500Y-24158D01*
Y-24583D01*
D02*
G37*
G36*
Y-22169D02*
X117488Y-23514D01*
X119500D01*
Y-23838D01*
X116938D01*
Y-23495D01*
X118950Y-22145D01*
X116938D01*
Y-21822D01*
X119500D01*
Y-22169D01*
D02*
G37*
G36*
X119349Y-15522D02*
X119353Y-15530D01*
X119365Y-15542D01*
X119376Y-15562D01*
X119396Y-15585D01*
X119411Y-15612D01*
X119458Y-15678D01*
X119505Y-15756D01*
X119556Y-15842D01*
X119603Y-15940D01*
X119645Y-16037D01*
Y-16041D01*
X119649Y-16049D01*
X119653Y-16065D01*
X119661Y-16084D01*
X119669Y-16107D01*
X119677Y-16135D01*
X119684Y-16170D01*
X119692Y-16205D01*
X119712Y-16287D01*
X119727Y-16377D01*
X119739Y-16478D01*
X119743Y-16579D01*
Y-16583D01*
Y-16595D01*
Y-16614D01*
X119739Y-16642D01*
Y-16677D01*
X119735Y-16716D01*
X119731Y-16759D01*
X119723Y-16806D01*
X119704Y-16915D01*
X119677Y-17028D01*
X119638Y-17149D01*
X119583Y-17266D01*
X119579Y-17270D01*
X119575Y-17278D01*
X119567Y-17297D01*
X119552Y-17316D01*
X119536Y-17344D01*
X119517Y-17371D01*
X119466Y-17437D01*
X119400Y-17515D01*
X119318Y-17590D01*
X119224Y-17664D01*
X119119Y-17730D01*
X119115D01*
X119103Y-17738D01*
X119088Y-17745D01*
X119064Y-17753D01*
X119037Y-17765D01*
X119002Y-17781D01*
X118963Y-17792D01*
X118916Y-17808D01*
X118869Y-17823D01*
X118815Y-17835D01*
X118698Y-17863D01*
X118569Y-17878D01*
X118432Y-17886D01*
X118397D01*
X118370Y-17882D01*
X118335D01*
X118296Y-17878D01*
X118253Y-17874D01*
X118206Y-17866D01*
X118097Y-17847D01*
X117980Y-17820D01*
X117855Y-17781D01*
X117734Y-17730D01*
X117730D01*
X117719Y-17722D01*
X117703Y-17714D01*
X117680Y-17703D01*
X117652Y-17683D01*
X117625Y-17664D01*
X117551Y-17617D01*
X117473Y-17550D01*
X117395Y-17476D01*
X117321Y-17383D01*
X117286Y-17336D01*
X117255Y-17281D01*
Y-17278D01*
X117247Y-17270D01*
X117239Y-17250D01*
X117231Y-17231D01*
X117216Y-17203D01*
X117204Y-17168D01*
X117188Y-17129D01*
X117173Y-17086D01*
X117161Y-17040D01*
X117146Y-16989D01*
X117118Y-16872D01*
X117103Y-16747D01*
X117095Y-16607D01*
Y-16603D01*
Y-16595D01*
Y-16579D01*
Y-16560D01*
X117099Y-16536D01*
Y-16505D01*
X117106Y-16439D01*
X117118Y-16365D01*
X117134Y-16279D01*
X117157Y-16193D01*
X117188Y-16107D01*
Y-16104D01*
X117192Y-16096D01*
X117196Y-16084D01*
X117204Y-16069D01*
X117224Y-16029D01*
X117255Y-15979D01*
X117290Y-15920D01*
X117333Y-15862D01*
X117379Y-15803D01*
X117438Y-15753D01*
X117446Y-15749D01*
X117465Y-15733D01*
X117500Y-15710D01*
X117551Y-15678D01*
X117610Y-15647D01*
X117680Y-15616D01*
X117762Y-15585D01*
X117855Y-15558D01*
X117941Y-15866D01*
X117937D01*
X117933Y-15870D01*
X117910Y-15874D01*
X117875Y-15889D01*
X117828Y-15905D01*
X117781Y-15924D01*
X117730Y-15948D01*
X117680Y-15975D01*
X117633Y-16006D01*
X117629Y-16010D01*
X117613Y-16022D01*
X117594Y-16041D01*
X117567Y-16069D01*
X117539Y-16104D01*
X117508Y-16147D01*
X117481Y-16193D01*
X117454Y-16252D01*
X117450Y-16260D01*
X117442Y-16279D01*
X117430Y-16314D01*
X117419Y-16357D01*
X117407Y-16408D01*
X117395Y-16466D01*
X117387Y-16533D01*
X117383Y-16603D01*
Y-16607D01*
Y-16614D01*
Y-16626D01*
Y-16642D01*
X117387Y-16685D01*
X117391Y-16739D01*
X117403Y-16802D01*
X117415Y-16872D01*
X117434Y-16938D01*
X117457Y-17005D01*
X117461Y-17012D01*
X117469Y-17032D01*
X117485Y-17063D01*
X117508Y-17102D01*
X117535Y-17145D01*
X117567Y-17192D01*
X117602Y-17235D01*
X117645Y-17278D01*
X117649Y-17281D01*
X117664Y-17293D01*
X117688Y-17313D01*
X117719Y-17336D01*
X117758Y-17363D01*
X117801Y-17391D01*
X117848Y-17414D01*
X117898Y-17437D01*
X117902D01*
X117910Y-17441D01*
X117922Y-17445D01*
X117941Y-17453D01*
X117961Y-17461D01*
X117988Y-17469D01*
X118050Y-17484D01*
X118128Y-17504D01*
X118214Y-17519D01*
X118312Y-17531D01*
X118413Y-17535D01*
X118444D01*
X118472Y-17531D01*
X118499D01*
X118534Y-17527D01*
X118573Y-17523D01*
X118612Y-17519D01*
X118705Y-17508D01*
X118803Y-17484D01*
X118897Y-17457D01*
X118990Y-17418D01*
X118994D01*
X119002Y-17414D01*
X119014Y-17406D01*
X119029Y-17394D01*
X119068Y-17367D01*
X119119Y-17332D01*
X119174Y-17285D01*
X119232Y-17227D01*
X119287Y-17157D01*
X119333Y-17079D01*
Y-17075D01*
X119337Y-17067D01*
X119345Y-17055D01*
X119349Y-17040D01*
X119357Y-17020D01*
X119369Y-16993D01*
X119388Y-16934D01*
X119407Y-16860D01*
X119427Y-16782D01*
X119439Y-16692D01*
X119443Y-16599D01*
Y-16595D01*
Y-16587D01*
Y-16576D01*
Y-16560D01*
X119439Y-16517D01*
X119431Y-16462D01*
X119423Y-16400D01*
X119407Y-16326D01*
X119388Y-16248D01*
X119361Y-16170D01*
Y-16166D01*
X119357Y-16162D01*
X119353Y-16150D01*
X119345Y-16135D01*
X119330Y-16096D01*
X119306Y-16049D01*
X119279Y-15998D01*
X119248Y-15948D01*
X119212Y-15897D01*
X119177Y-15850D01*
X118694D01*
Y-16603D01*
X118394D01*
Y-15519D01*
X119345D01*
X119349Y-15522D01*
D02*
G37*
%LPC*%
G36*
X80574Y-64038D02*
X80039D01*
Y-66000D01*
X80624D01*
X80667Y-65996D01*
X80726Y-65992D01*
X80788Y-65988D01*
X80854Y-65980D01*
X80917Y-65969D01*
X80975Y-65953D01*
X80983Y-65949D01*
X80999Y-65945D01*
X81026Y-65933D01*
X81057Y-65918D01*
X81096Y-65898D01*
X81135Y-65879D01*
X81170Y-65851D01*
X81205Y-65820D01*
X81209Y-65816D01*
X81225Y-65797D01*
X81248Y-65770D01*
X81276Y-65734D01*
X81303Y-65688D01*
X81334Y-65633D01*
X81365Y-65567D01*
X81393Y-65497D01*
Y-65493D01*
X81397Y-65489D01*
X81400Y-65477D01*
X81404Y-65461D01*
X81408Y-65442D01*
X81416Y-65419D01*
X81428Y-65360D01*
X81439Y-65286D01*
X81451Y-65200D01*
X81459Y-65107D01*
X81463Y-65001D01*
Y-64997D01*
Y-64982D01*
Y-64962D01*
Y-64935D01*
X81459Y-64900D01*
X81455Y-64861D01*
X81451Y-64818D01*
X81447Y-64775D01*
X81432Y-64674D01*
X81408Y-64572D01*
X81373Y-64475D01*
X81354Y-64428D01*
X81330Y-64385D01*
Y-64381D01*
X81322Y-64377D01*
X81318Y-64366D01*
X81307Y-64350D01*
X81279Y-64311D01*
X81240Y-64268D01*
X81194Y-64217D01*
X81139Y-64171D01*
X81077Y-64128D01*
X81010Y-64093D01*
X81003Y-64089D01*
X80983Y-64085D01*
X80952Y-64077D01*
X80905Y-64065D01*
X80843Y-64054D01*
X80769Y-64046D01*
X80679Y-64042D01*
X80574Y-64038D01*
D02*
G37*
G36*
X71590Y-63887D02*
X71570D01*
X71554Y-63891D01*
X71516Y-63895D01*
X71465Y-63907D01*
X71406Y-63930D01*
X71348Y-63961D01*
X71285Y-64000D01*
X71254Y-64028D01*
X71223Y-64059D01*
X71215Y-64067D01*
X71200Y-64090D01*
X71176Y-64129D01*
X71149Y-64180D01*
X71118Y-64242D01*
X71094Y-64320D01*
X71079Y-64406D01*
X71071Y-64504D01*
Y-64507D01*
Y-64515D01*
Y-64527D01*
X71075Y-64543D01*
X71079Y-64589D01*
X71090Y-64644D01*
X71106Y-64710D01*
X71133Y-64776D01*
X71168Y-64839D01*
X71215Y-64901D01*
X71223Y-64909D01*
X71242Y-64925D01*
X71274Y-64948D01*
X71317Y-64975D01*
X71371Y-65007D01*
X71434Y-65030D01*
X71504Y-65046D01*
X71582Y-65053D01*
X71601D01*
X71617Y-65049D01*
X71656Y-65046D01*
X71707Y-65034D01*
X71761Y-65014D01*
X71824Y-64991D01*
X71882Y-64952D01*
X71937Y-64901D01*
X71944Y-64894D01*
X71960Y-64874D01*
X71983Y-64839D01*
X72011Y-64792D01*
X72034Y-64730D01*
X72058Y-64660D01*
X72073Y-64574D01*
X72081Y-64480D01*
Y-64476D01*
Y-64468D01*
Y-64453D01*
X72077Y-64433D01*
Y-64410D01*
X72073Y-64386D01*
X72062Y-64324D01*
X72046Y-64254D01*
X72019Y-64184D01*
X71983Y-64113D01*
X71937Y-64047D01*
X71929Y-64039D01*
X71909Y-64024D01*
X71882Y-63996D01*
X71839Y-63965D01*
X71789Y-63938D01*
X71730Y-63911D01*
X71664Y-63895D01*
X71590Y-63887D01*
D02*
G37*
G36*
X117640Y-24715D02*
X117608D01*
X117577Y-24723D01*
X117534Y-24731D01*
X117488Y-24747D01*
X117437Y-24770D01*
X117386Y-24805D01*
X117339Y-24848D01*
X117335Y-24856D01*
X117320Y-24871D01*
X117300Y-24906D01*
X117281Y-24949D01*
X117257Y-25008D01*
X117242Y-25078D01*
X117226Y-25164D01*
X117222Y-25265D01*
Y-26073D01*
X118069D01*
Y-25347D01*
Y-25343D01*
Y-25335D01*
Y-25324D01*
Y-25308D01*
X118065Y-25265D01*
X118061Y-25215D01*
X118057Y-25156D01*
X118049Y-25094D01*
X118037Y-25035D01*
X118022Y-24984D01*
X118018Y-24977D01*
X118014Y-24961D01*
X118002Y-24938D01*
X117987Y-24910D01*
X117963Y-24879D01*
X117936Y-24844D01*
X117905Y-24813D01*
X117870Y-24786D01*
X117866Y-24782D01*
X117850Y-24774D01*
X117831Y-24762D01*
X117800Y-24750D01*
X117768Y-24739D01*
X117729Y-24727D01*
X117686Y-24719D01*
X117640Y-24715D01*
D02*
G37*
G36*
X118759Y-29817D02*
X118736D01*
X118708Y-29820D01*
X118677Y-29824D01*
X118638Y-29836D01*
X118595Y-29848D01*
X118552Y-29867D01*
X118513Y-29895D01*
X118509Y-29899D01*
X118494Y-29906D01*
X118478Y-29926D01*
X118455Y-29949D01*
X118428Y-29976D01*
X118404Y-30012D01*
X118381Y-30051D01*
X118361Y-30097D01*
X118357Y-30105D01*
X118353Y-30121D01*
X118346Y-30152D01*
X118338Y-30191D01*
X118330Y-30246D01*
X118326Y-30308D01*
X118318Y-30386D01*
Y-30472D01*
Y-31061D01*
X119200D01*
Y-30425D01*
Y-30417D01*
Y-30398D01*
Y-30370D01*
Y-30335D01*
X119196Y-30257D01*
X119192Y-30222D01*
X119188Y-30195D01*
Y-30191D01*
X119184Y-30175D01*
X119180Y-30152D01*
X119172Y-30125D01*
X119153Y-30062D01*
X119122Y-30000D01*
X119118Y-29996D01*
X119114Y-29984D01*
X119102Y-29973D01*
X119083Y-29953D01*
X119063Y-29930D01*
X119040Y-29910D01*
X119009Y-29887D01*
X118977Y-29867D01*
X118974Y-29863D01*
X118962Y-29860D01*
X118942Y-29852D01*
X118915Y-29840D01*
X118884Y-29832D01*
X118845Y-29824D01*
X118806Y-29820D01*
X118759Y-29817D01*
D02*
G37*
G36*
X149647Y-23922D02*
X148839D01*
Y-24769D01*
X149604D01*
X149647Y-24765D01*
X149697Y-24761D01*
X149756Y-24757D01*
X149818Y-24749D01*
X149877Y-24737D01*
X149927Y-24722D01*
X149935Y-24718D01*
X149951Y-24714D01*
X149974Y-24702D01*
X150002Y-24687D01*
X150033Y-24663D01*
X150068Y-24636D01*
X150099Y-24605D01*
X150126Y-24570D01*
X150130Y-24566D01*
X150138Y-24550D01*
X150150Y-24531D01*
X150161Y-24500D01*
X150173Y-24468D01*
X150185Y-24429D01*
X150193Y-24386D01*
X150197Y-24340D01*
Y-24336D01*
Y-24332D01*
Y-24308D01*
X150189Y-24277D01*
X150181Y-24234D01*
X150165Y-24188D01*
X150142Y-24137D01*
X150107Y-24086D01*
X150064Y-24039D01*
X150056Y-24035D01*
X150040Y-24020D01*
X150005Y-24000D01*
X149962Y-23981D01*
X149904Y-23957D01*
X149834Y-23942D01*
X149748Y-23926D01*
X149647Y-23922D01*
D02*
G37*
G36*
X76767Y-63887D02*
X76747D01*
X76731Y-63891D01*
X76692Y-63895D01*
X76642Y-63911D01*
X76587Y-63934D01*
X76529Y-63965D01*
X76470Y-64012D01*
X76443Y-64043D01*
X76419Y-64074D01*
Y-64078D01*
X76412Y-64086D01*
X76404Y-64102D01*
X76396Y-64121D01*
X76384Y-64149D01*
X76369Y-64180D01*
X76353Y-64223D01*
X76341Y-64270D01*
X76326Y-64324D01*
X76310Y-64386D01*
X76298Y-64457D01*
X76283Y-64539D01*
X76275Y-64624D01*
X76267Y-64718D01*
X76259Y-64823D01*
Y-64936D01*
Y-64944D01*
Y-64964D01*
Y-64995D01*
X76263Y-65038D01*
Y-65088D01*
X76267Y-65147D01*
X76271Y-65213D01*
X76279Y-65280D01*
X76295Y-65420D01*
X76322Y-65560D01*
X76337Y-65623D01*
X76357Y-65681D01*
X76380Y-65736D01*
X76404Y-65779D01*
Y-65783D01*
X76412Y-65787D01*
X76431Y-65810D01*
X76462Y-65845D01*
X76505Y-65880D01*
X76560Y-65919D01*
X76622Y-65954D01*
X76692Y-65978D01*
X76731Y-65982D01*
X76770Y-65986D01*
X76790D01*
X76806Y-65982D01*
X76845Y-65974D01*
X76895Y-65958D01*
X76954Y-65935D01*
X77012Y-65900D01*
X77043Y-65876D01*
X77075Y-65845D01*
X77106Y-65814D01*
X77133Y-65779D01*
Y-65775D01*
X77141Y-65767D01*
X77149Y-65755D01*
X77157Y-65736D01*
X77168Y-65712D01*
X77180Y-65677D01*
X77192Y-65638D01*
X77207Y-65596D01*
X77223Y-65541D01*
X77235Y-65482D01*
X77246Y-65412D01*
X77258Y-65334D01*
X77270Y-65248D01*
X77273Y-65155D01*
X77281Y-65049D01*
Y-64936D01*
Y-64929D01*
Y-64909D01*
Y-64878D01*
X77277Y-64835D01*
Y-64784D01*
X77273Y-64726D01*
X77270Y-64663D01*
X77262Y-64593D01*
X77246Y-64453D01*
X77219Y-64316D01*
X77203Y-64250D01*
X77184Y-64192D01*
X77160Y-64141D01*
X77133Y-64098D01*
Y-64094D01*
X77125Y-64090D01*
X77106Y-64067D01*
X77075Y-64032D01*
X77032Y-63993D01*
X76977Y-63954D01*
X76915Y-63919D01*
X76845Y-63895D01*
X76806Y-63891D01*
X76767Y-63887D01*
D02*
G37*
G36*
X117636Y-29926D02*
X117612D01*
X117589Y-29930D01*
X117558Y-29934D01*
X117523Y-29941D01*
X117488Y-29953D01*
X117449Y-29969D01*
X117410Y-29988D01*
X117406Y-29992D01*
X117394Y-30000D01*
X117378Y-30016D01*
X117355Y-30035D01*
X117335Y-30058D01*
X117312Y-30090D01*
X117293Y-30125D01*
X117277Y-30164D01*
Y-30168D01*
X117269Y-30187D01*
X117265Y-30214D01*
X117257Y-30253D01*
X117250Y-30308D01*
X117246Y-30374D01*
X117238Y-30456D01*
Y-30554D01*
Y-31061D01*
X118018D01*
Y-30511D01*
Y-30507D01*
Y-30499D01*
Y-30487D01*
Y-30476D01*
Y-30433D01*
X118014Y-30386D01*
X118010Y-30331D01*
X118006Y-30277D01*
X117999Y-30230D01*
X117991Y-30187D01*
X117987Y-30183D01*
X117983Y-30168D01*
X117975Y-30144D01*
X117959Y-30113D01*
X117944Y-30082D01*
X117920Y-30051D01*
X117893Y-30019D01*
X117862Y-29992D01*
X117858Y-29988D01*
X117846Y-29980D01*
X117827Y-29973D01*
X117800Y-29957D01*
X117768Y-29945D01*
X117729Y-29937D01*
X117686Y-29930D01*
X117636Y-29926D01*
D02*
G37*
G36*
X118759Y-4717D02*
X118736D01*
X118708Y-4721D01*
X118677Y-4724D01*
X118638Y-4736D01*
X118595Y-4748D01*
X118552Y-4767D01*
X118513Y-4795D01*
X118509Y-4798D01*
X118494Y-4806D01*
X118478Y-4826D01*
X118455Y-4849D01*
X118428Y-4876D01*
X118404Y-4912D01*
X118381Y-4951D01*
X118361Y-4997D01*
X118357Y-5005D01*
X118353Y-5021D01*
X118346Y-5052D01*
X118338Y-5091D01*
X118330Y-5146D01*
X118326Y-5208D01*
X118318Y-5286D01*
Y-5372D01*
Y-5961D01*
X119200D01*
Y-5325D01*
Y-5317D01*
Y-5298D01*
Y-5270D01*
Y-5235D01*
X119196Y-5157D01*
X119192Y-5122D01*
X119188Y-5095D01*
Y-5091D01*
X119184Y-5075D01*
X119180Y-5052D01*
X119172Y-5025D01*
X119153Y-4962D01*
X119122Y-4900D01*
X119118Y-4896D01*
X119114Y-4884D01*
X119102Y-4873D01*
X119083Y-4853D01*
X119063Y-4830D01*
X119040Y-4810D01*
X119009Y-4787D01*
X118977Y-4767D01*
X118974Y-4763D01*
X118962Y-4760D01*
X118942Y-4752D01*
X118915Y-4740D01*
X118884Y-4732D01*
X118845Y-4724D01*
X118806Y-4721D01*
X118759Y-4717D01*
D02*
G37*
G36*
X118401Y-52237D02*
X118335D01*
X118300Y-52241D01*
X118261Y-52245D01*
X118218Y-52249D01*
X118175Y-52253D01*
X118074Y-52268D01*
X117972Y-52292D01*
X117875Y-52327D01*
X117828Y-52346D01*
X117785Y-52370D01*
X117781D01*
X117777Y-52378D01*
X117766Y-52381D01*
X117750Y-52393D01*
X117711Y-52421D01*
X117668Y-52460D01*
X117617Y-52506D01*
X117571Y-52561D01*
X117528Y-52623D01*
X117493Y-52690D01*
X117489Y-52697D01*
X117485Y-52717D01*
X117477Y-52748D01*
X117465Y-52795D01*
X117454Y-52857D01*
X117446Y-52931D01*
X117442Y-53021D01*
X117438Y-53126D01*
Y-53661D01*
X119400D01*
Y-53119D01*
Y-53115D01*
Y-53107D01*
Y-53095D01*
Y-53076D01*
X119396Y-53033D01*
X119392Y-52974D01*
X119388Y-52912D01*
X119380Y-52846D01*
X119369Y-52783D01*
X119353Y-52725D01*
X119349Y-52717D01*
X119345Y-52701D01*
X119333Y-52674D01*
X119318Y-52643D01*
X119298Y-52604D01*
X119279Y-52565D01*
X119252Y-52530D01*
X119220Y-52495D01*
X119216Y-52491D01*
X119197Y-52475D01*
X119170Y-52452D01*
X119134Y-52424D01*
X119088Y-52397D01*
X119033Y-52366D01*
X118967Y-52335D01*
X118897Y-52307D01*
X118893D01*
X118889Y-52303D01*
X118877Y-52300D01*
X118861Y-52296D01*
X118842Y-52292D01*
X118819Y-52284D01*
X118760Y-52272D01*
X118686Y-52261D01*
X118600Y-52249D01*
X118507Y-52241D01*
X118401Y-52237D01*
D02*
G37*
G36*
X117636Y-4826D02*
X117612D01*
X117589Y-4830D01*
X117558Y-4834D01*
X117523Y-4841D01*
X117488Y-4853D01*
X117449Y-4869D01*
X117410Y-4888D01*
X117406Y-4892D01*
X117394Y-4900D01*
X117378Y-4916D01*
X117355Y-4935D01*
X117335Y-4958D01*
X117312Y-4990D01*
X117293Y-5025D01*
X117277Y-5064D01*
Y-5068D01*
X117269Y-5087D01*
X117265Y-5114D01*
X117257Y-5153D01*
X117250Y-5208D01*
X117246Y-5274D01*
X117238Y-5356D01*
Y-5454D01*
Y-5961D01*
X118018D01*
Y-5411D01*
Y-5407D01*
Y-5399D01*
Y-5387D01*
Y-5376D01*
Y-5333D01*
X118014Y-5286D01*
X118010Y-5231D01*
X118006Y-5177D01*
X117999Y-5130D01*
X117991Y-5087D01*
X117987Y-5083D01*
X117983Y-5068D01*
X117975Y-5044D01*
X117959Y-5013D01*
X117944Y-4982D01*
X117920Y-4951D01*
X117893Y-4919D01*
X117862Y-4892D01*
X117858Y-4888D01*
X117846Y-4880D01*
X117827Y-4873D01*
X117800Y-4857D01*
X117768Y-4845D01*
X117729Y-4837D01*
X117686Y-4830D01*
X117636Y-4826D01*
D02*
G37*
G36*
X118401Y-44937D02*
X118335D01*
X118300Y-44941D01*
X118261Y-44945D01*
X118218Y-44949D01*
X118175Y-44953D01*
X118074Y-44968D01*
X117972Y-44992D01*
X117875Y-45027D01*
X117828Y-45046D01*
X117785Y-45070D01*
X117781D01*
X117777Y-45078D01*
X117766Y-45081D01*
X117750Y-45093D01*
X117711Y-45120D01*
X117668Y-45160D01*
X117617Y-45206D01*
X117571Y-45261D01*
X117528Y-45323D01*
X117493Y-45390D01*
X117489Y-45397D01*
X117485Y-45417D01*
X117477Y-45448D01*
X117465Y-45495D01*
X117454Y-45557D01*
X117446Y-45631D01*
X117442Y-45721D01*
X117438Y-45826D01*
Y-46361D01*
X119400D01*
Y-45819D01*
Y-45815D01*
Y-45807D01*
Y-45795D01*
Y-45776D01*
X119396Y-45733D01*
X119392Y-45674D01*
X119388Y-45612D01*
X119380Y-45546D01*
X119369Y-45483D01*
X119353Y-45425D01*
X119349Y-45417D01*
X119345Y-45401D01*
X119333Y-45374D01*
X119318Y-45343D01*
X119298Y-45304D01*
X119279Y-45265D01*
X119252Y-45230D01*
X119220Y-45195D01*
X119216Y-45191D01*
X119197Y-45175D01*
X119170Y-45152D01*
X119134Y-45124D01*
X119088Y-45097D01*
X119033Y-45066D01*
X118967Y-45035D01*
X118897Y-45007D01*
X118893D01*
X118889Y-45004D01*
X118877Y-45000D01*
X118861Y-44996D01*
X118842Y-44992D01*
X118819Y-44984D01*
X118760Y-44972D01*
X118686Y-44961D01*
X118600Y-44949D01*
X118507Y-44941D01*
X118401Y-44937D01*
D02*
G37*
G36*
X118447Y-2575D02*
X117741Y-2841D01*
X117737D01*
X117726Y-2845D01*
X117710Y-2852D01*
X117686Y-2860D01*
X117659Y-2872D01*
X117628Y-2884D01*
X117554Y-2907D01*
X117468Y-2938D01*
X117378Y-2969D01*
X117289Y-2997D01*
X117203Y-3024D01*
X117207D01*
X117215Y-3028D01*
X117226D01*
X117246Y-3032D01*
X117269Y-3040D01*
X117297Y-3047D01*
X117359Y-3063D01*
X117437Y-3083D01*
X117519Y-3106D01*
X117608Y-3133D01*
X117698Y-3164D01*
X118447Y-3445D01*
Y-2575D01*
D02*
G37*
G36*
X117936Y-61293D02*
X117912D01*
X117889Y-61297D01*
X117858Y-61301D01*
X117823Y-61309D01*
X117788Y-61321D01*
X117749Y-61336D01*
X117710Y-61356D01*
X117706Y-61360D01*
X117694Y-61367D01*
X117678Y-61383D01*
X117655Y-61402D01*
X117636Y-61426D01*
X117612Y-61457D01*
X117593Y-61492D01*
X117577Y-61531D01*
Y-61535D01*
X117569Y-61555D01*
X117565Y-61582D01*
X117558Y-61621D01*
X117550Y-61676D01*
X117546Y-61742D01*
X117538Y-61824D01*
Y-61921D01*
Y-62428D01*
X118318D01*
Y-61878D01*
Y-61874D01*
Y-61867D01*
Y-61855D01*
Y-61843D01*
Y-61800D01*
X118314Y-61753D01*
X118310Y-61699D01*
X118306Y-61644D01*
X118298Y-61598D01*
X118291Y-61555D01*
X118287Y-61551D01*
X118283Y-61535D01*
X118275Y-61512D01*
X118260Y-61480D01*
X118244Y-61449D01*
X118220Y-61418D01*
X118193Y-61387D01*
X118162Y-61360D01*
X118158Y-61356D01*
X118146Y-61348D01*
X118127Y-61340D01*
X118100Y-61325D01*
X118068Y-61313D01*
X118029Y-61305D01*
X117987Y-61297D01*
X117936Y-61293D01*
D02*
G37*
G36*
X119059Y-61184D02*
X119036D01*
X119008Y-61188D01*
X118977Y-61192D01*
X118938Y-61204D01*
X118895Y-61215D01*
X118852Y-61235D01*
X118813Y-61262D01*
X118809Y-61266D01*
X118794Y-61274D01*
X118778Y-61293D01*
X118755Y-61317D01*
X118728Y-61344D01*
X118704Y-61379D01*
X118681Y-61418D01*
X118661Y-61465D01*
X118657Y-61473D01*
X118653Y-61488D01*
X118646Y-61519D01*
X118638Y-61559D01*
X118630Y-61613D01*
X118626Y-61676D01*
X118618Y-61753D01*
Y-61839D01*
Y-62428D01*
X119500D01*
Y-61792D01*
Y-61785D01*
Y-61765D01*
Y-61738D01*
Y-61703D01*
X119496Y-61625D01*
X119492Y-61590D01*
X119488Y-61562D01*
Y-61559D01*
X119484Y-61543D01*
X119480Y-61519D01*
X119472Y-61492D01*
X119453Y-61430D01*
X119422Y-61367D01*
X119418Y-61364D01*
X119414Y-61352D01*
X119402Y-61340D01*
X119383Y-61321D01*
X119363Y-61297D01*
X119340Y-61278D01*
X119309Y-61254D01*
X119277Y-61235D01*
X119273Y-61231D01*
X119262Y-61227D01*
X119242Y-61219D01*
X119215Y-61207D01*
X119184Y-61200D01*
X119145Y-61192D01*
X119106Y-61188D01*
X119059Y-61184D01*
D02*
G37*
G36*
X153851Y-4738D02*
X153317D01*
Y-6700D01*
X153902D01*
X153945Y-6696D01*
X154003Y-6692D01*
X154065Y-6688D01*
X154132Y-6680D01*
X154194Y-6668D01*
X154253Y-6653D01*
X154260Y-6649D01*
X154276Y-6645D01*
X154303Y-6633D01*
X154334Y-6618D01*
X154374Y-6598D01*
X154412Y-6579D01*
X154448Y-6551D01*
X154483Y-6520D01*
X154487Y-6516D01*
X154502Y-6497D01*
X154526Y-6470D01*
X154553Y-6435D01*
X154580Y-6388D01*
X154611Y-6333D01*
X154643Y-6267D01*
X154670Y-6197D01*
Y-6193D01*
X154674Y-6189D01*
X154678Y-6177D01*
X154682Y-6162D01*
X154685Y-6142D01*
X154693Y-6119D01*
X154705Y-6060D01*
X154717Y-5986D01*
X154728Y-5900D01*
X154736Y-5807D01*
X154740Y-5701D01*
Y-5697D01*
Y-5682D01*
Y-5662D01*
Y-5635D01*
X154736Y-5600D01*
X154732Y-5561D01*
X154728Y-5518D01*
X154725Y-5475D01*
X154709Y-5374D01*
X154685Y-5272D01*
X154650Y-5175D01*
X154631Y-5128D01*
X154607Y-5085D01*
Y-5081D01*
X154600Y-5077D01*
X154596Y-5066D01*
X154584Y-5050D01*
X154557Y-5011D01*
X154518Y-4968D01*
X154471Y-4917D01*
X154416Y-4871D01*
X154354Y-4828D01*
X154288Y-4793D01*
X154280Y-4789D01*
X154260Y-4785D01*
X154229Y-4777D01*
X154182Y-4765D01*
X154120Y-4754D01*
X154046Y-4746D01*
X153956Y-4742D01*
X153851Y-4738D01*
D02*
G37*
G36*
X157673Y-4687D02*
X157638D01*
X157614Y-4691D01*
X157583Y-4695D01*
X157544Y-4699D01*
X157505Y-4707D01*
X157462Y-4719D01*
X157365Y-4750D01*
X157314Y-4769D01*
X157263Y-4793D01*
X157209Y-4820D01*
X157158Y-4855D01*
X157107Y-4894D01*
X157057Y-4937D01*
X157053Y-4941D01*
X157045Y-4949D01*
X157033Y-4964D01*
X157018Y-4984D01*
X156998Y-5011D01*
X156975Y-5046D01*
X156951Y-5085D01*
X156928Y-5132D01*
X156905Y-5187D01*
X156881Y-5245D01*
X156858Y-5311D01*
X156838Y-5389D01*
X156823Y-5471D01*
X156811Y-5557D01*
X156803Y-5655D01*
X156799Y-5760D01*
Y-5764D01*
Y-5779D01*
Y-5803D01*
X156803Y-5838D01*
X156807Y-5877D01*
X156811Y-5920D01*
X156819Y-5970D01*
X156831Y-6025D01*
X156858Y-6142D01*
X156881Y-6200D01*
X156905Y-6263D01*
X156932Y-6321D01*
X156963Y-6380D01*
X157002Y-6438D01*
X157045Y-6489D01*
X157049Y-6493D01*
X157057Y-6501D01*
X157072Y-6513D01*
X157092Y-6532D01*
X157115Y-6551D01*
X157142Y-6571D01*
X157178Y-6598D01*
X157217Y-6622D01*
X157260Y-6645D01*
X157306Y-6668D01*
X157357Y-6692D01*
X157415Y-6711D01*
X157474Y-6731D01*
X157536Y-6743D01*
X157599Y-6750D01*
X157669Y-6754D01*
X157704D01*
X157731Y-6750D01*
X157766Y-6746D01*
X157802Y-6739D01*
X157844Y-6731D01*
X157891Y-6719D01*
X157989Y-6688D01*
X158043Y-6668D01*
X158094Y-6641D01*
X158149Y-6610D01*
X158199Y-6575D01*
X158250Y-6536D01*
X158297Y-6489D01*
X158301Y-6485D01*
X158309Y-6477D01*
X158320Y-6462D01*
X158336Y-6438D01*
X158355Y-6411D01*
X158375Y-6376D01*
X158398Y-6337D01*
X158422Y-6294D01*
X158445Y-6239D01*
X158468Y-6185D01*
X158488Y-6123D01*
X158508Y-6052D01*
X158523Y-5978D01*
X158535Y-5900D01*
X158543Y-5814D01*
X158546Y-5725D01*
Y-5721D01*
Y-5709D01*
Y-5694D01*
Y-5674D01*
X158543Y-5647D01*
Y-5612D01*
X158535Y-5537D01*
X158519Y-5456D01*
X158500Y-5362D01*
X158472Y-5268D01*
X158437Y-5179D01*
Y-5175D01*
X158433Y-5167D01*
X158426Y-5155D01*
X158418Y-5140D01*
X158394Y-5097D01*
X158359Y-5046D01*
X158316Y-4988D01*
X158262Y-4925D01*
X158199Y-4867D01*
X158129Y-4816D01*
X158125D01*
X158121Y-4812D01*
X158110Y-4804D01*
X158094Y-4797D01*
X158051Y-4777D01*
X157997Y-4750D01*
X157930Y-4726D01*
X157852Y-4707D01*
X157766Y-4691D01*
X157673Y-4687D01*
D02*
G37*
%LPD*%
D67*
X108300Y-33096D02*
X108800Y-32596D01*
X120800Y-64100D02*
Y3900D01*
D69*
X99142Y-2179D02*
G03*
X99142Y-2179I-492J0D01*
G01*
X100143Y-10679D02*
G03*
X100143Y-10679I-492J0D01*
G01*
X94692Y-14800D02*
G03*
X94692Y-14800I-492J0D01*
G01*
D70*
X103473Y-10447D02*
Y-9462D01*
X101898Y-10447D02*
X103473D01*
Y-4738D02*
Y-3754D01*
X101898D02*
X103473D01*
X97312Y-50084D02*
Y-48116D01*
X59316Y-25112D02*
X61284D01*
X102316Y-25588D02*
X104284D01*
X98816Y-26088D02*
X100784D01*
X71816Y1912D02*
X73784D01*
X102898Y-12253D02*
X104473D01*
Y-13238D02*
Y-12253D01*
X102898Y-18947D02*
X104473D01*
Y-17962D01*
X91595Y-16230D02*
X93170D01*
Y-17805D02*
Y-16230D01*
Y-44970D02*
Y-43395D01*
X91595Y-44970D02*
X93170D01*
X64430D02*
X66005D01*
X64430D02*
Y-43395D01*
Y-16230D02*
X66005D01*
X64430Y-17805D02*
Y-16230D01*
X91316Y2912D02*
X93284D01*
X85816D02*
X87784D01*
D71*
X81800Y-5600D02*
Y-4600D01*
X76800Y-5600D02*
Y-4600D01*
M02*
