M48
;Layer_Color=9474304
;FILE_FORMAT=2:5
INCH,LZ
;TYPE=PLATED
T1F00S00C0.01200
T2F00S00C0.01968
T3F00S00C0.02559
T4F00S00C0.02756
T5F00S00C0.03000
T7F00S00C0.03346
T8F00S00C0.03543
%
T01
X-00162Y-00561
X-00062Y-00611
X00078Y-00606
X00193Y-00536
X00203Y-00471
X-00127Y-00416
X00493Y-00593
X00578Y-00541
X00643Y-00486
X00885Y-0052387
X00973Y-00458
X00974Y-00416
X01073
X01066Y-00316
X00958Y-00006
X00743Y-00111
X00588Y-00061
Y-00011
X00483Y-00121
X00603Y-00261
X00213Y-00049
X-00052Y-00341
X01263Y-00176
Y-00046
T02
X0037213Y-0035844
X00443Y-00386
Y-00186
X0037213Y-0021277
X00343Y-00286
T03
X01388Y-00246
Y-00196
Y-00146
Y-00096
Y-00046
X01438
Y-00096
Y-00146
Y-00196
Y-00246
T04
X00707Y-0062
X00757
X00807
X00857
X00907
X00957
T05
X-00153Y-00614
X0105Y-00603
X0008606Y-003135
Y-0023476
Y-0015602
Y-0007728
X-00159Y00003
T07
X0138182Y-0056442
X0138182Y-0036757
T08
X01133Y-0060222
Y-0052348
Y-0044474
Y-00366
Y-0025537
Y-0017726
Y-0009974
Y-0002163
M30
