%FSLAX25Y25*%
%MOIN*%
G70*
G01*
G75*
G04 Layer_Physical_Order=1*
G04 Layer_Color=255*
%ADD10R,0.02008X0.01575*%
%ADD11R,0.05315X0.01575*%
%ADD12R,0.07480X0.03937*%
%ADD13R,0.03937X0.04331*%
%ADD14R,0.05709X0.06299*%
%ADD15R,0.06693X0.05906*%
%ADD16R,0.05906X0.06693*%
%ADD17R,0.06614X0.03150*%
%ADD18R,0.05512X0.05079*%
%ADD19R,0.05118X0.05079*%
%ADD20R,0.03543X0.02756*%
%ADD21R,0.02756X0.03543*%
%ADD22R,0.05906X0.05118*%
%ADD23R,0.02953X0.05512*%
%ADD24O,0.00787X0.02756*%
%ADD25O,0.02756X0.00787*%
%ADD26R,0.20276X0.20276*%
%ADD27C,0.04000*%
%ADD28C,0.00800*%
%ADD29C,0.03347*%
%ADD30C,0.06000*%
%ADD31R,0.06000X0.06000*%
G04:AMPARAMS|DCode=32|XSize=59.06mil|YSize=74.8mil|CornerRadius=14.76mil|HoleSize=0mil|Usage=FLASHONLY|Rotation=270.000|XOffset=0mil|YOffset=0mil|HoleType=Round|Shape=RoundedRectangle|*
%AMROUNDEDRECTD32*
21,1,0.05906,0.04528,0,0,270.0*
21,1,0.02953,0.07480,0,0,270.0*
1,1,0.02953,-0.02264,-0.01476*
1,1,0.02953,-0.02264,0.01476*
1,1,0.02953,0.02264,0.01476*
1,1,0.02953,0.02264,-0.01476*
%
%ADD32ROUNDEDRECTD32*%
%ADD33C,0.05709*%
%ADD34C,0.05906*%
%ADD35C,0.03937*%
%ADD36C,0.02400*%
D10*
X104359Y-7100D02*
D03*
X99241Y-9069D02*
D03*
Y-5131D02*
D03*
X100241Y-13632D02*
D03*
Y-17569D02*
D03*
X105359Y-15600D02*
D03*
D11*
X138182Y-51718D02*
D03*
Y-49159D02*
D03*
Y-46600D02*
D03*
Y-44041D02*
D03*
Y-41482D02*
D03*
D12*
X148812Y-51521D02*
D03*
Y-41679D02*
D03*
D13*
X68800Y-1753D02*
D03*
Y-8446D02*
D03*
X63800Y-8446D02*
D03*
Y-1753D02*
D03*
X101800Y-39753D02*
D03*
Y-46446D02*
D03*
D14*
X52694Y-54320D02*
D03*
D15*
X-8330Y-56289D02*
D03*
Y-3927D02*
D03*
D16*
X52694D02*
D03*
D17*
X52300Y-18100D02*
D03*
Y-22431D02*
D03*
Y-31092D02*
D03*
Y-26761D02*
D03*
Y-39753D02*
D03*
Y-35423D02*
D03*
Y-48415D02*
D03*
Y-44084D02*
D03*
D18*
X14505Y-57864D02*
D03*
D19*
X44426Y-58257D02*
D03*
D20*
X89241Y-49100D02*
D03*
X94359D02*
D03*
D21*
X60300Y-17041D02*
D03*
Y-22159D02*
D03*
X103300Y-33659D02*
D03*
Y-28541D02*
D03*
X99800Y-34159D02*
D03*
Y-29041D02*
D03*
X72800Y-6159D02*
D03*
Y-1041D02*
D03*
X92300Y-5159D02*
D03*
Y-41D02*
D03*
X86800Y-5159D02*
D03*
Y-41D02*
D03*
D22*
X79300Y-572D02*
D03*
Y-9628D02*
D03*
D23*
X86946Y-10600D02*
D03*
X92654D02*
D03*
D24*
X89627Y-16820D02*
D03*
X87658D02*
D03*
X85690D02*
D03*
X83721D02*
D03*
X81753D02*
D03*
X79784D02*
D03*
X77816D02*
D03*
X75847D02*
D03*
X73879D02*
D03*
X71910D02*
D03*
X69942D02*
D03*
X67973D02*
D03*
Y-44379D02*
D03*
X69942D02*
D03*
X71910D02*
D03*
X73879D02*
D03*
X75847D02*
D03*
X77816D02*
D03*
X79784D02*
D03*
X81753D02*
D03*
X83721D02*
D03*
X85690D02*
D03*
X87658D02*
D03*
X89627D02*
D03*
D25*
X65021Y-19773D02*
D03*
Y-21742D02*
D03*
Y-23710D02*
D03*
Y-25679D02*
D03*
Y-27647D02*
D03*
Y-29616D02*
D03*
Y-31584D02*
D03*
Y-33553D02*
D03*
Y-35521D02*
D03*
Y-37490D02*
D03*
Y-39458D02*
D03*
Y-41427D02*
D03*
X92580D02*
D03*
Y-39458D02*
D03*
Y-37490D02*
D03*
Y-35521D02*
D03*
Y-33553D02*
D03*
Y-31584D02*
D03*
Y-29616D02*
D03*
Y-27647D02*
D03*
Y-25679D02*
D03*
Y-23710D02*
D03*
Y-21742D02*
D03*
Y-19773D02*
D03*
D26*
X78800Y-30600D02*
D03*
D27*
X-200Y200D02*
D03*
X25100Y-53700D02*
D03*
X154300Y-1100D02*
D03*
X155300Y-59100D02*
D03*
D28*
X95690Y-37490D02*
X97200Y-39000D01*
Y-41200D02*
Y-39000D01*
Y-41200D02*
X97800Y-41800D01*
X82600Y-64700D02*
X85700Y-61600D01*
X68100Y-64700D02*
X82600D01*
X66700Y-63300D02*
X68100Y-64700D01*
X97800Y-45659D02*
Y-45400D01*
X94359Y-49100D02*
X97800Y-45659D01*
Y-45400D02*
X98847Y-46446D01*
X101800D01*
X60000Y-61900D02*
X68500Y-53400D01*
X41094Y-61900D02*
X60000D01*
X70700Y-61600D02*
X73879Y-58421D01*
Y-44379D01*
X75847Y-61453D02*
Y-44379D01*
X79784Y-60684D02*
X80700Y-61600D01*
X81753Y-57653D02*
X85700Y-61600D01*
X36700Y-60046D02*
X39954Y-63300D01*
X66700D01*
X96900Y-58900D02*
X103452Y-52348D01*
X83721Y-53831D02*
X88790Y-58900D01*
X95600Y-57500D02*
X102800Y-50300D01*
X89936Y-57500D02*
X95600D01*
X85690Y-53254D02*
X89936Y-57500D01*
X88790Y-58900D02*
X96900D01*
X68500Y-53400D02*
Y-50900D01*
X71910Y-47490D01*
Y-44379D01*
X125000Y-46600D02*
X138182D01*
X122874Y-44474D02*
X125000Y-46600D01*
X113300Y-44474D02*
X122874D01*
X107474Y-50300D02*
X113300Y-44474D01*
X102800Y-50300D02*
X107474D01*
X103452Y-52348D02*
X110300D01*
X63347Y-27647D02*
Y-27526D01*
X60300Y-26100D02*
Y-22159D01*
Y-26100D02*
X60622Y-26422D01*
X62243D01*
X60316Y-29616D02*
X65021D01*
X57300Y-26600D02*
X60316Y-29616D01*
X57300Y-26600D02*
Y-18600D01*
X48300Y-12100D02*
X50300Y-14100D01*
X57359D01*
X60300Y-17041D01*
X58859D02*
X60300D01*
X57300Y-18600D02*
X58859Y-17041D01*
X56419Y-8673D02*
X61345Y-13600D01*
X62243Y-26422D02*
X63347Y-27526D01*
X61345Y-13600D02*
X62300D01*
X62973Y-14273D01*
Y-19773D02*
Y-14273D01*
X55477Y-35423D02*
X57300Y-33600D01*
X52300Y-35423D02*
X55477D01*
X57300Y-33600D02*
X59800D01*
X92580Y-37490D02*
X95690D01*
X88500Y-52387D02*
X89241Y-51646D01*
Y-49100D01*
X45454Y-39753D02*
X52300D01*
X34300Y-28600D02*
X36792Y-31092D01*
X52300D01*
X40300Y-25100D02*
X42969Y-22431D01*
X52300D01*
X62973Y-19773D02*
X65021D01*
X92154Y-13746D02*
X92654Y-13246D01*
X90654Y-13746D02*
X92154D01*
X87658Y-16820D02*
Y-10813D01*
X81753Y-16820D02*
Y-14647D01*
X89627Y-14773D02*
X90654Y-13746D01*
X89627Y-16820D02*
Y-14773D01*
X79784Y-16820D02*
Y-10612D01*
X63800Y-8446D02*
X68800D01*
X63347Y-27647D02*
X65021D01*
X59753Y-33553D02*
X59800Y-33600D01*
X59753Y-33553D02*
X65021D01*
X52300Y-44084D02*
X57816D01*
X59300Y-42600D01*
Y-36100D01*
X59879Y-35521D01*
X65021D01*
X91592Y-46322D02*
X94359Y-49089D01*
X89800Y-46322D02*
X91592D01*
X89627Y-46149D02*
X89800Y-46322D01*
X89627Y-46149D02*
Y-44379D01*
X87658Y-47517D02*
X89241Y-49100D01*
X87658Y-47517D02*
Y-44379D01*
X85690Y-53254D02*
Y-44379D01*
X83721Y-53831D02*
Y-44379D01*
X81753Y-57653D02*
Y-44379D01*
X69942Y-46696D02*
Y-44379D01*
X125418Y-41482D02*
X138182D01*
X120536Y-36600D02*
X125418Y-41482D01*
X113300Y-36600D02*
X120536D01*
X117741Y-49159D02*
X138182D01*
X114552Y-52348D02*
X117741Y-49159D01*
X113300Y-52348D02*
X114552D01*
X122182Y-51718D02*
X138182D01*
X113678Y-60222D02*
X122182Y-51718D01*
X92580Y-27647D02*
X96253D01*
X92580Y-25679D02*
X95569D01*
Y-25642D01*
X92580Y-19773D02*
X92586Y-19767D01*
X93633D01*
X95531Y-17869D01*
Y-11869D01*
X96300Y-11100D01*
Y-6100D01*
X97268Y-5131D01*
X99241D01*
X97331Y-15542D02*
X99241Y-13632D01*
X99331D01*
X92580Y-21742D02*
X94204D01*
X97331Y-18615D01*
Y-15542D01*
X92580Y-23710D02*
X94956D01*
X104359Y-7100D02*
X105800D01*
X108947Y-10247D01*
Y-13373D02*
Y-10247D01*
Y-13373D02*
X113300Y-17726D01*
X105359Y-17596D02*
Y-15600D01*
Y-17596D02*
X113300Y-25537D01*
X129800Y-30100D02*
X132800Y-27100D01*
Y-4100D01*
X135800Y-1100D01*
X140300D01*
X143800Y-4600D01*
X131800Y-32100D02*
X135300Y-28600D01*
X146300D01*
X147800Y-27100D01*
Y-13600D01*
X143800Y-9600D02*
X147800Y-13600D01*
X101800Y-39753D02*
X102646D01*
X101146Y-38600D02*
X102646D01*
X86946Y-10100D02*
Y-6805D01*
X81753Y-14647D02*
X83800Y-12600D01*
X86800Y-41D02*
X92300D01*
X95241D01*
X83800Y-1600D02*
X85359Y-41D01*
X86800D01*
X83800Y-12600D02*
Y-1600D01*
X59453Y-1753D02*
X63800D01*
X102269Y-9069D02*
X102800Y-9600D01*
Y-17600D02*
Y-9600D01*
X100272Y-17600D02*
X102800D01*
X100241Y-17569D02*
X100272Y-17600D01*
X107426Y-4100D02*
X113300Y-9974D01*
X102800Y-4100D02*
X107426D01*
X101955Y-4945D02*
X102800Y-4100D01*
X101955Y-8755D02*
Y-4945D01*
X99241Y-9069D02*
X102269D01*
X94359Y-49100D02*
Y-49089D01*
X57538Y-59100D02*
X69942Y-46696D01*
X94956Y-23710D02*
X98566Y-20100D01*
X104034D01*
X95569Y-25642D02*
X99111Y-22100D01*
X103489D01*
X100146Y-37600D02*
X101146Y-38600D01*
X98300Y-37600D02*
X100146D01*
X96221Y-35521D02*
X98300Y-37600D01*
X92580Y-35521D02*
X96221D01*
X96253Y-27647D02*
X99300Y-24600D01*
X92580Y-29616D02*
X99225D01*
X92580Y-31584D02*
X95284D01*
X97859Y-34159D01*
X99800D01*
X102800D01*
X103300Y-33659D01*
X99300Y-24600D02*
X101300D01*
X102800Y-26100D01*
Y-28041D02*
Y-26100D01*
X110800Y-30100D02*
X129800D01*
X102646Y-39753D02*
X103800Y-38600D01*
X104300D01*
X103695Y-28541D02*
X105777Y-30623D01*
X104300Y-38600D02*
X107300Y-41600D01*
X103300Y-33659D02*
X104182D01*
X105723Y-35200D01*
X105900D01*
X107300Y-36600D01*
X113300D01*
X110300Y-32100D02*
X131800D01*
X126300Y-17600D02*
Y-4600D01*
X92654Y-10600D02*
Y-5513D01*
Y-13246D02*
Y-10600D01*
X107750Y3387D02*
X113300Y-2163D01*
X72098Y3387D02*
X107750D01*
X68800Y89D02*
X72098Y3387D01*
X68800Y-1753D02*
Y89D01*
X52300Y-26761D02*
X54461D01*
X59284Y-31584D01*
X65021D01*
X108868Y-28168D02*
X110800Y-30100D01*
X108868Y-28168D02*
Y-25100D01*
X107031Y-28831D02*
X110300Y-32100D01*
X103489Y-22100D02*
X107031Y-25642D01*
Y-28831D02*
Y-25642D01*
X104034Y-20100D02*
X108947Y-25013D01*
Y-25021D02*
Y-25013D01*
X72922Y-5281D02*
X73300Y-5659D01*
X64481Y-5281D02*
X72922D01*
X63800Y-4600D02*
X64481Y-5281D01*
X63800Y-4600D02*
Y-1753D01*
X74300Y-11100D02*
Y-9223D01*
X75178Y-8345D01*
Y-695D01*
X73331Y-572D02*
X79300D01*
X39200Y-59900D02*
X41097Y-61797D01*
X68800Y-11500D02*
Y-8446D01*
Y-11500D02*
X71910Y-14610D01*
Y-16820D02*
Y-14610D01*
X49300Y-59100D02*
X57538D01*
X37927Y-8673D02*
X56419D01*
X21500Y-5200D02*
X23100Y-6800D01*
X3876Y-23476D02*
X8606D01*
X1800Y-21400D02*
X3876Y-23476D01*
X1800Y-21400D02*
Y-6100D01*
X6600Y-1300D01*
X30554D01*
X37927Y-8673D01*
X79784Y-60684D02*
Y-50827D01*
X80100Y-50511D01*
Y-48689D01*
X79784Y-48373D02*
X80100Y-48689D01*
X79784Y-48373D02*
Y-44379D01*
X36700Y-60046D02*
Y-36357D01*
X23100Y-33000D02*
Y-6800D01*
X25800Y-35700D02*
X36043D01*
X23100Y-33000D02*
X25800Y-35700D01*
X36043D02*
X36700Y-36357D01*
X31332Y-29829D02*
Y-26869D01*
X38443Y-32875D02*
X40182Y-34614D01*
Y-38056D02*
Y-34614D01*
X39200Y-39037D02*
X40182Y-38056D01*
X31332Y-29829D02*
X34378Y-32875D01*
X38443D01*
X39200Y-59900D02*
Y-39037D01*
X31332Y-26869D02*
X33100Y-25100D01*
X40300D01*
D29*
X70700Y-62000D02*
D03*
X75700D02*
D03*
X80700D02*
D03*
X85700D02*
D03*
X90700D02*
D03*
X95700D02*
D03*
D30*
X105000Y-60300D02*
D03*
X-15300Y-61400D02*
D03*
X-15900Y300D02*
D03*
X113300Y-60222D02*
D03*
Y-52348D02*
D03*
Y-44474D02*
D03*
X8606Y-31350D02*
D03*
Y-23476D02*
D03*
Y-15602D02*
D03*
Y-7728D02*
D03*
D31*
X113300Y-36600D02*
D03*
D32*
X148418Y-59380D02*
D03*
Y-33427D02*
D03*
D33*
X138182Y-36757D02*
D03*
X138182Y-56442D02*
D03*
D34*
X113300Y-9974D02*
D03*
Y-2163D02*
D03*
Y-17726D02*
D03*
Y-25537D02*
D03*
D35*
X138800Y-24600D02*
D03*
Y-19600D02*
D03*
Y-14600D02*
D03*
Y-9600D02*
D03*
Y-4600D02*
D03*
X143800D02*
D03*
Y-9600D02*
D03*
Y-14600D02*
D03*
Y-19600D02*
D03*
Y-24600D02*
D03*
X37213Y-21277D02*
D03*
Y-35844D02*
D03*
X44300Y-18600D02*
D03*
X34300Y-28600D02*
D03*
X44300Y-38600D02*
D03*
D36*
X97300Y-45800D02*
D03*
X60300Y-26100D02*
D03*
X48300Y-12100D02*
D03*
X97400Y-41600D02*
D03*
X20300Y-47100D02*
D03*
X-12700Y-41600D02*
D03*
X-16200Y-56100D02*
D03*
X19300Y-53600D02*
D03*
X7800Y-60600D02*
D03*
X-6200Y-61100D02*
D03*
X-5200Y-34100D02*
D03*
X95800Y-600D02*
D03*
X88500Y-52387D02*
D03*
X58800Y-1100D02*
D03*
Y-6100D02*
D03*
X57800Y-54100D02*
D03*
X107300Y-41600D02*
D03*
X106600Y-31600D02*
D03*
X126300Y-4600D02*
D03*
Y-17600D02*
D03*
X64300Y-48600D02*
D03*
X74300Y-11100D02*
D03*
X49300Y-59300D02*
D03*
X21300Y-4900D02*
D03*
M02*
